SplineFontDB: 3.0
FontName: TeleSys
FullName: TeleSys
FamilyName: TeleSys
Weight: Regular
Copyright: Copyright (c) 2019, andrew
UComments: "2019-12-28: Created with FontForge (http://fontforge.org)"
Version: 001.000
ItalicAngle: 0
UnderlinePosition: -8
UnderlineWidth: 1
Ascent: 130
Descent: 30
InvalidEm: 0
LayerCount: 2
Layer: 0 0 "Back" 1
Layer: 1 0 "Fore" 0
XUID: [1021 584 2121672023 10834]
StyleMap: 0x0000
FSType: 0
OS2Version: 0
OS2_WeightWidthSlopeOnly: 0
OS2_UseTypoMetrics: 1
CreationTime: 1577574662
ModificationTime: 1577669949
PfmFamily: 17
TTFWeight: 400
TTFWidth: 5
LineGap: 14
VLineGap: 0
Panose: 2 0 5 9 0 0 0 0 0 0
OS2TypoAscent: 0
OS2TypoAOffset: 1
OS2TypoDescent: 0
OS2TypoDOffset: 1
OS2TypoLinegap: 14
OS2WinAscent: 0
OS2WinAOffset: 1
OS2WinDescent: 0
OS2WinDOffset: 1
HheadAscent: 0
HheadAOffset: 1
HheadDescent: 0
HheadDOffset: 1
OS2Vendor: 'PfEd'
MarkAttachClasses: 1
DEI: 91125
Encoding: UnicodeBmp
UnicodeInterp: none
NameList: AGL For New Fonts
DisplaySize: -36
AntiAlias: 0
FitToEm: 1
WinInfo: 57732 51 17
BeginPrivate: 0
EndPrivate
Grid
-160 20.0624796549 m 0
 320 20.0624796549 l 1024
  Named: "2/3"
-160 80.0624796549 m 0
 320 80.0624796549 l 1024
  Named: "1/3"
-160 40.1642456055 m 0
 320 40.1642456055 l 1024
39.9998550415 210 m 0
 39.9998550415 -110 l 1024
  Named: "middle"
-160 70.0000203451 m 0
 320 70.0000203451 l 1024
  Named: "lowercase top"
-160 90 m 0
 320 90 l 1024
  Named: "uppercase top"
39.6927490234 -110 m 1024
  Named: "half width"
39.9956515842 -110 m 1024
  Named: "half width"
40.1875 -110 m 1024
-160 50.2083333333 m 0
 320 50.2083333333 l 1024
  Named: "half height"
EndSplineSet
BeginChars: 65536 414

StartChar: exclam
Encoding: 33 33 0
Width: 80
Flags: HW
HStem: 10 20<20 40> 60 30<10 20 40 50> 80 20G<20 40>
VStem: 10 40<60 90> 20 20<10 30 40 60 90 100>
LayerCount: 2
Fore
SplineSet
50 60 m 1xd0
 40 60 l 1
 40 40 l 1
 20 40 l 1
 20 60 l 1xc8
 10 60 l 1
 10 90 l 1xd0
 20 90 l 1xc8
 20 100 l 1
 40 100 l 1xa8
 40 90 l 1xc8
 50 90 l 1
 50 60 l 1xd0
40 10 m 1
 20 10 l 1
 20 30 l 1
 40 30 l 1
 40 10 l 1
EndSplineSet
Validated: 1
EndChar

StartChar: numbersign
Encoding: 35 35 1
Width: 80
Flags: W
HStem: 0 21G<10 30 40 60> 20 10<0 10 30 40 60 70> 60 10<0 10 30 40 60 70> 70 20G<10 30 40 60>
VStem: 10 20<0 20 30 60 70 90> 40 20<0 20 30 60 70 90>
LayerCount: 2
Fore
SplineSet
70 20 m 1x6c
 60 20 l 1x6c
 60 0 l 1
 40 0 l 1x8c
 40 20 l 1
 30 20 l 1x4c
 30 0 l 1
 10 0 l 1x8c
 10 20 l 1
 0 20 l 1
 0 30 l 1
 10 30 l 1
 10 60 l 1
 0 60 l 1
 0 70 l 1
 10 70 l 1x6c
 10 90 l 1
 30 90 l 1x1c
 30 70 l 1
 40 70 l 1x2c
 40 90 l 1
 60 90 l 1x1c
 60 70 l 1
 70 70 l 1
 70 60 l 1
 60 60 l 1
 60 30 l 1
 70 30 l 1
 70 20 l 1x6c
40 30 m 1
 40 60 l 1
 30 60 l 1
 30 30 l 1
 40 30 l 1
EndSplineSet
Validated: 1
EndChar

StartChar: percent
Encoding: 37 37 2
Width: 80
Flags: HW
HStem: 0 10<50 60> 10 20<30 40 70 80> 20 20<10 20> 30 20<20 30> 30 10<50 60> 40 20<30 40> 50 20<40 50> 60 20<50 60> 70 20<60 70> 70 10<20 30> 80 20<0 10 40 50> 100 10<20 30>
VStem: 0 20<80 100> 10 20<30 40> 10 10<20 30> 20 20<40 50> 30 20<10 30 50 60 80 100> 40 20<60 70> 50 20<70 80> 60 20<10 30> 60 10<80 90>
LayerCount: 2
Fore
SplineSet
80 10 m 1x440010
 70 10 l 1x440008
 70 0 l 1x800008
 40 0 l 1x800040
 40 10 l 1x400040
 30 10 l 1x400080
 30 30 l 1x4004
 20 30 l 1x1002
 20 20 l 1
 10 20 l 1x2002
 10 40 l 1x2004
 20 40 l 1x2001
 20 50 l 1x1001
 30 50 l 1x100080
 30 60 l 1x040080
 40 60 l 1x040040
 40 70 l 1x020040
 10 70 l 1x004240
 10 80 l 1x002240
 0 80 l 1
 0 100 l 1x0028
 10 100 l 1x0022
 10 110 l 1
 40 110 l 1x001240
 40 100 l 1x002240
 50 100 l 1x002080
 50 80 l 1
 60 80 l 1x010088
 60 90 l 1
 70 90 l 1x008088
 70 70 l 1x008020
 60 70 l 1x008040
 60 60 l 1x010040
 50 60 l 1x010080
 50 50 l 1x020080
 40 50 l 1x0201
 40 40 l 1
 70 40 l 1
 70 30 l 1x440108
 80 30 l 1
 80 10 l 1x440010
50 70 m 1x022020
 50 80 l 1x010080
 40 80 l 1
 40 70 l 1x022040
 50 70 l 1x022020
30 80 m 1x005880
 30 100 l 1
 20 100 l 1
 20 80 l 1
 30 80 l 1x005880
60 10 m 1x880090
 60 30 l 1
 50 30 l 1
 50 10 l 1
 60 10 l 1x880090
40 30 m 1x440440
 40 40 l 1x4401
 30 40 l 1
 30 30 l 1
 40 30 l 1x440440
EndSplineSet
Validated: 5
EndChar

StartChar: ampersand
Encoding: 38 38 3
Width: 80
Flags: HW
HStem: 10 10<20 40 60 70> 40 10<30 40 60 70> 60 10<20 30> 70 20<0 10 40 50> 90 10<20 30>
VStem: 0 20<20 60 70 90> 10 30<10 20 60 70 90 100> 30 20<70 90> 50 20<10 20>
LayerCount: 2
Fore
SplineSet
70 10 m 1xe080
 50 10 l 1
 50 20 l 1
 40 20 l 1
 40 10 l 1
 10 10 l 1
 10 20 l 1xe280
 0 20 l 1
 0 60 l 1xe4
 10 60 l 1xe2
 10 70 l 1xd2
 0 70 l 1
 0 90 l 1xd4
 10 90 l 1xd2
 10 100 l 1
 40 100 l 1xca
 40 90 l 1xd2
 50 90 l 1
 50 70 l 1xd1
 40 70 l 1xd2
 40 60 l 1xe2
 20 60 l 1
 20 20 l 1xe4
 40 20 l 1
 40 40 l 1xe2
 30 40 l 1
 30 50 l 1xe1
 70 50 l 1
 70 40 l 1
 60 40 l 1
 60 20 l 1
 70 20 l 1
 70 10 l 1xe080
30 70 m 1xed
 30 90 l 1
 20 90 l 1
 20 70 l 1
 30 70 l 1xed
EndSplineSet
Validated: 5
EndChar

StartChar: parenleft
Encoding: 40 40 4
Width: 80
Flags: HW
LayerCount: 2
Fore
SplineSet
60 -10 m 1
 40 -10 l 1
 40 0 l 1
 30 0 l 1
 30 20 l 1
 20 20 l 1
 20 90 l 1
 30 90 l 1
 30 110 l 1
 40 110 l 1
 40 120 l 1
 60 120 l 1
 60 110 l 1
 50 110 l 1
 50 90 l 1
 40 90 l 1
 40 20 l 1
 50 20 l 1
 50 0 l 1
 60 0 l 1
 60 -10 l 1
EndSplineSet
Validated: 1
EndChar

StartChar: parenright
Encoding: 41 41 5
Width: 80
Flags: HW
HStem: -10 10<10 20> 90 10<10 20>
VStem: 10 20<-10 0 90 100> 20 20<0 20 70 90> 30 20<20 70>
LayerCount: 2
Fore
SplineSet
50 20 m 1xc8
 40 20 l 1
 40 0 l 1xd0
 30 0 l 1
 30 -10 l 1
 10 -10 l 1
 10 0 l 1xe0
 20 0 l 1
 20 20 l 1xd0
 30 20 l 1
 30 90 l 1xc8
 20 90 l 1
 20 110 l 1xd0
 10 110 l 1
 10 120 l 1
 30 120 l 1
 30 110 l 1xe0
 40 110 l 1
 40 90 l 1xd0
 50 90 l 1
 50 20 l 1xc8
EndSplineSet
Validated: 1
EndChar

StartChar: plus
Encoding: 43 43 6
Width: 80
Flags: HW
HStem: 50 10<10 30 50 70>
VStem: 30 20<30 50 60 80>
LayerCount: 2
Fore
SplineSet
70 50 m 1
 50 50 l 1
 50 30 l 1
 30 30 l 1
 30 50 l 1
 10 50 l 1
 10 60 l 1
 30 60 l 1
 30 80 l 1
 50 80 l 1
 50 60 l 1
 70 60 l 1
 70 50 l 1
EndSplineSet
Validated: 1
EndChar

StartChar: comma
Encoding: 44 44 7
Width: 80
Flags: HW
HStem: -10 10<20 30> 10 20<20 30>
VStem: 20 20<-10 0> 30 20<0 10>
LayerCount: 2
Fore
SplineSet
50 0 m 1xd0
 40 0 l 1
 40 -10 l 1
 20 -10 l 1
 20 0 l 1xe0
 30 0 l 1
 30 10 l 1xd0
 20 10 l 1
 20 30 l 1xe0
 50 30 l 1
 50 0 l 1xd0
EndSplineSet
Validated: 1
EndChar

StartChar: period
Encoding: 46 46 8
Width: 80
Flags: HW
HStem: 10 20<20 50>
VStem: 20 30<10 30>
LayerCount: 2
Fore
SplineSet
50 10 m 1
 20 10 l 1
 20 30 l 1
 50 30 l 1
 50 10 l 1
EndSplineSet
Validated: 1
EndChar

StartChar: slash
Encoding: 47 47 9
Width: 80
Flags: HW
LayerCount: 2
Fore
SplineSet
40 90 m 1
 40 70 l 1
 30 70 l 1
 30 50 l 1
 20 50 l 1
 20 30 l 1
 10 30 l 1
 10 10 l 1
 0 10 l 1
 0 -10 l 1
 20 -10 l 1
 20 10 l 1
 30 10 l 1
 30 30 l 1
 40 30 l 1
 40 50 l 1
 50 50 l 1
 50 70 l 1
 60 70 l 9
 60 90 l 25
 70 90 l 25
 70 110 l 25
 50 110 l 25
 50 90 l 25
 40 90 l 1
EndSplineSet
Validated: 9
EndChar

StartChar: zero
Encoding: 48 48 10
Width: 80
Flags: HW
HStem: 10 10<30 50> 30 20<30 40> 60 20<40 50> 90 10<30 50>
VStem: 10 30<30 50> 10 20<20 30 50 90> 40 30<60 80> 50 20<20 60 80 90>
LayerCount: 2
Fore
SplineSet
30 40 m 1
 30 70 l 1
 40 70 l 1
 40 40 l 1
 30 40 l 1
70 20 m 1xf5
 60 20 l 1
 60 10 l 1
 10 10 l 1
 10 20 l 1
 0 20 l 1
 0 90 l 1
 10 90 l 1
 10 100 l 1
 60 100 l 1
 60 90 l 1
 70 90 l 1
 70 20 l 1xf5
50 90 m 1
 20 90 l 1
 20 20 l 1
 50 20 l 1
 50 90 l 1
EndSplineSet
Validated: 1
EndChar

StartChar: one
Encoding: 49 49 11
Width: 80
Flags: HW
HStem: 10 21G<30 50> 70 20<20 30> 80 20G<30 50>
VStem: 30 20<10 70 90 100>
LayerCount: 2
Fore
SplineSet
50 10 m 1xb0
 30 10 l 1
 30 70 l 1
 0 70 l 1xd0
 0 80 l 1
 20 80 l 1xb0
 20 90 l 1
 30 90 l 1xd0
 30 100 l 1
 50 100 l 1
 50 10 l 1xb0
EndSplineSet
Validated: 1
EndChar

StartChar: two
Encoding: 50 50 12
Width: 80
Flags: HW
HStem: 10 20<10 20> 10 10<30 70> 30 20<30 40> 40 20<40 50> 70 20<10 20> 90 10<30 50>
VStem: 10 20<20 30 70 90> 20 20<30 40> 30 20<40 50> 40 20<50 60> 50 20<60 90>
LayerCount: 2
Fore
SplineSet
70 20 m 25
 70 10 l 25
 0 10 l 25
 0 30 l 25
 10 30 l 25
 10 40 l 17x8220
 20 40 l 1
 20 50 l 1x91
 30 50 l 1x9080
 30 60 l 1x2080
 40 60 l 1x2040
 40 70 l 1x1040
 50 70 l 1
 50 90 l 1
 20 90 l 1x1620
 20 70 l 1
 0 70 l 1
 0 90 l 1x0a20
 10 90 l 1x09
 10 100 l 1x05
 60 100 l 1
 60 90 l 1x0440
 70 90 l 1
 70 70 l 1x1420
 60 70 l 1x1440
 60 60 l 1x2040
 50 60 l 1x2080
 50 50 l 1x1080
 40 50 l 1x11
 40 40 l 1x21
 30 40 l 1
 30 30 l 9
 20 30 l 25
 20 20 l 25
 70 20 l 25
EndSplineSet
Validated: 1
EndChar

StartChar: three
Encoding: 51 51 13
Width: 80
Flags: HW
HStem: 10 10<30 50> 20 20<10 20> 50 10<30 50> 70 20<10 20> 90 10<30 50>
VStem: 10 20<20 40 70 90> 50 20<20 50 60 90>
LayerCount: 2
Fore
SplineSet
70 20 m 1x6e
 60 20 l 1x6e
 60 10 l 1
 10 10 l 1xa6
 10 20 l 1
 0 20 l 1
 0 40 l 1
 20 40 l 1x66
 20 20 l 1
 50 20 l 1
 50 50 l 1
 20 50 l 1
 20 60 l 1
 50 60 l 1
 50 90 l 1
 20 90 l 1xae
 20 70 l 1
 0 70 l 1
 0 90 l 1
 10 90 l 1x36
 10 100 l 1
 60 100 l 1
 60 90 l 1
 70 90 l 1
 70 60 l 1
 60 60 l 1
 60 50 l 1
 70 50 l 1
 70 20 l 1x6e
EndSplineSet
Validated: 1
EndChar

StartChar: four
Encoding: 52 52 14
Width: 80
Flags: HW
HStem: 10 21G<40 60> 30 20<0 10> 30 10<20 40 60 70> 60 20G<40 60> 80 20G<10 30>
VStem: 0 20<40 50> 10 20<50 100> 40 20<10 30 40 80>
LayerCount: 2
Fore
SplineSet
70 30 m 1x35
 60 30 l 1x35
 60 10 l 1
 40 10 l 1x85
 40 30 l 1x25
 0 30 l 1
 0 50 l 1x45
 10 50 l 1
 10 100 l 1
 30 100 l 1
 30 50 l 1x4b
 20 50 l 1x4d
 20 40 l 1
 40 40 l 1
 40 80 l 1
 60 80 l 1
 60 40 l 1
 70 40 l 1
 70 30 l 1x35
EndSplineSet
Validated: 1
EndChar

StartChar: five
Encoding: 53 53 15
Width: 80
Flags: HW
HStem: 10 20<40 50> 10 10<10 40> 30 20<60 70> 50 10<30 50> 90 10<30 70>
VStem: 10 20<60 90> 40 20<20 30> 50 20<30 50>
LayerCount: 2
Fore
SplineSet
70 30 m 1x2d
 60 30 l 1
 60 20 l 1x6e
 50 20 l 1x6d
 50 10 l 1x8d
 0 10 l 1
 0 20 l 1
 40 20 l 1x4e
 40 30 l 1x8e
 50 30 l 1
 50 50 l 1
 0 50 l 1
 0 100 l 1
 70 100 l 1
 70 90 l 1x9d
 20 90 l 1
 20 60 l 1
 60 60 l 1x9e
 60 50 l 1x2e
 70 50 l 1
 70 30 l 1x2d
EndSplineSet
Validated: 1
EndChar

StartChar: six
Encoding: 54 54 16
Width: 80
Flags: HW
HStem: 10 10<30 50> 60 10<40 50> 80 20<40 50> 90 10<50 60>
VStem: 10 20<20 60> 20 20<70 80> 30 20<80 90> 50 20<20 60>
LayerCount: 2
Fore
SplineSet
60 100 m 1
 60 90 l 1
 40 90 l 1xd2
 40 80 l 1xe2
 30 80 l 1
 30 70 l 1
 60 70 l 1
 60 60 l 1
 70 60 l 1
 70 20 l 1xe5
 60 20 l 1
 60 10 l 1
 10 10 l 1
 10 20 l 1xe5
 0 20 l 1
 0 70 l 1xe8
 10 70 l 1
 10 80 l 1xe4
 20 80 l 9xe2
 20 90 l 25
 30 90 l 25
 30 100 l 25
 60 100 l 1
50 20 m 1
 50 60 l 1
 20 60 l 1
 20 20 l 1xc9
 50 20 l 1
EndSplineSet
Validated: 1
EndChar

StartChar: seven
Encoding: 55 55 17
Width: 80
Flags: HW
HStem: 10 21G<20 40> 80 20<60 70> 90 10<10 50>
VStem: 20 20<10 40> 30 20<40 60> 40 20<60 80> 50 20<80 90>
LayerCount: 2
Fore
SplineSet
70 80 m 1xc2
 60 80 l 1
 60 60 l 1xc4
 50 60 l 1
 50 40 l 1xc8
 40 40 l 1
 40 10 l 1
 20 10 l 1
 20 40 l 1xd0
 30 40 l 1
 30 60 l 1xc8
 40 60 l 1
 40 80 l 1xc4
 50 80 l 1xc2
 50 90 l 1
 0 90 l 1
 0 100 l 1xa2
 70 100 l 1
 70 80 l 1xc2
EndSplineSet
Validated: 1
EndChar

StartChar: eight
Encoding: 56 56 18
Width: 80
Flags: HW
HStem: 10 10<30 50> 20 30<10 20 60 70> 40 20<40 50> 50 20<30 40> 60 30<10 20 60 70> 90 10<30 50>
VStem: 10 20<20 50 70 90> 20 40<10 20 50 60 90 100> 50 20<20 40 60 90>
LayerCount: 2
Fore
SplineSet
70 20 m 1x4880
 60 20 l 1x49
 60 10 l 1
 10 10 l 1x81
 10 20 l 1x41
 0 20 l 1
 0 50 l 1x42
 10 50 l 1
 10 60 l 1x49
 0 60 l 1
 0 90 l 1x4a
 10 90 l 1x49
 10 100 l 1
 60 100 l 1x05
 60 90 l 1x09
 70 90 l 1
 70 60 l 1x0880
 60 60 l 1
 60 50 l 1x49
 70 50 l 1
 70 20 l 1x4880
40 60 m 1
 50 60 l 1x2280
 50 90 l 1
 20 90 l 1
 20 70 l 9
 30 70 l 25
 30 60 l 25
 40 60 l 1
50 20 m 1x9280
 50 40 l 1
 40 40 l 1xa280
 40 50 l 1
 20 50 l 1
 20 20 l 1
 50 20 l 1x9280
EndSplineSet
Validated: 1
EndChar

StartChar: nine
Encoding: 57 57 19
Width: 80
Flags: HW
HStem: 10 20<30 40> 10 10<20 30> 40 10<30 40> 90 10<30 50>
VStem: 10 20<50 90> 30 20<20 30> 40 20<30 40> 50 20<50 90>
LayerCount: 2
Fore
SplineSet
10 10 m 1
 10 20 l 1
 30 20 l 1x74
 30 30 l 1xb4
 40 30 l 1
 40 40 l 1
 10 40 l 1
 10 50 l 1
 0 50 l 1
 0 90 l 1
 10 90 l 1
 10 100 l 1
 60 100 l 1
 60 90 l 1xba
 70 90 l 1
 70 40 l 1xb1
 60 40 l 1
 60 30 l 1xb2
 50 30 l 9xb4
 50 20 l 25
 40 20 l 25
 40 10 l 25
 10 10 l 1
50 50 m 1x39
 50 90 l 1
 20 90 l 1
 20 50 l 1
 50 50 l 1x39
EndSplineSet
Validated: 1
EndChar

StartChar: colon
Encoding: 58 58 20
Width: 80
Flags: HW
HStem: 20 20<20 50> 70 20<20 50>
VStem: 20 30<20 40 70 90>
LayerCount: 2
Fore
SplineSet
50 70 m 1
 20 70 l 1
 20 90 l 1
 50 90 l 1
 50 70 l 1
50 20 m 1
 20 20 l 1
 20 40 l 1
 50 40 l 1
 50 20 l 1
EndSplineSet
Validated: 1
EndChar

StartChar: semicolon
Encoding: 59 59 21
Width: 80
Flags: HW
HStem: 0 10<25 35> 20 20<25 35> 70 20<25 55>
VStem: 25 20<0 10> 35 20<10 20>
LayerCount: 2
Fore
SplineSet
50 70 m 1xe8
 20 70 l 1
 20 90 l 1xf0
 50 90 l 1
 50 70 l 1xe8
50 10 m 1xe8
 40 10 l 1
 40 0 l 1
 20 0 l 1
 20 10 l 1xf0
 30 10 l 1
 30 20 l 1xe8
 20 20 l 1
 20 40 l 1xf0
 50 40 l 1
 50 10 l 1xe8
EndSplineSet
Validated: 1
EndChar

StartChar: less
Encoding: 60 60 22
Width: 80
Flags: HW
HStem: 10 20<50 60> 10 10<60 70> 20 20<40 50> 30 20<30 40> 50 10<10 20> 60 20<30 40> 70 20<40 50> 80 20<50 60> 90 10<60 70>
VStem: 10 20<50 60> 20 20<40 50 60 70> 30 20<30 40 70 80> 40 20<20 30 80 90> 50 20<10 20 90 100>
LayerCount: 2
Fore
SplineSet
70 10 m 1x4004
 50 10 l 1x8004
 50 20 l 1x2004
 40 20 l 1x2008
 40 30 l 1x1008
 30 30 l 1x1010
 30 40 l 1x2010
 20 40 l 1
 20 50 l 1x2820
 10 50 l 1
 10 60 l 1x2840
 20 60 l 1
 20 70 l 1x2a20
 30 70 l 1x2a10
 30 80 l 1x0410
 40 80 l 1x0408
 40 90 l 1x0208
 50 90 l 1x0204
 50 100 l 1x0104
 70 100 l 1
 70 90 l 1x0084
 60 90 l 1x0088
 60 80 l 1x0108
 50 80 l 1x0110
 50 70 l 1x0210
 40 70 l 1x0220
 40 60 l 1x0420
 30 60 l 1
 30 50 l 1x1440
 40 50 l 1x1420
 40 40 l 1x2020
 50 40 l 1x2010
 50 30 l 1x8010
 60 30 l 1x8008
 60 20 l 1x4008
 70 20 l 1
 70 10 l 1x4004
EndSplineSet
Validated: 1
EndChar

StartChar: equal
Encoding: 61 61 23
Width: 80
Flags: W
LayerCount: 2
Fore
SplineSet
70 60 m 1
 -0 60.1640625 l 1
 -0 70.1640625 l 1
 70 70 l 1
 70 60 l 1
70 40 m 1
 -0 40.1640625 l 1
 -0 50.1640625 l 1
 70 50 l 1
 70 40 l 1
EndSplineSet
Validated: 1
EndChar

StartChar: greater
Encoding: 62 62 24
Width: 80
Flags: HW
HStem: 10 20<20 30> 10 10<10 20> 20 20<30 40> 30 20<40 50> 50 10<60 70> 60 20<40 50> 70 20<30 40> 80 20<20 30> 90 10<10 20>
VStem: 10 20<10 20 90 100> 20 20<20 30 80 90> 30 20<30 40 70 80> 40 20<40 50 60 70> 50 20<50 60>
LayerCount: 2
Fore
SplineSet
70 50 m 1x0a04
 60 50 l 1
 60 40 l 1x2a08
 50 40 l 1x2a10
 50 30 l 1x1010
 40 30 l 1x1020
 40 20 l 1x2020
 30 20 l 1x2040
 30 10 l 1x8040
 10 10 l 1
 10 20 l 1x4040
 20 20 l 1x4020
 20 30 l 1x8020
 30 30 l 1x8010
 30 40 l 1x2010
 40 40 l 1x2008
 40 50 l 1x1008
 50 50 l 1
 50 60 l 1x1404
 40 60 l 1x1408
 40 70 l 1x0208
 30 70 l 1x0210
 30 80 l 1x0110
 20 80 l 1x0120
 20 90 l 1x00a0
 10 90 l 1
 10 100 l 1x00c0
 30 100 l 1x0140
 30 90 l 1x0240
 40 90 l 1x0220
 40 80 l 1x0420
 50 80 l 1x0410
 50 70 l 1x0210
 60 70 l 1
 60 60 l 1x0a08
 70 60 l 1
 70 50 l 1x0a04
EndSplineSet
Validated: 1
EndChar

StartChar: question
Encoding: 63 63 25
Width: 80
Flags: HW
HStem: 10 20<20 40> 40 20<20 30> 70 20<0 10 50 60> 90 10<20 40>
VStem: 0 20<70 90> 20 20<10 30 40 60> 30 20<60 70> 40 20<70 90>
LayerCount: 2
Fore
SplineSet
60 70 m 1xe1
 50 70 l 1
 50 60 l 1xe2
 40 60 l 1
 40 40 l 1
 20 40 l 1
 20 60 l 1xe4
 30 60 l 1
 30 70 l 1xe2
 40 70 l 1xe1
 40 90 l 1
 20 90 l 1xd9
 20 70 l 1
 0 70 l 1
 0 90 l 1
 10 90 l 1xe9
 10 100 l 1
 50 100 l 1xda
 50 90 l 1xea
 60 90 l 1
 60 70 l 1xe1
40 10 m 1xc4
 20 10 l 1
 20 30 l 1
 40 30 l 1
 40 10 l 1xc4
EndSplineSet
Validated: 1
EndChar

StartChar: bracketleft
Encoding: 91 91 26
Width: 80
Flags: HW
HStem: -10 10<40 60> 110 10<40 60>
VStem: 20 20<0 110>
LayerCount: 2
Fore
SplineSet
60 -10 m 1
 20 -10 l 1
 20 120 l 1
 60 120 l 1
 60 110 l 1
 40 110 l 1
 40 0 l 1
 60 0 l 1
 60 -10 l 1
EndSplineSet
Validated: 1
EndChar

StartChar: bracketright
Encoding: 93 93 27
Width: 80
Flags: HW
HStem: -10 10<10 30> 110 10<10 30>
VStem: 30 20<0 110>
LayerCount: 2
Fore
SplineSet
50 -10 m 1
 10 -10 l 1
 10 0 l 1
 30 0 l 1
 30 110 l 1
 10 110 l 1
 10 120 l 1
 50 120 l 1
 50 -10 l 1
EndSplineSet
Validated: 1
EndChar

StartChar: underscore
Encoding: 95 95 28
Width: 80
Flags: W
HStem: -30 10<0 80>
LayerCount: 2
Fore
SplineSet
80 -30 m 1
 0 -30 l 1
 0 -20 l 1
 80 -20 l 1
 80 -30 l 1
EndSplineSet
Validated: 1
EndChar

StartChar: braceleft
Encoding: 123 123 29
Width: 80
Flags: HW
HStem: -10 10<50 60> 40 10<10 20> 90 10<50 60>
VStem: 10 20<40 50> 20 20<30 40 50 60> 30 20<0 30 60 90> 40 20<-10 0 90 100>
CounterMasks: 1 e0
LayerCount: 2
Fore
SplineSet
60 -10 m 1xe2
 40 -10 l 1
 40 0 l 1xe2
 30 0 l 1
 30 30 l 1xe4
 20 30 l 1
 20 40 l 1xe8
 10 40 l 1
 10 50 l 1xf0
 20 50 l 1
 20 60 l 1xe8
 30 60 l 1
 30 90 l 1xe4
 40 90 l 1
 40 100 l 1
 60 100 l 1
 60 90 l 1xe2
 50 90 l 1
 50 60 l 1xe4
 40 60 l 1
 40 50 l 1xe8
 30 50 l 1
 30 40 l 1xf0
 40 40 l 1
 40 30 l 1xe8
 50 30 l 1
 50 0 l 1xe4
 60 0 l 1
 60 -10 l 1xe2
EndSplineSet
Validated: 1
EndChar

StartChar: bar
Encoding: 124 124 30
Width: 80
Flags: W
HStem: -30 21G<30 50>
VStem: 30 20<-30 130>
LayerCount: 2
Fore
SplineSet
50 -30 m 1
 30 -30 l 1
 30 130 l 1
 50 130 l 1
 50 -30 l 1
EndSplineSet
Validated: 1
EndChar

StartChar: braceright
Encoding: 125 125 31
Width: 80
Flags: HW
HStem: -10 10<20 30> 40 10<60 70> 90 10<20 30>
VStem: 20 20<-10 0 90 100> 30 20<0 30 60 90> 40 20<30 40 50 60> 50 20<40 50>
CounterMasks: 1 e0
LayerCount: 2
Fore
SplineSet
70 40 m 1xe2
 60 40 l 1
 60 30 l 1xe4
 50 30 l 1
 50 0 l 1xe8
 40 0 l 1
 40 -10 l 1
 20 -10 l 1
 20 0 l 1xf0
 30 0 l 1
 30 30 l 1xe8
 40 30 l 1
 40 40 l 1xe4
 50 40 l 1
 50 50 l 1xe2
 40 50 l 1
 40 60 l 1xe4
 30 60 l 1
 30 90 l 1xe8
 20 90 l 1
 20 100 l 1
 40 100 l 1
 40 90 l 1xf0
 50 90 l 1
 50 60 l 1xe8
 60 60 l 1
 60 50 l 1xe4
 70 50 l 1
 70 40 l 1xe2
EndSplineSet
Validated: 1
EndChar

StartChar: degree
Encoding: 176 176 32
Width: 80
Flags: HW
HStem: 70 10<30 50> 80 20<10 20 60 70> 100 10<30 50>
VStem: 10 20<80 100> 50 20<80 100>
LayerCount: 2
Fore
SplineSet
70 80 m 1x58
 60 80 l 1x58
 60 70 l 1
 20 70 l 1x98
 20 80 l 1
 10 80 l 1
 10 100 l 1
 20 100 l 1x58
 20 110 l 1
 60 110 l 1x38
 60 100 l 1
 70 100 l 1
 70 80 l 1x58
50 80 m 1xb8
 50 100 l 1
 30 100 l 1
 30 80 l 1
 50 80 l 1xb8
EndSplineSet
Validated: 1
EndChar

StartChar: plusminus
Encoding: 177 177 33
Width: 80
Flags: HW
HStem: 20 10<10 70> 60 10<10 30 50 70>
VStem: 30 20<40 60 70 90>
LayerCount: 2
Fore
SplineSet
70 60 m 1
 50 60 l 1
 50 40 l 1
 30 40 l 1
 30 60 l 1
 10 60 l 1
 10 70 l 1
 30 70 l 1
 30 90 l 1
 50 90 l 1
 50 70 l 1
 70 70 l 1
 70 60 l 1
70 20 m 1
 10 20 l 1
 10 30 l 1
 70 30 l 1
 70 20 l 1
EndSplineSet
Validated: 1
EndChar

StartChar: registered
Encoding: 174 174 34
Width: 80
Flags: HW
HStem: 10 20<10 20 60 70> 10 10<20 60> 30 10<50 60> 40 10<30 50> 50 20<50 60> 70 10<30 50> 80 20<10 20 60 70> 90 10<20 60>
VStem: 0 20<20 30 80 90> 0 10<30 80> 20 30<40 50 70 80> 20 10<30 40 50 70> 50 10<30 40 50 70> 60 20<20 30 80 90> 70 10<30 80>
LayerCount: 2
Fore
SplineSet
80 20 m 1x4104
 70 20 l 1x4102
 70 10 l 1
 10 10 l 1x8042
 10 20 l 1x4042
 0 20 l 1
 0 90 l 1x4180
 10 90 l 1x4140
 10 100 l 1
 70 100 l 1x0242
 70 90 l 1x0142
 80 90 l 1
 80 20 l 1x4104
60 50 m 1x0808
 50 50 l 1x1020
 50 70 l 1x0820
 30 70 l 1
 30 50 l 1x1410
 50 50 l 1x1420
 50 40 l 1x2020
 60 40 l 1x2008
 60 30 l 1
 70 30 l 1
 70 80 l 1x820a
 60 80 l 1x8204
 60 90 l 1
 20 90 l 1x0184
 20 80 l 1x0284
 50 80 l 1x0420
 50 70 l 1x0820
 60 70 l 1
 60 50 l 1x0808
60 30 m 1x8008
 50 30 l 1x2008
 50 40 l 1x2020
 30 40 l 1x1010
 30 30 l 1x2010
 20 30 l 1
 20 80 l 1x8280
 10 80 l 1
 10 30 l 1x8240
 20 30 l 1x8280
 20 20 l 1
 60 20 l 1x4084
 60 30 l 1x8008
EndSplineSet
Validated: 5
EndChar

StartChar: copyright
Encoding: 169 169 35
Width: 80
Flags: HW
HStem: 10 20<10 20 60 70> 10 10<20 60> 30 10<30 50> 40 10<50 60> 60 10<50 60> 70 10<30 50> 80 20<10 20 60 70> 90 10<20 60>
VStem: 0 20<20 30 80 90> 0 10<30 80> 20 10<40 70> 30 20<30 40 70 80> 50 10<40 50 60 70> 60 20<20 30 80 90> 70 10<30 80>
LayerCount: 2
Fore
SplineSet
80 20 m 1x4104
 70 20 l 1x4102
 70 10 l 1
 10 10 l 1x8042
 10 20 l 1x4042
 0 20 l 1
 0 90 l 1x4180
 10 90 l 1x4140
 10 100 l 1
 70 100 l 1x0242
 70 90 l 1x0142
 80 90 l 1
 80 20 l 1x4104
70 30 m 1x8002
 70 80 l 1x8202
 60 80 l 1x8204
 60 90 l 1
 20 90 l 1x0184
 20 80 l 1x0284
 10 80 l 1
 10 30 l 1x8240
 20 30 l 1x8280
 20 20 l 1
 60 20 l 1x4084
 60 30 l 1x8084
 70 30 l 1x8002
50 30 m 1x2410
 30 30 l 1x2410
 30 40 l 1x2420
 20 40 l 1x1020
 20 70 l 1
 30 70 l 1
 30 40 l 1x2420
 50 40 l 1
 50 30 l 1x2410
30 80 m 1
 50 80 l 1x0410
 50 70 l 1x0810
 60 70 l 1
 60 60 l 1
 50 60 l 1x0808
 50 70 l 1x0810
 30 70 l 1x0420
 30 80 l 1
60 40 m 1x1008
 50 40 l 1x2010
 50 50 l 1
 60 50 l 1
 60 40 l 1x1008
EndSplineSet
Validated: 5
EndChar

StartChar: logicalnot
Encoding: 172 172 36
Width: 80
Flags: HW
HStem: 40 30<50 70> 60 10<10 50>
VStem: 50 20<40 60>
LayerCount: 2
Fore
SplineSet
70 40 m 1xa0
 50 40 l 1xa0
 50 60 l 1
 10 60 l 1
 10 70 l 1x60
 70 70 l 1
 70 40 l 1xa0
EndSplineSet
Validated: 1
EndChar

StartChar: quotedbl
Encoding: 34 34 37
Width: 80
Flags: HW
HStem: 70 30<10 30 50 70>
VStem: 10 20<70 100> 50 20<70 100>
LayerCount: 2
Fore
SplineSet
70 70 m 1
 50 70 l 1
 50 100 l 1
 70 100 l 1
 70 70 l 1
30 70 m 1
 10 70 l 1
 10 100 l 1
 30 100 l 1
 30 70 l 1
EndSplineSet
Validated: 1
EndChar

StartChar: dollar
Encoding: 36 36 38
Width: 80
Flags: HW
HStem: -10 30<30 50> 10 20<20 30> 20 20<60 70> 20 10<10 20> 40 20<40 50> 50 20<30 40> 70 20<10 20> 80 20<50 60> 80 10<60 70> 90 30<30 50>
VStem: 10 20<20 30 70 90> 20 20<60 70> 30 20<-10 10 50 60 100 120> 40 20<40 50> 50 20<20 40 80 90>
LayerCount: 2
Fore
SplineSet
70 20 m 1x2402
 60 20 l 1x2404
 60 10 l 1x4004
 50 10 l 1x4008
 50 -10 l 1
 30 -10 l 1x8008
 30 10 l 1x4008
 20 10 l 1x4010
 20 20 l 1x1010
 10 20 l 1
 10 30 l 1x1020
 30 30 l 1x4020
 30 20 l 1
 50 20 l 1
 50 40 l 1x8822
 40 40 l 1x8804
 40 50 l 1x0404
 30 50 l 1x0408
 30 60 l 1x0808
 20 60 l 1
 20 70 l 1x0a10
 10 70 l 1
 10 90 l 1x0a20
 20 90 l 1x0a10
 20 100 l 1x0110
 30 100 l 1x0108
 30 120 l 1
 50 120 l 1x0048
 50 100 l 1x0108
 60 100 l 1x0104
 60 90 l 1x0084
 70 90 l 1
 70 80 l 1x0082
 50 80 l 1x0102
 50 90 l 1
 30 90 l 1
 30 70 l 1x0462
 40 70 l 1x0450
 40 60 l 1x0810
 50 60 l 1x0808
 50 50 l 1x0408
 60 50 l 1
 60 40 l 1x2404
 70 40 l 1
 70 20 l 1x2402
EndSplineSet
Validated: 1
EndChar

StartChar: quotesingle
Encoding: 39 39 39
Width: 80
Flags: HW
HStem: 70 30<30 50>
VStem: 30 20<70 100>
LayerCount: 2
Fore
SplineSet
50 70 m 1
 30 70 l 1
 30 100 l 1
 50 100 l 1
 50 70 l 1
EndSplineSet
Validated: 1
EndChar

StartChar: asterisk
Encoding: 42 42 40
Width: 80
Flags: HW
HStem: 20 10<15 25 55 65> 40 10<5 25 55 75> 60 10<15 25 55 65>
VStem: 15 20<20 30 60 70> 25 30<30 40 50 60> 45 20<20 30 60 70>
CounterMasks: 1 e0
LayerCount: 2
Fore
SplineSet
75 40 m 1xe8
 55 40 l 1
 55 30 l 1xe8
 65 30 l 1
 65 20 l 1
 45 20 l 1
 45 30 l 1
 35 30 l 1
 35 20 l 1
 15 20 l 1
 15 30 l 1xf4
 25 30 l 1
 25 40 l 1
 5 40 l 1
 5 50 l 1
 25 50 l 1
 25 60 l 1xe8
 15 60 l 1
 15 70 l 1
 35 70 l 1
 35 60 l 1
 45 60 l 1
 45 70 l 1
 65 70 l 1
 65 60 l 1xf4
 55 60 l 1
 55 50 l 1
 75 50 l 1
 75 40 l 1xe8
EndSplineSet
Validated: 1
EndChar

StartChar: hyphen
Encoding: 45 45 41
Width: 80
Flags: HW
HStem: 50 10<0 70>
LayerCount: 2
Fore
SplineSet
70 50 m 1
 0 50 l 1
 0 60 l 1
 70 60 l 1
 70 50 l 1
EndSplineSet
Validated: 1
EndChar

StartChar: at
Encoding: 64 64 42
Width: 80
Flags: HW
HStem: 10 10<20 60> 30 10<40 50> 60 10<40 50> 80 20<40 50> 90 10<20 40>
VStem: 0 20<20 90> 30 10<40 60> 40 20<80 90> 50 20<40 60 70 80>
LayerCount: 2
Fore
SplineSet
20 90 m 1
 20 20 l 1
 60 20 l 1
 60 10 l 1
 10 10 l 1
 10 20 l 1
 0 20 l 1
 0 90 l 1
 10 90 l 1
 10 100 l 1xed
 60 100 l 9xf480
 60 90 l 1
 70 90 l 25
 70 37 l 1xf480
 60 37 l 25
 60 30 l 25xf5
 30 30 l 1xf6
 30 40 l 1
 30 60 l 1
 30 70 l 1
 50 70 l 1
 50 90 l 25
 20 90 l 1
50 40 m 1
 50 60 l 1
 40 60 l 1
 40 40 l 1
 50 40 l 1
EndSplineSet
Validated: 1
EndChar

StartChar: A
Encoding: 65 65 43
Width: 80
Flags: HW
HStem: 10 21G<0 20 50 70> 40 10<20 50> 80 20<20 50>
VStem: 0 20<10 40 50 80> 50 20<10 40 50 80>
LayerCount: 2
Fore
SplineSet
70 10 m 1
 50 10 l 1
 50 40 l 1
 20 40 l 1
 20 10 l 1
 0 10 l 1
 0 80 l 1
 10 80 l 1
 10 90 l 1
 20 90 l 1
 20 100 l 1
 50 100 l 1
 50 90 l 1
 60 90 l 1
 60 80 l 1
 70 80 l 1
 70 10 l 1
50 50 m 1
 50 80 l 1
 20 80 l 1
 20 50 l 1
 50 50 l 1
EndSplineSet
Validated: 1
EndChar

StartChar: B
Encoding: 66 66 44
Width: 80
Flags: HW
HStem: 10 10<20 50> 50 10<20 50> 90 10<20 50>
VStem: 0 20<20 50 60 90> 50 20<20 50 60 90>
CounterMasks: 1 e0
LayerCount: 2
Fore
SplineSet
70 20 m 1
 60 20 l 1
 60 10 l 1
 0 10 l 1
 0 100 l 1
 60 100 l 1
 60 90 l 1
 70 90 l 1
 70 60 l 1
 60 60 l 1
 60 50 l 1
 70 50 l 1
 70 20 l 1
50 60 m 1
 50 90 l 1
 20 90 l 1
 20 60 l 1
 50 60 l 1
50 20 m 1
 50 50 l 1
 20 50 l 1
 20 20 l 1
 50 20 l 1
EndSplineSet
Validated: 1
EndChar

StartChar: C
Encoding: 67 67 45
Width: 80
Flags: HW
HStem: 10 10<20 50> 20 20<60 70> 70 20<60 70> 90 10<20 50>
VStem: 0 20<20 90> 50 20<20 40 70 90>
LayerCount: 2
Fore
SplineSet
70 20 m 1x4c
 60 20 l 1x4c
 60 10 l 1
 10 10 l 1x8c
 10 20 l 1
 0 20 l 1
 0 90 l 1
 10 90 l 1
 10 100 l 1
 60 100 l 1x5c
 60 90 l 1
 70 90 l 1
 70 70 l 1
 50 70 l 1x2c
 50 90 l 1
 20 90 l 1
 20 20 l 1
 50 20 l 1x9c
 50 40 l 1
 70 40 l 1
 70 20 l 1x4c
EndSplineSet
Validated: 1
EndChar

StartChar: D
Encoding: 68 68 46
Width: 80
Flags: HW
HStem: 10 20<40 50> 10 10<20 40> 80 20<40 50> 90 10<20 40>
VStem: 0 20<20 90> 40 20<20 30 80 90> 50 20<30 80>
LayerCount: 2
Fore
SplineSet
70 30 m 1xaa
 60 30 l 1xac
 60 20 l 1x4c
 50 20 l 1x4a
 50 10 l 1x8a
 0 10 l 1
 0 100 l 1x5a
 50 100 l 1x2a
 50 90 l 1x1a
 60 90 l 1x1c
 60 80 l 1x2c
 70 80 l 1
 70 30 l 1xaa
50 30 m 1x8a
 50 80 l 1xaa
 40 80 l 1xac
 40 90 l 1
 20 90 l 1
 20 20 l 1
 40 20 l 1x5c
 40 30 l 1x8c
 50 30 l 1x8a
EndSplineSet
Validated: 1
EndChar

StartChar: E
Encoding: 69 69 47
Width: 80
Flags: HW
HStem: 10 10<20 70> 50 10<20 60> 90 10<20 70>
VStem: 0 20<20 50 60 90>
CounterMasks: 1 e0
LayerCount: 2
Fore
SplineSet
70 10 m 1
 0 10 l 1
 0 100 l 1
 70 100 l 1
 70 90 l 1
 20 90 l 1
 20 60 l 1
 60 60 l 1
 60 50 l 1
 20 50 l 1
 20 20 l 1
 70 20 l 1
 70 10 l 1
EndSplineSet
Validated: 1
EndChar

StartChar: F
Encoding: 70 70 48
Width: 80
Flags: HW
HStem: 10 21G<0 20> 50 10<20 60> 90 10<20 70>
VStem: 0 20<10 50 60 90>
LayerCount: 2
Fore
SplineSet
70 90 m 1
 20 90 l 1
 20 60 l 1
 60 60 l 1
 60 50 l 1
 20 50 l 1
 20 10 l 1
 0 10 l 1
 0 100 l 1
 70 100 l 1
 70 90 l 1
EndSplineSet
Validated: 1
EndChar

StartChar: G
Encoding: 71 71 49
Width: 80
Flags: HW
HStem: 10 10<20 50> 40 10<40 50> 70 20<60 70> 90 10<20 50>
VStem: 0 20<20 90> 50 20<20 40 70 90>
LayerCount: 2
Fore
SplineSet
70 10 m 1xdc
 10 10 l 1
 10 20 l 1
 0 20 l 1
 0 90 l 1
 10 90 l 1
 10 100 l 1
 60 100 l 1xdc
 60 90 l 1
 70 90 l 1
 70 70 l 1
 50 70 l 1xec
 50 90 l 1
 20 90 l 1
 20 20 l 1
 50 20 l 1
 50 40 l 1
 40 40 l 1
 40 50 l 1
 70 50 l 1
 70 10 l 1xdc
EndSplineSet
Validated: 1
EndChar

StartChar: H
Encoding: 72 72 50
Width: 80
Flags: HW
HStem: 10 21G<0 20 50 70> 50 10<20 50> 80 20G<0 20 50 70>
VStem: 0 20<10 50 60 100> 50 20<10 50 60 100>
LayerCount: 2
Fore
SplineSet
70 10 m 1
 50 10 l 1
 50 50 l 1
 20 50 l 1
 20 10 l 1
 0 10 l 1
 0 100 l 1
 20 100 l 1
 20 60 l 1
 50 60 l 1
 50 100 l 1
 70 100 l 1
 70 10 l 1
EndSplineSet
Validated: 1
EndChar

StartChar: I
Encoding: 73 73 51
Width: 80
Flags: HW
HStem: 10 10<0 20 40 60> 90 10<0 20 40 60>
VStem: 20 20<20 90>
LayerCount: 2
Fore
SplineSet
60 10 m 1
 0 10 l 1
 0 20 l 1
 20 20 l 1
 20 90 l 1
 0 90 l 1
 0 100 l 1
 60 100 l 1
 60 90 l 1
 40 90 l 1
 40 20 l 1
 60 20 l 1
 60 10 l 1
EndSplineSet
Validated: 1
EndChar

StartChar: J
Encoding: 74 74 52
Width: 80
Flags: HW
HStem: 10 10<20 50> 20 20<0 10> 80 20G<50 70>
VStem: 0 20<20 40> 50 20<20 100>
LayerCount: 2
Fore
SplineSet
70 20 m 1x78
 60 20 l 1x78
 60 10 l 1
 10 10 l 1xb8
 10 20 l 1
 0 20 l 1
 0 40 l 1
 20 40 l 1x78
 20 20 l 1
 50 20 l 1xb8
 50 100 l 1
 70 100 l 1
 70 20 l 1x78
EndSplineSet
Validated: 1
EndChar

StartChar: K
Encoding: 75 75 53
Width: 80
Flags: HW
HStem: 10 20<60 70> 50 10<20 40> 80 20<60 70>
VStem: 0 20<10 50 60 100> 40 20<30 50 60 80> 50 20<10 30 80 100>
CounterMasks: 1 e0
LayerCount: 2
Fore
SplineSet
70 10 m 1xf4
 50 10 l 1
 50 30 l 1xf4
 40 30 l 1
 40 50 l 1
 20 50 l 1
 20 10 l 1
 0 10 l 1
 0 100 l 1
 20 100 l 1
 20 60 l 1
 40 60 l 1
 40 80 l 1xf8
 50 80 l 1
 50 100 l 1
 70 100 l 1
 70 80 l 1xf4
 60 80 l 1
 60 60 l 1xf8
 50 60 l 1
 50 50 l 1xf4
 60 50 l 1
 60 30 l 1xf8
 70 30 l 1
 70 10 l 1xf4
EndSplineSet
Validated: 1
EndChar

StartChar: L
Encoding: 76 76 54
Width: 80
Flags: HW
HStem: 10 10<20 70> 80 20G<0 20>
VStem: 0 20<20 100>
LayerCount: 2
Fore
SplineSet
70 10 m 1
 0 10 l 1
 0 100 l 1
 20 100 l 1
 20 20 l 1
 70 20 l 1
 70 10 l 1
EndSplineSet
Validated: 1
EndChar

StartChar: M
Encoding: 77 77 55
Width: 80
Flags: HW
HStem: 10 21G<0 20 50 70> 70 10<20 30 40 50> 80 20G<0 20 50 70>
VStem: 0 20<10 70 80 100> 30 10<40 70> 50 20<10 70 80 100>
CounterMasks: 1 1c
LayerCount: 2
Fore
SplineSet
70 10 m 1xbc
 50 10 l 1
 50 70 l 1
 40 70 l 1
 40 40 l 1
 30 40 l 1
 30 70 l 1
 20 70 l 1xdc
 20 10 l 1
 0 10 l 1
 0 100 l 1
 20 100 l 1xbc
 20 80 l 1
 30 80 l 1
 30 70 l 1
 40 70 l 1
 40 80 l 1
 50 80 l 1xdc
 50 100 l 1
 70 100 l 1
 70 10 l 1xbc
EndSplineSet
Validated: 5
EndChar

StartChar: N
Encoding: 78 78 56
Width: 80
Flags: HW
LayerCount: 2
Fore
SplineSet
30 70 m 25
 30 80 l 25
 20 80 l 1
 20 100 l 1
 0 100 l 1
 0 10 l 1
 20 10 l 9
 20 60 l 25
 30 60 l 25
 30 50 l 25
 40 50 l 25
 40 40 l 25
 50 40 l 17
 50 30 l 1
 50 10 l 1
 70 10 l 1
 70 100 l 1
 50 100 l 1
 50 60 l 1
 40 60 l 9
 40 70 l 25
 30 70 l 25
EndSplineSet
Validated: 9
EndChar

StartChar: O
Encoding: 79 79 57
Width: 80
Flags: HW
HStem: 10 10<20 50> 90 10<20 50>
VStem: 0 20<20 90> 50 20<20 90>
LayerCount: 2
Fore
SplineSet
70 20 m 1
 60 20 l 1
 60 10 l 1
 10 10 l 1
 10 20 l 1
 0 20 l 1
 0 90 l 1
 10 90 l 1
 10 100 l 1
 60 100 l 1
 60 90 l 1
 70 90 l 1
 70 20 l 1
50 20 m 1
 50 90 l 1
 20 90 l 1
 20 20 l 1
 50 20 l 1
EndSplineSet
Validated: 1
EndChar

StartChar: P
Encoding: 80 80 58
Width: 80
Flags: HW
HStem: 10 21G<0 20> 50 10<20 50> 90 10<20 50>
VStem: 0 20<10 50 60 90> 50 20<60 90>
LayerCount: 2
Fore
SplineSet
70 60 m 1
 60 60 l 1
 60 50 l 1
 20 50 l 1
 20 10 l 1
 0 10 l 1
 0 100 l 1
 60 100 l 1
 60 90 l 1
 70 90 l 1
 70 60 l 1
50 60 m 1
 50 90 l 1
 20 90 l 1
 20 60 l 1
 50 60 l 1
EndSplineSet
Validated: 1
EndChar

StartChar: Q
Encoding: 81 81 59
Width: 80
Flags: HW
HStem: -10 10<60 70> 0 20<40 50> 10 10<20 40> 90 10<20 50>
VStem: 0 20<20 90> 40 20<0 10> 50 20<-10 0 20 90>
LayerCount: 2
Fore
SplineSet
70 -10 m 1xba
 50 -10 l 1xba
 50 0 l 1x5a
 40 0 l 1x5c
 40 10 l 1
 10 10 l 1
 10 20 l 1
 0 20 l 1
 0 90 l 1
 10 90 l 1
 10 100 l 1
 60 100 l 1
 60 90 l 1x3c
 70 90 l 1
 70 20 l 1x3a
 60 20 l 1
 60 0 l 1xbc
 70 0 l 1
 70 -10 l 1xba
50 20 m 1x5a
 50 90 l 1
 20 90 l 1
 20 20 l 1x3a
 50 20 l 1x5a
EndSplineSet
Validated: 1
EndChar

StartChar: R
Encoding: 82 82 60
Width: 80
Flags: HW
HStem: 10 21G<0 20 50 70> 40 20<40 50> 90 10<20 50>
VStem: 0 20<10 50 60 90> 40 20<40 50> 50 20<10 40 60 90>
LayerCount: 2
Fore
SplineSet
70 10 m 1xf4
 50 10 l 1
 50 40 l 1xf4
 40 40 l 1
 40 50 l 1
 20 50 l 1
 20 10 l 1
 0 10 l 1
 0 100 l 1
 60 100 l 1
 60 90 l 1xf8
 70 90 l 1
 70 60 l 1xf4
 60 60 l 1
 60 40 l 1xf8
 70 40 l 1
 70 10 l 1xf4
50 60 m 1
 50 90 l 1
 20 90 l 1
 20 60 l 1
 50 60 l 1
EndSplineSet
Validated: 1
EndChar

StartChar: S
Encoding: 83 83 61
Width: 80
Flags: HW
LayerCount: 2
Fore
SplineSet
50 40 m 1
 50 20 l 1
 20 20 l 1
 20 30 l 1
 0 30 l 1
 0 20 l 1
 10 20 l 1
 10 10 l 1
 60 10 l 1
 60 20 l 1
 70 20 l 1
 70 40 l 1
 60 40 l 1
 60 50 l 1
 50 50 l 1
 50 60 l 1
 30 60 l 1
 30 70 l 1
 20 70 l 1
 20 90 l 1
 50 90 l 1
 50 80 l 1
 70 80 l 1
 70 90 l 1
 60 90 l 1
 60 100 l 1
 10 100 l 1
 10 90 l 1
 0 90 l 1
 0 70 l 1
 10 70 l 1
 10 60 l 1
 20 60 l 1
 20 50 l 1
 40 50 l 9
 40 40 l 25
 50 40 l 1
EndSplineSet
Validated: 9
EndChar

StartChar: T
Encoding: 84 84 62
Width: 80
Flags: HW
HStem: 10 21G<20 40> 90 10<0 20 40 60>
VStem: 20 20<10 90>
LayerCount: 2
Fore
SplineSet
60 90 m 1
 40 90 l 1
 40 10 l 1
 20 10 l 1
 20 90 l 1
 0 90 l 1
 0 100 l 1
 60 100 l 1
 60 90 l 1
EndSplineSet
Validated: 1
EndChar

StartChar: U
Encoding: 85 85 63
Width: 80
Flags: HW
HStem: 10 10<20 50> 80 20G<0 20 50 70>
VStem: 0 20<20 100> 50 20<20 100>
LayerCount: 2
Fore
SplineSet
70 20 m 1
 60 20 l 1
 60 10 l 1
 10 10 l 1
 10 20 l 1
 0 20 l 1
 0 100 l 1
 20 100 l 1
 20 20 l 1
 50 20 l 1
 50 100 l 1
 70 100 l 1
 70 20 l 1
EndSplineSet
Validated: 1
EndChar

StartChar: V
Encoding: 86 86 64
Width: 80
Flags: HW
HStem: 10 20<20 50> 80 20G<0 20 50 70>
VStem: 0 20<30 100> 50 20<30 100>
LayerCount: 2
Fore
SplineSet
70 30 m 1
 60 30 l 1
 60 20 l 1
 50 20 l 1
 50 10 l 1
 20 10 l 1
 20 20 l 1
 10 20 l 1
 10 30 l 1
 0 30 l 1
 0 100 l 1
 20 100 l 1
 20 30 l 1
 50 30 l 1
 50 100 l 1
 70 100 l 1
 70 30 l 1
EndSplineSet
Validated: 1
EndChar

StartChar: W
Encoding: 87 87 65
Width: 80
Flags: HW
HStem: 10 30<20 30 40 50> 80 20G<0 20 50 70>
VStem: 0 20<40 100> 30 10<40 70> 50 20<40 100>
CounterMasks: 1 38
LayerCount: 2
Fore
SplineSet
70 40 m 1
 60 40 l 1
 60 10 l 1
 40 10 l 1
 40 40 l 1
 30 40 l 1
 30 10 l 1
 10 10 l 1
 10 40 l 1
 0 40 l 1
 0 100 l 1
 20 100 l 1
 20 40 l 1
 30 40 l 1
 30 70 l 1
 40 70 l 1
 40 40 l 1
 50 40 l 1
 50 100 l 1
 70 100 l 1
 70 40 l 1
EndSplineSet
Validated: 5
EndChar

StartChar: X
Encoding: 88 88 66
Width: 80
Flags: HW
HStem: 10 30<0 10 60 70> 40 30<20 50> 80 20<0 10>
VStem: 0 20<10 40 80 100> 10 10<70 80> 20 30<50 70> 50 20<10 40>
LayerCount: 2
Fore
SplineSet
60 70 m 1x64
 60 80 l 1
 70 80 l 1
 70 100 l 1
 50 100 l 9x62
 50 70 l 25
 60 70 l 1x64
60 50 m 1
 60 40 l 1
 70 40 l 1
 70 10 l 1
 50 10 l 9xa2
 50 40 l 25
 20 40 l 25x72
 20 10 l 17
 0 10 l 1
 0 40 l 1xb2
 10 40 l 1
 10 50 l 9xa8
 20 50 l 25xa4
 20 70 l 25x68
 50 70 l 25
 50 50 l 25x64
 60 50 l 1
10 70 m 1x68
 10 80 l 1x68
 0 80 l 1
 0 100 l 1
 20 100 l 1x70
 20 70 l 1
 10 70 l 1x68
EndSplineSet
Validated: 5
EndChar

StartChar: Y
Encoding: 89 89 67
Width: 80
Flags: HW
HStem: 10 21G<20 40> 80 20G<0 20 40 60>
VStem: 0 20<60 100> 20 20<10 50> 40 20<60 100>
LayerCount: 2
Fore
SplineSet
60 60 m 1xe8
 50 60 l 1
 50 50 l 1
 40 50 l 1
 40 10 l 1
 20 10 l 1
 20 50 l 1xd0
 10 50 l 1
 10 60 l 1
 0 60 l 1
 0 100 l 1
 20 100 l 1
 20 60 l 1
 40 60 l 1
 40 100 l 1
 60 100 l 1
 60 60 l 1xe8
EndSplineSet
Validated: 1
EndChar

StartChar: Z
Encoding: 90 90 68
Width: 80
Flags: HW
LayerCount: 2
Fore
SplineSet
0 10 m 1
 70 10 l 1
 70 20 l 1
 30 20 l 1
 30 40 l 1
 40 40 l 1
 40 50 l 1
 50 50 l 1
 50 60 l 1
 60 60 l 1
 60 70 l 1
 70 70 l 1
 70 100 l 1
 0 100 l 1
 0 90 l 1
 50 90 l 1
 50 70 l 1
 40 70 l 1
 40 60 l 1
 30 60 l 1
 30 50 l 1
 20 50 l 1
 20 40 l 9
 10 40 l 1
 10 30 l 1
 0 30 l 1
 0 10 l 1
EndSplineSet
Validated: 9
EndChar

StartChar: backslash
Encoding: 92 92 69
Width: 80
Flags: W
HStem: -10 20<60 70> 90 20<0 10>
VStem: 0 20<90 110> 10 20<70 90> 20 20<50 70> 30 20<30 50> 40 20<10 30> 50 20<-10 10>
LayerCount: 2
Fore
SplineSet
30 90 m 1xd0
 30 70 l 1xd0
 40 70 l 1
 40 50 l 1xc8
 50 50 l 1
 50 30 l 1xc4
 60 30 l 1
 60 10 l 1xc2
 70 10 l 1
 70 -10 l 1
 50 -10 l 1
 50 10 l 1xc1
 40 10 l 1
 40 30 l 1xc2
 30 30 l 1
 30 50 l 1xc4
 20 50 l 1
 20 70 l 1xc8
 10 70 l 9
 10 90 l 25xd0
 0 90 l 1
 0 110 l 25
 20 110 l 25
 20 90 l 1xe0
 30 90 l 1xd0
EndSplineSet
Validated: 1
EndChar

StartChar: asciicircum
Encoding: 94 94 70
Width: 80
Flags: W
HStem: 80 20<20 30 50 60> 80 10<10 20 60 70> 90 20<30 50>
VStem: 10 20<80 90> 30 20<100 110> 50 20<80 90>
LayerCount: 2
Fore
SplineSet
70 80 m 1x44
 50 80 l 1x84
 50 90 l 1
 30 90 l 1x34
 30 80 l 1x94
 10 80 l 1
 10 90 l 1
 20 90 l 1x54
 20 100 l 1
 30 100 l 1x88
 30 110 l 1
 50 110 l 1x28
 50 100 l 1
 60 100 l 1x88
 60 90 l 1
 70 90 l 1
 70 80 l 1x44
EndSplineSet
Validated: 1
EndChar

StartChar: grave
Encoding: 96 96 71
Width: 80
Flags: W
HStem: 80 10<50 60> 90 20<30 40> 100 10<20 30>
VStem: 30 20<90 100> 40 20<80 90>
LayerCount: 2
Fore
SplineSet
60 80 m 1xa8
 40 80 l 1xa8
 40 90 l 1x48
 30 90 l 1x50
 30 100 l 1
 20 100 l 1
 20 110 l 1
 50 110 l 1
 50 90 l 1xb0
 60 90 l 1
 60 80 l 1xa8
EndSplineSet
Validated: 1
EndChar

StartChar: a
Encoding: 97 97 72
Width: 80
Flags: HW
HStem: 10 10<20 50> 20 20<0 10> 40 10<20 50> 70 10<10 50>
VStem: 0 20<20 40> 50 20<20 40 50 70>
LayerCount: 2
Fore
SplineSet
70 10 m 1xbc
 10 10 l 1xbc
 10 20 l 1
 0 20 l 1
 0 40 l 1
 10 40 l 1x5c
 10 50 l 1
 50 50 l 1
 50 70 l 1
 10 70 l 1
 10 80 l 1
 60 80 l 1
 60 70 l 1
 70 70 l 1
 70 10 l 1xbc
50 20 m 1
 50 40 l 1
 20 40 l 1
 20 20 l 1
 50 20 l 1
EndSplineSet
Validated: 1
EndChar

StartChar: b
Encoding: 98 98 73
Width: 80
Flags: HW
HStem: 10 10<20 50> 70 10<20 50> 80 20G<0 20>
VStem: 0 20<20 70 80 100> 50 20<20 70>
LayerCount: 2
Fore
SplineSet
70 20 m 1xd8
 60 20 l 1
 60 10 l 1
 0 10 l 1
 0 100 l 1
 20 100 l 1xb8
 20 80 l 1xd8
 60 80 l 1xb8
 60 70 l 1
 70 70 l 1
 70 20 l 1xd8
50 20 m 1
 50 70 l 1
 20 70 l 1xd8
 20 20 l 1
 50 20 l 1
EndSplineSet
Validated: 1
EndChar

StartChar: c
Encoding: 99 99 74
Width: 80
Flags: HW
HStem: 10 10<20 50> 20 10<60 70> 60 10<60 70> 70 10<20 50>
VStem: 0 20<20 70> 50 20<20 30 60 70>
LayerCount: 2
Fore
SplineSet
70 20 m 1x4c
 60 20 l 1x4c
 60 10 l 1
 10 10 l 1x8c
 10 20 l 1
 0 20 l 1
 0 70 l 1
 10 70 l 1
 10 80 l 1
 60 80 l 1x5c
 60 70 l 1
 70 70 l 1
 70 60 l 1
 50 60 l 1x2c
 50 70 l 1
 20 70 l 1
 20 20 l 1
 50 20 l 1x9c
 50 30 l 1
 70 30 l 1
 70 20 l 1x4c
EndSplineSet
Validated: 1
EndChar

StartChar: d
Encoding: 100 100 75
Width: 80
Flags: HW
HStem: 10 10<20 50> 70 10<20 50> 80 20G<50 70>
VStem: 0 20<20 70> 50 20<20 70 80 100>
LayerCount: 2
Fore
SplineSet
70 10 m 1xb8
 10 10 l 1
 10 20 l 1
 0 20 l 1
 0 70 l 1
 10 70 l 1xd8
 10 80 l 1xb8
 50 80 l 1xd8
 50 100 l 1
 70 100 l 1
 70 10 l 1xb8
50 20 m 1
 50 70 l 1
 20 70 l 1
 20 20 l 1
 50 20 l 1
EndSplineSet
Validated: 1
EndChar

StartChar: e
Encoding: 101 101 76
Width: 80
Flags: HW
HStem: 10 10<20 60> 40 10<20 50> 70 10<20 50>
VStem: 0 20<20 40 50 70> 50 20<50 70>
CounterMasks: 1 e0
LayerCount: 2
Fore
SplineSet
70 40 m 1
 20 40 l 1
 20 20 l 1
 60 20 l 1
 60 10 l 1
 10 10 l 1
 10 20 l 1
 0 20 l 1
 0 70 l 1
 10 70 l 1
 10 80 l 1
 60 80 l 1
 60 70 l 1
 70 70 l 1
 70 40 l 1
50 50 m 1
 50 70 l 1
 20 70 l 1
 20 50 l 1
 50 50 l 1
EndSplineSet
Validated: 1
EndChar

StartChar: f
Encoding: 102 102 77
Width: 80
Flags: HW
HStem: 10 21G<10 30> 50 10<0 10 30 70> 90 10<30 70>
VStem: 10 20<10 50 60 90>
LayerCount: 2
Fore
SplineSet
70 50 m 1
 30 50 l 1
 30 10 l 1
 10 10 l 1
 10 50 l 1
 0 50 l 1
 0 60 l 1
 10 60 l 1
 10 90 l 1
 20 90 l 1
 20 100 l 1
 70 100 l 1
 70 90 l 1
 30 90 l 1
 30 60 l 1
 70 60 l 1
 70 50 l 1
EndSplineSet
Validated: 1
EndChar

StartChar: g
Encoding: 103 103 78
Width: 80
Flags: HW
HStem: -20 10<0 50> 10 10<20 50> 70 10<20 50>
VStem: 0 20<20 70> 50 20<-10 10 20 70>
LayerCount: 2
Fore
SplineSet
70 -10 m 1
 60 -10 l 1
 60 -20 l 1
 0 -20 l 1
 0 -10 l 1
 50 -10 l 1
 50 10 l 1
 10 10 l 1
 10 20 l 1
 0 20 l 1
 0 70 l 1
 10 70 l 1
 10 80 l 1
 70 80 l 1
 70 -10 l 1
50 20 m 1
 50 70 l 1
 20 70 l 1
 20 20 l 1
 50 20 l 1
EndSplineSet
Validated: 1
EndChar

StartChar: h
Encoding: 104 104 79
Width: 80
Flags: HW
HStem: 10 21G<0 20 50 70> 70 10<20 50> 80 20G<0 20>
VStem: 0 20<10 70 80 100> 50 20<10 70>
LayerCount: 2
Fore
SplineSet
70 10 m 1xd8
 50 10 l 1
 50 70 l 1
 20 70 l 1xd8
 20 10 l 1
 0 10 l 1
 0 100 l 1
 20 100 l 1xb8
 20 80 l 1xd8
 60 80 l 1xb8
 60 70 l 1
 70 70 l 1
 70 10 l 1xd8
EndSplineSet
Validated: 1
EndChar

StartChar: i
Encoding: 105 105 80
Width: 80
Flags: HW
HStem: 10 10<0 30 50 70> 70 10<10 30> 90 20<30 50>
VStem: 30 20<20 70 90 110>
LayerCount: 2
Fore
SplineSet
50 90 m 1
 30 90 l 1
 30 110 l 1
 50 110 l 1
 50 90 l 1
70 10 m 1
 0 10 l 1
 0 20 l 1
 30 20 l 1
 30 70 l 1
 10 70 l 1
 10 80 l 1
 50 80 l 1
 50 20 l 1
 70 20 l 1
 70 10 l 1
EndSplineSet
Validated: 1
EndChar

StartChar: j
Encoding: 106 106 81
Width: 80
Flags: HW
HStem: -20 10<0 40> 70 10<10 40> 90 20<40 60>
VStem: 40 20<-10 70 90 110>
LayerCount: 2
Fore
SplineSet
60 90 m 1
 40 90 l 1
 40 110 l 1
 60 110 l 1
 60 90 l 1
60 -10 m 1
 50 -10 l 1
 50 -20 l 1
 0 -20 l 1
 0 -10 l 1
 40 -10 l 1
 40 70 l 1
 10 70 l 1
 10 80 l 1
 60 80 l 1
 60 -10 l 1
EndSplineSet
Validated: 1
EndChar

StartChar: k
Encoding: 107 107 82
Width: 80
Flags: HW
HStem: 10 20<60 70> 40 10<20 40> 60 20<60 70> 80 20G<0 20>
VStem: 0 20<10 40 50 100> 40 20<30 40 50 60> 50 20<10 30 60 80>
LayerCount: 2
Fore
SplineSet
70 10 m 1xea
 50 10 l 1
 50 30 l 1xea
 40 30 l 1
 40 40 l 1
 20 40 l 1
 20 10 l 1
 0 10 l 1
 0 100 l 1
 20 100 l 1xdc
 20 50 l 1
 40 50 l 1
 40 60 l 1xec
 50 60 l 1xea
 50 80 l 1xda
 70 80 l 1
 70 60 l 1xea
 60 60 l 1
 60 50 l 1xec
 50 50 l 1
 50 40 l 1xea
 60 40 l 1
 60 30 l 1xec
 70 30 l 1
 70 10 l 1xea
EndSplineSet
Validated: 1
EndChar

StartChar: l
Encoding: 108 108 83
Width: 80
Flags: HW
HStem: 10 10<0 30 50 70> 90 10<0 30>
VStem: 30 20<20 90>
LayerCount: 2
Fore
SplineSet
70 10 m 1
 0 10 l 1
 0 20 l 1
 30 20 l 1
 30 90 l 1
 0 90 l 1
 0 100 l 1
 50 100 l 1
 50 20 l 1
 70 20 l 1
 70 10 l 1
EndSplineSet
Validated: 1
EndChar

StartChar: m
Encoding: 109 109 84
Width: 80
Flags: HW
HStem: 10 21G<0 20 50 70> 70 10<20 30 40 50>
VStem: 0 20<10 70> 30 10<20 70> 50 20<10 70>
CounterMasks: 1 38
LayerCount: 2
Fore
SplineSet
70 10 m 1
 50 10 l 1
 50 70 l 1
 40 70 l 1
 40 20 l 1
 30 20 l 1
 30 70 l 1
 20 70 l 1
 20 10 l 1
 0 10 l 1
 0 80 l 1
 50 80 l 1
 50 70 l 1
 70 70 l 1
 70 10 l 1
EndSplineSet
Validated: 5
EndChar

StartChar: n
Encoding: 110 110 85
Width: 80
Flags: HW
HStem: 10 21G<0 20 50 70> 70 10<20 50>
VStem: 0 20<10 70> 50 20<10 70>
LayerCount: 2
Fore
SplineSet
70 10 m 1
 50 10 l 1
 50 70 l 1
 20 70 l 1
 20 10 l 1
 0 10 l 1
 0 80 l 1
 60 80 l 1
 60 70 l 1
 70 70 l 1
 70 10 l 1
EndSplineSet
Validated: 1
EndChar

StartChar: o
Encoding: 111 111 86
Width: 80
Flags: HW
HStem: 10 10<20 50> 70 10<20 50>
VStem: 0 20<20 70> 50 20<20 70>
LayerCount: 2
Fore
SplineSet
70 20 m 1
 60 20 l 1
 60 10 l 1
 10 10 l 1
 10 20 l 1
 0 20 l 1
 0 70 l 1
 10 70 l 1
 10 80 l 1
 60 80 l 1
 60 70 l 1
 70 70 l 1
 70 20 l 1
50 20 m 1
 50 70 l 1
 20 70 l 1
 20 20 l 1
 50 20 l 1
EndSplineSet
Validated: 1
EndChar

StartChar: p
Encoding: 112 112 87
Width: 80
Flags: HW
HStem: -20 21G<0 20> 10 10<20 50> 70 10<20 50>
VStem: 0 20<-20 10 20 70> 50 20<20 70>
LayerCount: 2
Fore
SplineSet
70 20 m 1
 60 20 l 1
 60 10 l 1
 20 10 l 1
 20 -20 l 1
 0 -20 l 1
 0 80 l 1
 60 80 l 1
 60 70 l 1
 70 70 l 1
 70 20 l 1
50 20 m 1
 50 70 l 1
 20 70 l 1
 20 20 l 1
 50 20 l 1
EndSplineSet
Validated: 1
EndChar

StartChar: q
Encoding: 113 113 88
Width: 80
Flags: HW
HStem: -20 21G<50 70> 10 10<20 50> 70 10<20 50>
VStem: 0 20<20 70> 50 20<-20 10 20 70>
LayerCount: 2
Fore
SplineSet
70 -20 m 1
 50 -20 l 1
 50 10 l 1
 10 10 l 1
 10 20 l 1
 0 20 l 1
 0 70 l 1
 10 70 l 1
 10 80 l 1
 70 80 l 1
 70 -20 l 1
50 20 m 1
 50 70 l 1
 20 70 l 1
 20 20 l 1
 50 20 l 1
EndSplineSet
Validated: 1
EndChar

StartChar: r
Encoding: 114 114 89
Width: 80
Flags: HW
HStem: 10 21G<0 20> 50 10<20 30> 60 20<40 70> 60 10<30 40>
VStem: 0 20<10 50 60 80>
LayerCount: 2
Fore
SplineSet
70 60 m 1xa8
 30 60 l 1
 30 50 l 1
 20 50 l 1xc8
 20 10 l 1
 0 10 l 1
 0 80 l 1
 20 80 l 1xa8
 20 60 l 1
 30 60 l 1xc8
 30 70 l 1
 40 70 l 1x98
 40 80 l 1
 70 80 l 1
 70 60 l 1xa8
EndSplineSet
Validated: 5
EndChar

StartChar: s
Encoding: 115 115 90
Width: 80
Flags: HW
HStem: 10 10<0 50> 20 20<60 70> 40 10<20 50> 50 20<0 10> 70 10<20 70>
VStem: 0 20<50 70> 50 20<20 40>
LayerCount: 2
Fore
SplineSet
70 20 m 1x56
 60 20 l 1x56
 60 10 l 1
 0 10 l 1
 0 20 l 1
 50 20 l 1
 50 40 l 1
 10 40 l 1xa6
 10 50 l 1
 0 50 l 1
 0 70 l 1
 10 70 l 1x16
 10 80 l 1
 70 80 l 1
 70 70 l 1
 20 70 l 1
 20 50 l 1x2e
 60 50 l 1
 60 40 l 1
 70 40 l 1
 70 20 l 1x56
EndSplineSet
Validated: 1
EndChar

StartChar: t
Encoding: 116 116 91
Width: 80
Flags: HW
HStem: 10 10<30 70> 70 10<0 10 30 70> 80 20G<10 30>
VStem: 10 20<20 70 80 100>
LayerCount: 2
Fore
SplineSet
70 10 m 1xd0
 20 10 l 1
 20 20 l 1
 10 20 l 1
 10 70 l 1
 0 70 l 1
 0 80 l 1
 10 80 l 1xd0
 10 100 l 1
 30 100 l 1xb0
 30 80 l 1
 70 80 l 1
 70 70 l 1
 30 70 l 1
 30 20 l 1
 70 20 l 1
 70 10 l 1xd0
EndSplineSet
Validated: 1
EndChar

StartChar: u
Encoding: 117 117 92
Width: 80
Flags: HW
HStem: 10 10<20 50> 60 20G<0 20 50 70>
VStem: 0 20<20 80> 50 20<20 80>
LayerCount: 2
Fore
SplineSet
70 10 m 1
 10 10 l 1
 10 20 l 1
 0 20 l 1
 0 80 l 1
 20 80 l 1
 20 20 l 1
 50 20 l 1
 50 80 l 1
 70 80 l 1
 70 10 l 1
EndSplineSet
Validated: 1
EndChar

StartChar: v
Encoding: 118 118 93
Width: 80
Flags: HW
HStem: 10 20<20 50> 60 20G<0 20 50 70>
VStem: 0 20<30 80> 50 20<30 80>
LayerCount: 2
Fore
SplineSet
70 30 m 1
 60 30 l 1
 60 20 l 1
 50 20 l 1
 50 10 l 1
 20 10 l 1
 20 20 l 1
 10 20 l 1
 10 30 l 1
 0 30 l 1
 0 80 l 1
 20 80 l 1
 20 30 l 1
 50 30 l 1
 50 80 l 1
 70 80 l 1
 70 30 l 1
EndSplineSet
Validated: 1
EndChar

StartChar: w
Encoding: 119 119 94
Width: 80
Flags: HW
HStem: 10 20<20 30 40 50> 60 20G<0 20 50 70>
VStem: 0 20<30 80> 30 10<30 70> 50 20<30 80>
CounterMasks: 1 38
LayerCount: 2
Fore
SplineSet
70 30 m 1
 60 30 l 1
 60 10 l 1
 40 10 l 1
 40 30 l 1
 30 30 l 1
 30 10 l 1
 10 10 l 1
 10 30 l 1
 0 30 l 1
 0 80 l 1
 20 80 l 1
 20 30 l 1
 30 30 l 1
 30 70 l 1
 40 70 l 1
 40 30 l 1
 50 30 l 1
 50 80 l 1
 70 80 l 1
 70 30 l 1
EndSplineSet
Validated: 5
EndChar

StartChar: x
Encoding: 120 120 95
Width: 80
Flags: HW
HStem: 10 30<10 20 50 60> 10 20<0 10 60 70> 50 30<10 20 50 60> 60 20<0 10 60 70>
VStem: 0 20<10 30 60 80> 50 20<10 30 60 80>
LayerCount: 2
Fore
SplineSet
70 10 m 1x4c
 50 10 l 1x8c
 50 30 l 1
 20 30 l 1x4c
 20 10 l 1x8c
 0 10 l 1
 0 30 l 1
 10 30 l 1x4c
 10 40 l 1
 20 40 l 1
 20 50 l 1
 10 50 l 1xac
 10 60 l 1
 0 60 l 1
 0 80 l 1x1c
 20 80 l 1x2c
 20 60 l 1
 50 60 l 1x1c
 50 80 l 1x2c
 70 80 l 1
 70 60 l 1
 60 60 l 1x1c
 60 50 l 1
 50 50 l 1
 50 40 l 1
 60 40 l 1xac
 60 30 l 1
 70 30 l 1
 70 10 l 1x4c
EndSplineSet
Validated: 1
EndChar

StartChar: y
Encoding: 121 121 96
Width: 80
Flags: HW
HStem: -20 20<30 40> -20 10<0 30> 10 10<20 40> 60 20G<0 20 50 70>
VStem: 0 20<20 80> 30 20<-10 0> 40 20<0 10> 50 20<20 80>
LayerCount: 2
Fore
SplineSet
70 20 m 1xb9
 60 20 l 1
 60 0 l 1xba
 50 0 l 1xbc
 50 -10 l 1x7c
 40 -10 l 1x7a
 40 -20 l 1xba
 0 -20 l 1
 0 -10 l 1
 30 -10 l 1x7c
 30 0 l 1xbc
 40 0 l 1
 40 10 l 1xba
 10 10 l 1
 10 20 l 1
 0 20 l 1
 0 80 l 1
 20 80 l 1
 20 20 l 1
 50 20 l 1
 50 80 l 1
 70 80 l 1
 70 20 l 1xb9
EndSplineSet
Validated: 1
EndChar

StartChar: z
Encoding: 122 122 97
Width: 80
Flags: HW
HStem: 10 20<0 10> 10 10<30 70> 60 20<60 70> 70 10<0 40>
LayerCount: 2
Fore
SplineSet
70 10 m 1x40
 0 10 l 1
 0 30 l 1
 10 30 l 1
 10 40 l 1
 20 40 l 1
 20 50 l 1
 30 50 l 1
 30 60 l 1
 40 60 l 1xa0
 40 70 l 1
 0 70 l 1
 0 80 l 1x10
 70 80 l 1
 70 60 l 1
 60 60 l 1
 60 50 l 1
 50 50 l 1
 50 40 l 1
 40 40 l 1
 40 30 l 1
 30 30 l 1xa0
 30 20 l 1
 70 20 l 1
 70 10 l 1x40
EndSplineSet
Validated: 1
EndChar

StartChar: asciitilde
Encoding: 126 126 98
Width: 80
Flags: HW
HStem: 70 20<0 10 40 50 60 70> 70 10<50 60> 80 20<10 20 30 40 70 80> 90 10<20 30>
VStem: 0 20<80 90> 0 10<70 80> 30 20<80 90> 60 20<80 90> 70 10<90 100>
LayerCount: 2
Fore
SplineSet
80 80 m 1x23
 70 80 l 1x2280
 70 70 l 1
 40 70 l 1x8280
 40 80 l 1
 30 80 l 1x2280
 30 90 l 1
 20 90 l 1x1a80
 20 80 l 1x2a80
 10 80 l 1x26
 10 70 l 1
 0 70 l 1x86
 0 90 l 1x8a
 10 90 l 1x86
 10 100 l 1
 40 100 l 1x26
 40 90 l 1
 50 90 l 1x86
 50 80 l 1
 60 80 l 1x47
 60 90 l 1x87
 70 90 l 1x8280
 70 100 l 1
 80 100 l 1x2280
 80 80 l 1x23
EndSplineSet
Validated: 1
EndChar

StartChar: exclamdown
Encoding: 161 161 99
Width: 80
Flags: HW
HStem: -20 21G<30 50> -10 30<20 30 50 60> 50 20<30 50>
VStem: 20 40<-10 20> 30 20<-20 -10 20 40 50 70>
LayerCount: 2
Fore
SplineSet
60 -10 m 1x70
 50 -10 l 1x68
 50 -20 l 1
 30 -20 l 1xa8
 30 -10 l 1x68
 20 -10 l 1
 20 20 l 1x70
 30 20 l 1
 30 40 l 1
 50 40 l 1
 50 20 l 1x68
 60 20 l 1
 60 -10 l 1x70
50 50 m 1
 30 50 l 1
 30 70 l 1
 50 70 l 1
 50 50 l 1
EndSplineSet
Validated: 1
EndChar

StartChar: cent
Encoding: 162 162 100
Width: 80
Flags: HW
HStem: 0 30<30 50> 20 20<50 60> 30 10<60 70> 60 20<50 60> 60 10<60 70> 70 30<30 50>
VStem: 10 20<30 70> 30 20<0 20 80 100> 50 20<30 40 60 70>
LayerCount: 2
Fore
SplineSet
70 30 m 1x2280
 60 30 l 1x2280
 60 20 l 1
 50 20 l 1x41
 50 0 l 1
 30 0 l 1x81
 30 20 l 1
 20 20 l 1x41
 20 30 l 1
 10 30 l 1
 10 70 l 1
 20 70 l 1x26
 20 80 l 1
 30 80 l 1x11
 30 100 l 1
 50 100 l 1x05
 50 80 l 1
 60 80 l 1x11
 60 70 l 1
 70 70 l 1
 70 60 l 1x0880
 50 60 l 1x1080
 50 70 l 1
 30 70 l 1
 30 30 l 1
 50 30 l 1x8680
 50 40 l 1x4280
 70 40 l 1
 70 30 l 1x2280
EndSplineSet
Validated: 1
EndChar

StartChar: sterling
Encoding: 163 163 101
Width: 80
Flags: HW
HStem: 10 20<10 20> 10 10<30 70> 50 10<10 20 40 60> 80 10<60 70> 90 10<40 50>
VStem: 10 20<20 30> 20 20<30 50 60 90> 50 20<80 90>
LayerCount: 2
Fore
SplineSet
70 10 m 1x65
 10 10 l 1
 10 30 l 1xa5
 20 30 l 1
 20 50 l 1xa3
 10 50 l 1
 10 60 l 1xa5
 20 60 l 1
 20 90 l 1xab
 30 90 l 1
 30 100 l 1
 60 100 l 1xad
 60 90 l 1
 70 90 l 1
 70 80 l 1
 50 80 l 1x35
 50 90 l 1
 40 90 l 1
 40 60 l 1
 60 60 l 1
 60 50 l 1
 40 50 l 1
 40 30 l 1xab
 30 30 l 1xad
 30 20 l 1
 70 20 l 1
 70 10 l 1x65
EndSplineSet
Validated: 1
EndChar

StartChar: currency
Encoding: 164 164 102
Width: 80
Flags: HW
HStem: 30 10<10 20 60 70> 50 20<10 20 60 70> 80 10<10 20 60 70>
VStem: 10 20<30 40 50 70 80 90> 50 20<30 40 50 70 80 90>
CounterMasks: 1 e0
LayerCount: 2
Fore
SplineSet
70 30 m 1
 50 30 l 1
 50 40 l 1
 30 40 l 1
 30 30 l 1
 10 30 l 1
 10 40 l 1
 20 40 l 1
 20 50 l 1
 10 50 l 1
 10 70 l 1
 20 70 l 1
 20 80 l 1
 10 80 l 1
 10 90 l 1
 30 90 l 1
 30 80 l 1
 50 80 l 1
 50 90 l 1
 70 90 l 1
 70 80 l 1
 60 80 l 1
 60 70 l 1
 70 70 l 1
 70 50 l 1
 60 50 l 1
 60 40 l 1
 70 40 l 1
 70 30 l 1
50 50 m 1
 50 70 l 1
 30 70 l 1
 30 50 l 1
 50 50 l 1
EndSplineSet
Validated: 1
EndChar

StartChar: yen
Encoding: 165 165 103
Width: 80
Flags: HW
HStem: 10 21G<30 50> 30 10<10 30 50 70> 50 10<10 20 60 70> 70 30<10 20 60 70>
VStem: 10 20<70 100> 30 20<10 30 40 50> 50 20<70 100>
LayerCount: 2
Fore
SplineSet
70 30 m 1x72
 50 30 l 1x74
 50 10 l 1
 30 10 l 1xb4
 30 30 l 1x74
 10 30 l 1
 10 40 l 1x78
 30 40 l 1
 30 50 l 1x74
 10 50 l 1
 10 60 l 1
 20 60 l 1
 20 70 l 1
 10 70 l 1
 10 100 l 1
 30 100 l 1
 30 70 l 1
 50 70 l 1
 50 100 l 1
 70 100 l 1
 70 70 l 1
 60 70 l 1
 60 60 l 1
 70 60 l 1
 70 50 l 1x7a
 50 50 l 1
 50 40 l 1x74
 70 40 l 1
 70 30 l 1x72
EndSplineSet
Validated: 1
EndChar

StartChar: brokenbar
Encoding: 166 166 104
Width: 80
Flags: HW
HStem: -20 21G<30 50> 80 20G<30 50>
VStem: 30 20<-20 30 50 100>
LayerCount: 2
Fore
SplineSet
50 50 m 1
 30 50 l 1
 30 100 l 1
 50 100 l 1
 50 50 l 1
50 -20 m 1
 30 -20 l 1
 30 30 l 1
 50 30 l 1
 50 -20 l 1
EndSplineSet
Validated: 1
EndChar

StartChar: section
Encoding: 167 167 105
Width: 80
Flags: HW
HStem: -20 10<30 50> -10 20<60 70> -10 10<10 20> 10 20<30 50> 30 20<10 20 60 70> 50 20<30 50> 70 20<10 20> 80 10<60 70> 90 10<30 50>
VStem: 10 20<-10 0 30 50 70 90> 20 40<-20 -10 20 30 50 60 90 100> 50 20<-10 10 30 50 80 90>
LayerCount: 2
Fore
SplineSet
70 -10 m 1x4810
 60 -10 l 1x4820
 60 -20 l 1
 20 -20 l 1x8020
 20 -10 l 1x2020
 10 -10 l 1
 10 0 l 1
 30 0 l 1x2040
 30 -10 l 1
 50 -10 l 1
 50 10 l 1
 30 10 l 1
 30 20 l 1x9050
 20 20 l 1
 20 30 l 1x0820
 10 30 l 1
 10 50 l 1x0840
 20 50 l 1
 20 70 l 1x0a20
 10 70 l 1
 10 90 l 1x0a40
 20 90 l 1x0a20
 20 100 l 1
 60 100 l 1x00a0
 60 90 l 1x0120
 70 90 l 1
 70 80 l 1
 50 80 l 1x0110
 50 90 l 1
 30 90 l 1
 30 70 l 1
 50 70 l 1
 50 60 l 1x04d0
 60 60 l 1
 60 50 l 1x0820
 70 50 l 1
 70 30 l 1x0810
 60 30 l 1
 60 10 l 1x4820
 70 10 l 1
 70 -10 l 1x4810
50 30 m 1x1450
 50 50 l 1
 30 50 l 1
 30 30 l 1
 50 30 l 1x1450
EndSplineSet
Validated: 1
EndChar

StartChar: dieresis
Encoding: 168 168 106
Width: 80
Flags: HW
HStem: 90 20<10 30 50 70>
VStem: 10 20<90 110> 50 20<90 110>
LayerCount: 2
Fore
SplineSet
70 90 m 1
 50 90 l 1
 50 110 l 1
 70 110 l 1
 70 90 l 1
30 90 m 1
 10 90 l 1
 10 110 l 1
 30 110 l 1
 30 90 l 1
EndSplineSet
Validated: 1
EndChar

StartChar: ordfeminine
Encoding: 170 170 107
Width: 80
Flags: HW
HStem: 30 10<10 70> 50 10<30 50> 60 10<10 20> 70 10<30 50> 90 10<20 50>
VStem: 10 20<60 70> 50 20<60 70 80 90>
LayerCount: 2
Fore
SplineSet
70 50 m 1xde
 20 50 l 1xde
 20 60 l 1
 10 60 l 1
 10 70 l 1
 20 70 l 1xae
 20 80 l 1
 50 80 l 1
 50 90 l 1
 20 90 l 1
 20 100 l 1
 60 100 l 1
 60 90 l 1
 70 90 l 1
 70 50 l 1xde
70 30 m 1
 10 30 l 1
 10 40 l 1
 70 40 l 1
 70 30 l 1
50 60 m 1
 50 70 l 1
 30 70 l 1
 30 60 l 1
 50 60 l 1
EndSplineSet
Validated: 1
EndChar

StartChar: guillemotleft
Encoding: 171 171 108
Width: 80
Flags: HW
HStem: 10 20<20 30 60 70> 10 10<30 40 70 80> 20 30<10 20 50 60> 30 10<0 10 40 50> 40 20<20 30 60 70> 50 10<30 40 70 80>
VStem: 0 20<30 40> 10 20<20 30 40 50> 20 20<10 20 50 60> 40 20<30 40> 50 20<20 30 40 50> 60 20<10 20 50 60>
LayerCount: 2
Fore
SplineSet
80 10 m 1x4010
 60 10 l 1x8010
 60 20 l 1x2010
 50 20 l 1x2020
 50 30 l 1x1020
 40 30 l 1
 40 40 l 1x1040
 50 40 l 1x1020
 50 50 l 1x2020
 60 50 l 1x2010
 60 60 l 1x0810
 80 60 l 1
 80 50 l 1x0410
 70 50 l 1x0420
 70 40 l 1x0820
 60 40 l 1
 60 30 l 1x8840
 70 30 l 1x8820
 70 20 l 1x4020
 80 20 l 1
 80 10 l 1x4010
40 10 m 1x4080
 20 10 l 1x8080
 20 20 l 1x2080
 10 20 l 1x21
 10 30 l 1x11
 0 30 l 1
 0 40 l 1x12
 10 40 l 1x11
 10 50 l 1x21
 20 50 l 1x2080
 20 60 l 1x0880
 40 60 l 1
 40 50 l 1x0480
 30 50 l 1x05
 30 40 l 1x09
 20 40 l 1
 20 30 l 1x8a
 30 30 l 1x89
 30 20 l 1x41
 40 20 l 1
 40 10 l 1x4080
EndSplineSet
Validated: 1
EndChar

StartChar: uni00AD
Encoding: 173 173 109
Width: 80
Flags: HW
HStem: 60 10<10 70>
LayerCount: 2
Fore
SplineSet
70 60 m 1
 10 60 l 1
 10 70 l 1
 70 70 l 1
 70 60 l 1
EndSplineSet
Validated: 1
EndChar

StartChar: macron
Encoding: 175 175 110
Width: 80
Flags: HW
HStem: 120 10<0 80>
LayerCount: 2
Fore
SplineSet
80 120 m 1
 0 120 l 1
 0 130 l 1
 80 130 l 1
 80 120 l 1
EndSplineSet
Validated: 1
EndChar

StartChar: uni00B2
Encoding: 178 178 111
Width: 80
Flags: HW
HStem: 50 20<20 30> 50 10<40 60> 80 10<50 60> 90 10<20 40>
VStem: 20 20<60 70> 30 20<70 80> 40 20<80 90>
LayerCount: 2
Fore
SplineSet
60 50 m 1x42
 20 50 l 1
 20 70 l 1x88
 30 70 l 1
 30 80 l 1xa4
 40 80 l 1xa2
 40 90 l 1x12
 20 90 l 1
 20 100 l 1x18
 50 100 l 1x14
 50 90 l 1x24
 60 90 l 1
 60 80 l 1x22
 50 80 l 1
 50 70 l 1xa4
 40 70 l 1xa8
 40 60 l 1x48
 60 60 l 1
 60 50 l 1x42
EndSplineSet
Validated: 1
EndChar

StartChar: uni00B3
Encoding: 179 179 112
Width: 80
Flags: HW
HStem: 50 10<20 40> 60 10<50 60> 70 10<30 40> 80 10<50 60> 90 10<20 40>
VStem: 20 30<50 60 90 100> 30 20<70 80> 40 20<60 70 80 90>
LayerCount: 2
Fore
SplineSet
60 60 m 1x51
 50 60 l 1x54
 50 50 l 1
 20 50 l 1
 20 60 l 1x84
 40 60 l 1
 40 70 l 1xa1
 30 70 l 1
 30 80 l 1xa2
 40 80 l 1
 40 90 l 1xa9
 20 90 l 1
 20 100 l 1
 50 100 l 1xac
 50 90 l 1x14
 60 90 l 1
 60 80 l 1x11
 50 80 l 1
 50 70 l 1x52
 60 70 l 1
 60 60 l 1x51
EndSplineSet
Validated: 1
EndChar

StartChar: acute
Encoding: 180 180 113
Width: 80
Flags: HW
HStem: 90 10<20 30> 100 20<40 50> 110 10<50 60>
VStem: 20 20<90 100> 30 20<100 110>
LayerCount: 2
Fore
SplineSet
60 110 m 1xa8
 50 110 l 1xa8
 50 100 l 1x48
 40 100 l 1x50
 40 90 l 1
 20 90 l 1
 20 100 l 1x90
 30 100 l 1
 30 120 l 1
 60 120 l 1
 60 110 l 1xa8
EndSplineSet
Validated: 1
EndChar

StartChar: mu
Encoding: 181 181 114
Width: 80
Flags: HW
HStem: -20 10<0 10> 10 10<30 50 70 80> 60 20G<10 30 50 70>
VStem: 0 20<-20 -10> 10 20<-10 10 20 80> 50 20<20 80> 60 20<10 20>
LayerCount: 2
Fore
SplineSet
50 10 m 1xec
 30 10 l 1
 30 -10 l 1xec
 20 -10 l 1
 20 -20 l 1
 0 -20 l 1
 0 -10 l 1xf0
 10 -10 l 1
 10 80 l 1
 30 80 l 1
 30 20 l 1
 50 20 l 1
 50 10 l 1xec
80 10 m 1xe2
 60 10 l 1
 60 20 l 1xe2
 50 20 l 1
 50 80 l 1
 70 80 l 1
 70 20 l 1xe4
 80 20 l 1
 80 10 l 1xe2
EndSplineSet
Validated: 5
EndChar

StartChar: paragraph
Encoding: 182 182 115
Width: 80
Flags: HW
HStem: -20 21G<40 60> 90 10<60 70>
VStem: 40 20<-20 30>
LayerCount: 2
Fore
SplineSet
70 90 m 1
 60 90 l 1
 60 -20 l 1
 40 -20 l 1
 40 30 l 1
 20 30 l 1
 20 40 l 1
 10 40 l 1
 10 50 l 1
 0 50 l 1
 0 80 l 1
 10 80 l 1
 10 90 l 1
 20 90 l 1
 20 100 l 1
 70 100 l 1
 70 90 l 1
EndSplineSet
Validated: 1
EndChar

StartChar: periodcentered
Encoding: 183 183 116
Width: 80
Flags: HW
HStem: 50 20<25 55>
VStem: 25 30<50 70>
LayerCount: 2
Fore
SplineSet
55 50 m 1
 25 50 l 1
 25 70 l 1
 55 70 l 1
 55 50 l 1
EndSplineSet
Validated: 1
EndChar

StartChar: cedilla
Encoding: 184 184 117
Width: 80
Flags: HW
HStem: -20 10<20 40> -10 10<50 60> 0 10<30 40>
VStem: 30 20<0 10> 40 20<-10 0>
LayerCount: 2
Fore
SplineSet
60 -10 m 1x48
 50 -10 l 1x50
 50 -20 l 1x90
 20 -20 l 1
 20 -10 l 1
 40 -10 l 1
 40 0 l 1xa8
 30 0 l 1
 30 10 l 1
 50 10 l 1xb0
 50 0 l 1x50
 60 0 l 1
 60 -10 l 1x48
EndSplineSet
Validated: 1
EndChar

StartChar: uni00B9
Encoding: 185 185 118
Width: 80
Flags: HW
HStem: 80 20G<30 50> 80 10<20 30>
VStem: 30 20<50 80 90 100>
LayerCount: 2
Fore
SplineSet
50 50 m 1xa0
 30 50 l 1
 30 80 l 1xa0
 20 80 l 1
 20 90 l 1
 30 90 l 1x60
 30 100 l 1
 50 100 l 1
 50 50 l 1xa0
EndSplineSet
Validated: 1
EndChar

StartChar: ordmasculine
Encoding: 186 186 119
Width: 80
Flags: HW
HStem: 30 10<10 70> 50 10<30 50> 60 30<10 20 60 70> 90 10<30 50>
VStem: 10 20<60 90> 50 20<60 90>
LayerCount: 2
Fore
SplineSet
70 60 m 1xac
 60 60 l 1xac
 60 50 l 1
 20 50 l 1xcc
 20 60 l 1
 10 60 l 1
 10 90 l 1
 20 90 l 1xac
 20 100 l 1
 60 100 l 1x9c
 60 90 l 1
 70 90 l 1
 70 60 l 1xac
50 60 m 1xdc
 50 90 l 1
 30 90 l 1
 30 60 l 1
 50 60 l 1xdc
70 30 m 1
 10 30 l 1
 10 40 l 1
 70 40 l 1
 70 30 l 1
EndSplineSet
Validated: 1
EndChar

StartChar: guillemotright
Encoding: 187 187 120
Width: 80
Flags: HW
HStem: 10 20<10 20 50 60> 10 10<0 10 40 50> 20 30<20 30 60 70> 30 10<30 40 70 80> 40 20<10 20 50 60> 50 10<0 10 40 50>
VStem: 0 20<10 20 50 60> 10 20<20 30 40 50> 20 20<30 40> 40 20<10 20 50 60> 50 20<20 30 40 50> 60 20<30 40>
LayerCount: 2
Fore
SplineSet
80 30 m 1x1010
 70 30 l 1x1020
 70 20 l 1x2020
 60 20 l 1x2040
 60 10 l 1x8040
 40 10 l 1
 40 20 l 1x4040
 50 20 l 1x4020
 50 30 l 1x8020
 60 30 l 1
 60 40 l 1x8810
 50 40 l 1x8820
 50 50 l 1x0420
 40 50 l 1
 40 60 l 1x0440
 60 60 l 1x0840
 60 50 l 1x2040
 70 50 l 1x2020
 70 40 l 1x1020
 80 40 l 1
 80 30 l 1x1010
40 30 m 1x1080
 30 30 l 1x11
 30 20 l 1x21
 20 20 l 1x22
 20 10 l 1x82
 0 10 l 1
 0 20 l 1x42
 10 20 l 1x41
 10 30 l 1x81
 20 30 l 1
 20 40 l 1x8880
 10 40 l 1x89
 10 50 l 1x05
 0 50 l 1
 0 60 l 1x06
 20 60 l 1x0a
 20 50 l 1x22
 30 50 l 1x21
 30 40 l 1x11
 40 40 l 1
 40 30 l 1x1080
EndSplineSet
Validated: 1
EndChar

StartChar: onequarter
Encoding: 188 188 121
Width: 80
Flags: HW
HStem: 10 10<50 60> 20 20<10 20> 20 10<0 10> 30 20<20 30 50 60> 50 20<40 50> 60 20<50 60> 70 20<60 70> 80 10<70 80> 90 10<0 10>
VStem: 0 20<20 30> 10 20<30 40 60 90 100 110> 20 20<40 50> 30 20<20 30 50 60> 40 20<60 70> 50 20<70 80> 60 20<0 10 20 30 80 90>
LayerCount: 2
Fore
SplineSet
80 0 m 1x0809
 60 0 l 1
 60 10 l 1
 30 10 l 1x8809
 30 30 l 1x9020
 20 30 l 1x9040
 20 20 l 1x4040
 0 20 l 1
 0 30 l 1x2040
 10 30 l 1x2020
 10 40 l 1x4020
 20 40 l 1x4010
 20 50 l 1x1010
 30 50 l 1x1008
 30 60 l 1
 10 60 l 1
 10 90 l 1x14a0
 0 90 l 1
 0 100 l 1x14c0
 10 100 l 1
 10 110 l 1
 30 110 l 1
 30 60 l 1
 40 60 l 1x14a4
 40 70 l 1x0824
 50 70 l 1x0802
 50 80 l 1x0402
 60 80 l 1x0401
 60 90 l 1x0201
 80 90 l 1
 80 80 l 1x0101
 70 80 l 1x0102
 70 70 l 1x0202
 60 70 l 1x0204
 60 60 l 1x0404
 50 60 l 1
 50 50 l 1x1408
 80 50 l 1
 80 0 l 1x0809
40 30 m 1x1024
 40 40 l 1x4010
 30 40 l 1x4020
 30 30 l 1
 40 30 l 1x1024
60 20 m 1x9009
 60 30 l 1
 50 30 l 1
 50 20 l 1
 60 20 l 1x9009
50 40 m 1x4812
 50 50 l 1x1008
 40 50 l 1
 40 40 l 1
 50 40 l 1x4812
EndSplineSet
Validated: 5
EndChar

StartChar: onehalf
Encoding: 189 189 122
Width: 80
Flags: HW
HStem: 0 20<40 50> 0 10<60 80> 20 10<0 10> 30 10<70 80> 40 20<30 40> 40 10<50 60> 60 20<50 60> 70 20<60 70> 80 10<70 80> 90 10<0 10>
VStem: 0 20<20 30> 10 20<30 40 60 90 100 110> 40 20<10 20 60 70> 50 20<20 30 70 80> 60 20<30 40 80 90>
LayerCount: 2
Fore
SplineSet
80 0 m 1x6002
 40 0 l 1
 40 20 l 1x8008
 50 20 l 1
 50 30 l 1x9004
 60 30 l 1x9002
 60 40 l 1x0402
 30 40 l 1x0812
 30 30 l 1x1012
 20 30 l 1x1020
 20 20 l 1
 0 20 l 1
 0 30 l 1x2020
 10 30 l 1
 10 40 l 1x2410
 20 40 l 1
 20 50 l 1x2420
 30 50 l 1x2410
 30 60 l 1x0810
 10 60 l 1
 10 90 l 1x0250
 0 90 l 1
 0 100 l 1x0260
 10 100 l 1x0250
 10 110 l 1
 30 110 l 1
 30 60 l 1
 40 60 l 1
 40 70 l 1x0918
 50 70 l 1x0904
 50 80 l 1x0204
 60 80 l 1x0202
 60 90 l 1x0102
 80 90 l 1
 80 80 l 1x0082
 70 80 l 1x0084
 70 70 l 1x0104
 60 70 l 1x0108
 60 60 l 1x0208
 50 60 l 1
 50 50 l 1
 70 50 l 1x0604
 70 40 l 1x1004
 80 40 l 1
 80 30 l 1x1002
 70 30 l 1x1004
 70 20 l 1x2004
 60 20 l 1
 60 10 l 1x6008
 80 10 l 1
 80 0 l 1x6002
EndSplineSet
Validated: 5
EndChar

StartChar: threequarters
Encoding: 190 190 123
Width: 80
Flags: HW
HStem: 10 10<50 60> 20 20<10 20> 20 10<0 10> 30 20<20 30 50 60> 50 20<40 50> 60 10<0 20> 70 10<30 40> 80 10<10 20 70 80> 100 10<0 20>
VStem: 0 20<20 30> 10 20<30 40 80 90> 20 20<40 50 70 80 90 100> 30 20<20 30 50 60> 40 20<60 70> 50 20<70 80> 60 20<0 10 20 30 80 90>
LayerCount: 2
Fore
SplineSet
80 0 m 1x0889
 60 0 l 1
 60 10 l 1
 30 10 l 1x8889
 30 30 l 1x90a0
 20 30 l 1x90c0
 20 20 l 1x40c0
 0 20 l 1
 0 30 l 1x20c0
 10 30 l 1x20a0
 10 40 l 1x40a0
 20 40 l 1x4090
 20 50 l 1x1090
 30 50 l 1
 30 60 l 1
 0 60 l 1
 0 70 l 1x14c8
 20 70 l 1
 20 80 l 1x1590
 10 80 l 1
 10 90 l 1x15a0
 20 90 l 1
 20 100 l 1x1590
 0 100 l 1
 0 110 l 1
 30 110 l 1
 30 100 l 1x15c8
 40 100 l 1
 40 90 l 1x1590
 30 90 l 1x15a0
 30 80 l 1x02a0
 40 80 l 1x0290
 40 70 l 1
 50 70 l 1
 50 80 l 1x0992
 60 80 l 1
 60 90 l 1
 80 90 l 1
 80 80 l 1x0981
 70 80 l 1x0982
 70 70 l 1x0282
 60 70 l 1x0284
 60 60 l 1x0484
 50 60 l 1
 50 50 l 1x1488
 80 50 l 1
 80 0 l 1x0889
40 30 m 1x10a4
 40 40 l 1x4090
 30 40 l 1x40a0
 30 30 l 1
 40 30 l 1x10a4
60 20 m 1x9089
 60 30 l 1
 50 30 l 1
 50 20 l 1
 60 20 l 1x9089
50 40 m 1x4892
 50 50 l 1x1088
 40 50 l 1
 40 40 l 1
 50 40 l 1x4892
40 60 m 1x0484
 40 70 l 1x0890
 30 70 l 1x0288
 30 60 l 1x0488
 40 60 l 1x0484
EndSplineSet
Validated: 5
EndChar

StartChar: questiondown
Encoding: 191 191 124
Width: 80
Flags: HW
HStem: -20 10<30 50> -10 20<10 20 60 70> 20 20<40 50> 50 20<30 50>
VStem: 10 20<-10 10> 20 20<10 20> 30 20<20 40 50 70> 50 20<-10 10>
LayerCount: 2
Fore
SplineSet
70 -10 m 1x79
 60 -10 l 1x79
 60 -20 l 1
 20 -20 l 1xb5
 20 -10 l 1x75
 10 -10 l 1
 10 10 l 1x78
 20 10 l 1
 20 20 l 1x74
 30 20 l 1
 30 40 l 1
 50 40 l 1
 50 20 l 1x72
 40 20 l 1
 40 10 l 1x74
 30 10 l 1x78
 30 -10 l 1
 50 -10 l 1xb9
 50 10 l 1
 70 10 l 1
 70 -10 l 1x79
50 50 m 1x32
 30 50 l 1
 30 70 l 1
 50 70 l 1
 50 50 l 1x32
EndSplineSet
Validated: 1
EndChar

StartChar: SF100000
Encoding: 9472 9472 125
Width: 80
Flags: W
HStem: 50 10<0 80>
LayerCount: 2
Fore
SplineSet
80 50 m 1
 0 50 l 1
 0 60 l 1
 80 60 l 1
 80 50 l 1
EndSplineSet
Validated: 1
EndChar

StartChar: uni2501
Encoding: 9473 9473 126
Width: 80
Flags: W
HStem: 40 20<0 80>
LayerCount: 2
Fore
SplineSet
80 40 m 1
 0 40 l 1
 0 60 l 1
 80 60 l 1
 80 40 l 1
EndSplineSet
Validated: 1
EndChar

StartChar: SF110000
Encoding: 9474 9474 127
Width: 80
Flags: W
HStem: -30 21G<30 40>
VStem: 30 10<-30 130>
LayerCount: 2
Fore
SplineSet
40 -30 m 1
 30 -30 l 1
 30 130 l 1
 40 130 l 1
 40 -30 l 1
EndSplineSet
Validated: 1
EndChar

StartChar: uni2503
Encoding: 9475 9475 128
Width: 80
Flags: W
HStem: -30 21G<30 50>
VStem: 30 20<-30 130>
LayerCount: 2
Fore
SplineSet
50 -30 m 1
 30 -30 l 1
 30 130 l 1
 50 130 l 1
 50 -30 l 1
EndSplineSet
Validated: 1
EndChar

StartChar: uni2504
Encoding: 9476 9476 129
Width: 80
Flags: W
HStem: 50 10<10 20 30 40 50 60>
VStem: 10 10<50 60> 30 10<50 60> 50 10<50 60>
CounterMasks: 1 70
LayerCount: 2
Fore
SplineSet
60 50 m 1
 50 50 l 1
 50 60 l 1
 60 60 l 1
 60 50 l 1
20 50 m 1
 10 50 l 1
 10 60 l 1
 20 60 l 1
 20 50 l 1
40 50 m 1
 30 50 l 1
 30 60 l 1
 40 60 l 1
 40 50 l 1
EndSplineSet
Validated: 1
EndChar

StartChar: uni2505
Encoding: 9477 9477 130
Width: 80
Flags: W
HStem: 40 20<10 20 30 40 50 60>
VStem: 10 10<40 60> 30 10<40 60> 50 10<40 60>
CounterMasks: 1 70
LayerCount: 2
Fore
SplineSet
60 40 m 1
 50 40 l 1
 50 60 l 1
 60 60 l 1
 60 40 l 1
20 40 m 1
 10 40 l 1
 10 60 l 1
 20 60 l 1
 20 40 l 1
40 40 m 1
 30 40 l 1
 30 60 l 1
 40 60 l 1
 40 40 l 1
EndSplineSet
Validated: 1
EndChar

StartChar: uni2506
Encoding: 9478 9478 131
Width: 80
Flags: W
VStem: 30 10<-20 10 30 60 80 110>
LayerCount: 2
Fore
SplineSet
40 80 m 1
 30 80 l 1
 30 110 l 1
 40 110 l 1
 40 80 l 1
40 -20 m 1
 30 -20 l 1
 30 10 l 1
 40 10 l 1
 40 -20 l 1
40 30 m 1
 30 30 l 1
 30 60 l 1
 40 60 l 1
 40 30 l 1
EndSplineSet
Validated: 1
EndChar

StartChar: uni2507
Encoding: 9479 9479 132
Width: 80
Flags: W
HStem: -20 30<30 50> 30 30<30 50> 80 30<30 50>
VStem: 30 20<-20 10 30 60 80 110>
CounterMasks: 1 e0
LayerCount: 2
Fore
SplineSet
50 80 m 1
 30 80 l 1
 30 110 l 1
 50 110 l 1
 50 80 l 1
50 -20 m 1
 30 -20 l 1
 30 10 l 1
 50 10 l 1
 50 -20 l 1
50 30 m 1
 30 30 l 1
 30 60 l 1
 50 60 l 1
 50 30 l 1
EndSplineSet
Validated: 1
EndChar

StartChar: uni2508
Encoding: 9480 9480 133
Width: 80
Flags: W
HStem: 50 10<0 10 20 30 40 50 60 70>
VStem: 0 10<50 60> 20 10<50 60> 40 10<50 60> 60 10<50 60>
LayerCount: 2
Fore
SplineSet
70 50 m 1
 60 50 l 1
 60 60 l 1
 70 60 l 1
 70 50 l 1
10 50 m 1
 0 50 l 1
 0 60 l 1
 10 60 l 1
 10 50 l 1
30 50 m 1
 20 50 l 1
 20 60 l 1
 30 60 l 1
 30 50 l 1
50 50 m 1
 40 50 l 1
 40 60 l 1
 50 60 l 1
 50 50 l 1
EndSplineSet
Validated: 1
EndChar

StartChar: uni2509
Encoding: 9481 9481 134
Width: 80
Flags: W
HStem: 40 20<0 10 20 30 40 50 60 70>
VStem: 0 10<40 60> 20 10<40 60> 40 10<40 60> 60 10<40 60>
LayerCount: 2
Fore
SplineSet
70 40 m 1
 60 40 l 1
 60 60 l 1
 70 60 l 1
 70 40 l 1
10 40 m 1
 0 40 l 1
 0 60 l 1
 10 60 l 1
 10 40 l 1
30 40 m 1
 20 40 l 1
 20 60 l 1
 30 60 l 1
 30 40 l 1
50 40 m 1
 40 40 l 1
 40 60 l 1
 50 60 l 1
 50 40 l 1
EndSplineSet
Validated: 1
EndChar

StartChar: uni250A
Encoding: 9482 9482 135
Width: 80
Flags: W
HStem: -20 20<30 40> 20 20<30 40> 60 20<30 40> 100 20<30 40>
VStem: 30 10<-20 0 20 40 60 80 100 120>
LayerCount: 2
Fore
SplineSet
40 100 m 1
 30 100 l 1
 30 120 l 1
 40 120 l 1
 40 100 l 1
40 -20 m 1
 30 -20 l 1
 30 0 l 1
 40 0 l 1
 40 -20 l 1
40 20 m 1
 30 20 l 1
 30 40 l 1
 40 40 l 1
 40 20 l 1
40 60 m 1
 30 60 l 1
 30 80 l 1
 40 80 l 1
 40 60 l 1
EndSplineSet
Validated: 1
EndChar

StartChar: uni250B
Encoding: 9483 9483 136
Width: 80
Flags: W
HStem: -20 20<30 50> 20 20<30 50> 60 20<30 50> 100 20<30 50>
VStem: 30 20<-20 0 20 40 60 80 100 120>
LayerCount: 2
Fore
SplineSet
50 100 m 1
 30 100 l 1
 30 120 l 1
 50 120 l 1
 50 100 l 1
50 -20 m 1
 30 -20 l 1
 30 0 l 1
 50 0 l 1
 50 -20 l 1
50 20 m 1
 30 20 l 1
 30 40 l 1
 50 40 l 1
 50 20 l 1
50 60 m 1
 30 60 l 1
 30 80 l 1
 50 80 l 1
 50 60 l 1
EndSplineSet
Validated: 1
EndChar

StartChar: SF010000
Encoding: 9484 9484 137
Width: 80
Flags: W
HStem: -30 21G<30 40> 50 10<40 80>
VStem: 30 10<-30 50>
LayerCount: 2
Fore
SplineSet
80 50 m 1
 40 50 l 1
 40 -30 l 1
 30 -30 l 1
 30 60 l 1
 80 60 l 1
 80 50 l 1
EndSplineSet
Validated: 1
EndChar

StartChar: uni250D
Encoding: 9485 9485 138
Width: 80
Flags: W
HStem: -30 21G<30 40> 40 20<40 80>
VStem: 30 10<-30 40>
LayerCount: 2
Fore
SplineSet
80 40 m 1
 40 40 l 1
 40 -30 l 1
 30 -30 l 1
 30 60 l 1
 80 60 l 1
 80 40 l 1
EndSplineSet
Validated: 1
EndChar

StartChar: uni250E
Encoding: 9486 9486 139
Width: 80
Flags: W
HStem: -30 21G<30 50> 50 10<50 80>
VStem: 30 20<-30 50>
LayerCount: 2
Fore
SplineSet
80 50 m 1
 50 50 l 1
 50 -30 l 1
 30 -30 l 1
 30 60 l 1
 80 60 l 1
 80 50 l 1
EndSplineSet
Validated: 1
EndChar

StartChar: uni250F
Encoding: 9487 9487 140
Width: 80
Flags: W
HStem: -30 21G<30 50> 41 20<50 80>
VStem: 30 20<-30 41>
LayerCount: 2
Fore
SplineSet
80 41 m 1
 50 41 l 1
 50 -30 l 1
 30 -30 l 1
 30 61 l 1
 80 61 l 1
 80 41 l 1
EndSplineSet
Validated: 1
EndChar

StartChar: SF030000
Encoding: 9488 9488 141
Width: 80
Flags: W
HStem: -30 21G<30 40> 50 10<0 30>
VStem: 30 10<-30 50>
LayerCount: 2
Fore
SplineSet
40 -30 m 1
 30 -30 l 1
 30 50 l 1
 0 50 l 1
 0 60 l 1
 40 60 l 1
 40 -30 l 1
EndSplineSet
Validated: 1
EndChar

StartChar: uni2511
Encoding: 9489 9489 142
Width: 80
Flags: W
HStem: -30 21G<30 40> 40 20<0 30>
VStem: 30 10<-30 40>
LayerCount: 2
Fore
SplineSet
40 -30 m 1
 30 -30 l 1
 30 40 l 1
 0 40 l 1
 0 60 l 1
 40 60 l 1
 40 -30 l 1
EndSplineSet
Validated: 1
EndChar

StartChar: uni2512
Encoding: 9490 9490 143
Width: 80
Flags: W
HStem: -30 21G<30 50> 50 10<0 30>
VStem: 30 20<-30 50>
LayerCount: 2
Fore
SplineSet
50 -30 m 1
 30 -30 l 1
 30 50 l 1
 0 50 l 1
 0 60 l 1
 50 60 l 1
 50 -30 l 1
EndSplineSet
Validated: 1
EndChar

StartChar: uni2513
Encoding: 9491 9491 144
Width: 80
Flags: W
HStem: -30 21G<30 50> 40 20<0 30>
VStem: 30 20<-30 40>
LayerCount: 2
Fore
SplineSet
50 -30 m 1
 30 -30 l 1
 30 40 l 1
 0 40 l 1
 0 60 l 1
 50 60 l 1
 50 -30 l 1
EndSplineSet
Validated: 1
EndChar

StartChar: SF020000
Encoding: 9492 9492 145
Width: 80
Flags: W
HStem: 50 10<40 80>
VStem: 30 10<60 130>
LayerCount: 2
Fore
SplineSet
80 50 m 1
 30 50 l 1
 30 130 l 1
 40 130 l 1
 40 60 l 1
 80 60 l 1
 80 50 l 1
EndSplineSet
Validated: 1
EndChar

StartChar: uni2515
Encoding: 9493 9493 146
Width: 80
Flags: W
HStem: 40 20<40 80>
VStem: 30 10<60 130>
LayerCount: 2
Fore
SplineSet
80 40 m 1
 30 40 l 1
 30 130 l 1
 40 130 l 1
 40 60 l 1
 80 60 l 1
 80 40 l 1
EndSplineSet
Validated: 1
EndChar

StartChar: uni2516
Encoding: 9494 9494 147
Width: 80
Flags: W
HStem: 50 10<50 80>
VStem: 30 20<60 130>
LayerCount: 2
Fore
SplineSet
80 50 m 1
 30 50 l 1
 30 130 l 1
 50 130 l 1
 50 60 l 1
 80 60 l 1
 80 50 l 1
EndSplineSet
Validated: 1
EndChar

StartChar: uni2517
Encoding: 9495 9495 148
Width: 80
Flags: W
HStem: 40 20<50 80>
VStem: 30 20<60 130>
LayerCount: 2
Fore
SplineSet
80 40 m 1
 30 40 l 1
 30 130 l 1
 50 130 l 1
 50 60 l 1
 80 60 l 1
 80 40 l 1
EndSplineSet
Validated: 1
EndChar

StartChar: SF040000
Encoding: 9496 9496 149
Width: 80
Flags: W
HStem: 50 10<0 30>
VStem: 30 10<60 130>
LayerCount: 2
Fore
SplineSet
40 50 m 1
 0 50 l 1
 0 60 l 1
 30 60 l 1
 30 130 l 1
 40 130 l 1
 40 50 l 1
EndSplineSet
Validated: 1
EndChar

StartChar: uni2519
Encoding: 9497 9497 150
Width: 80
Flags: W
HStem: 40 20<0 30>
VStem: 30 10<60 130>
LayerCount: 2
Fore
SplineSet
40 40 m 1
 0 40 l 1
 0 60 l 1
 30 60 l 1
 30 130 l 1
 40 130 l 1
 40 40 l 1
EndSplineSet
Validated: 1
EndChar

StartChar: uni251A
Encoding: 9498 9498 151
Width: 80
Flags: W
HStem: 50 10<-1 29>
VStem: 29 20<60 130>
LayerCount: 2
Fore
SplineSet
49 50 m 1
 -1 50 l 1
 -1 60 l 1
 29 60 l 1
 30 130 l 1
 50 130 l 1
 49 50 l 1
EndSplineSet
Validated: 1
EndChar

StartChar: uni251B
Encoding: 9499 9499 152
Width: 80
Flags: W
HStem: 40 20<0 30>
VStem: 30 20<60 130>
LayerCount: 2
Fore
SplineSet
50 40 m 1
 0 40 l 1
 0 60 l 1
 30 60 l 1
 30 130 l 1
 50 130 l 1
 50 40 l 1
EndSplineSet
Validated: 1
EndChar

StartChar: SF080000
Encoding: 9500 9500 153
Width: 80
Flags: W
HStem: -30 21G<30 40> 50 10<40 80>
VStem: 30 10<-30 50 60 130>
LayerCount: 2
Fore
SplineSet
80 50 m 1
 40 50 l 1
 40 -30 l 1
 30 -30 l 1
 30 130 l 1
 40 130 l 1
 40 60 l 1
 80 60 l 1
 80 50 l 1
EndSplineSet
Validated: 1
EndChar

StartChar: uni251D
Encoding: 9501 9501 154
Width: 80
Flags: W
HStem: -30 21G<30 40> 40 20<40 80>
VStem: 30 10<-30 40 60 130>
LayerCount: 2
Fore
SplineSet
80 40 m 1
 40 40 l 1
 40 -30 l 1
 30 -30 l 1
 30 130 l 1
 40 130 l 1
 40 60 l 1
 80 60 l 1
 80 40 l 1
EndSplineSet
Validated: 1
EndChar

StartChar: uni251E
Encoding: 9502 9502 155
Width: 80
Flags: W
HStem: -30 21G<30 40> 50 10<50 80>
VStem: 30 20<60 130> 30 10<-30 50>
LayerCount: 2
Fore
SplineSet
80 50 m 1xe0
 40 50 l 1
 40 -30 l 1
 30 -30 l 1xd0
 30 130 l 1
 50 130 l 1
 50 60 l 1
 80 60 l 1
 80 50 l 1xe0
EndSplineSet
Validated: 1
EndChar

StartChar: uni251F
Encoding: 9503 9503 156
Width: 80
Flags: W
HStem: -30 21G<30 50> 50.208 10<50 80>
VStem: 30 20<-30 50.208> 30 10<60.208 130>
LayerCount: 2
Fore
SplineSet
80 50.2080078125 m 1xd0
 50 50.2080078125 l 1
 50 -30 l 1
 30 -30 l 1xe0
 30 130 l 1
 40 130 l 1
 40 60.2080078125 l 1
 80 60.2080078125 l 1
 80 50.2080078125 l 1xd0
EndSplineSet
Validated: 1
EndChar

StartChar: uni2520
Encoding: 9504 9504 157
Width: 80
Flags: W
HStem: -30 21G<30 50> 50.208 10<50 80>
VStem: 30 20<-30 50.208 60.208 130>
LayerCount: 2
Fore
SplineSet
80 50.2080078125 m 1
 50 50.2080078125 l 1
 50 -30 l 1
 30 -30 l 1
 30 130 l 1
 50 130 l 1
 50 60.2080078125 l 1
 80 60.2080078125 l 1
 80 50.2080078125 l 1
EndSplineSet
Validated: 1
EndChar

StartChar: uni2521
Encoding: 9505 9505 158
Width: 80
Flags: W
HStem: -30 21G<30 40> 40.1641 20<50 80>
VStem: 30 20<60.1641 130> 30 10<-30 40.1641>
LayerCount: 2
Fore
SplineSet
80 40.1640625 m 1xe0
 40 40.1640625 l 1
 40 -30 l 1
 30 -30 l 1xd0
 30 130 l 1
 50 130 l 1
 50 60.1640625 l 1
 80 60.1640625 l 1
 80 40.1640625 l 1xe0
EndSplineSet
Validated: 1
EndChar

StartChar: uni2522
Encoding: 9506 9506 159
Width: 80
Flags: W
HStem: -30 21G<30 50> 40 20<50 80>
VStem: 30 20<-30 40> 30 10<60 130>
LayerCount: 2
Fore
SplineSet
80 40 m 1xd0
 50 40 l 1
 50 -30 l 1
 30 -30 l 1xe0
 30 130 l 1
 40 130 l 1
 40 60 l 1
 80 60 l 1
 80 40 l 1xd0
EndSplineSet
Validated: 1
EndChar

StartChar: uni2523
Encoding: 9507 9507 160
Width: 80
Flags: W
HStem: -30 21G<30 50> 40.1641 20<50 80>
VStem: 30 20<-30 40.1641 60.1641 130>
LayerCount: 2
Fore
SplineSet
80 40.1640625 m 1
 50 40.1640625 l 1
 50 -30 l 1
 30 -30 l 1
 30 130 l 1
 50 130 l 1
 50 60.1640625 l 1
 80 60.1640625 l 1
 80 40.1640625 l 1
EndSplineSet
Validated: 1
EndChar

StartChar: SF090000
Encoding: 9508 9508 161
Width: 80
Flags: W
HStem: -30 21G<30 40> 50.208 10<0 30>
VStem: 30 10<-30 50.208 60.208 130>
LayerCount: 2
Fore
SplineSet
40 -30 m 1
 30 -30 l 1
 30 50.2080078125 l 1
 0 50.2080078125 l 1
 0 60.2080078125 l 1
 30 60.2080078125 l 1
 30 130 l 1
 40 130 l 1
 40 -30 l 1
EndSplineSet
Validated: 1
EndChar

StartChar: uni2525
Encoding: 9509 9509 162
Width: 80
Flags: W
HStem: -30 21G<30 40> 40.1641 20<0 30>
VStem: 30 10<-30 40.1641 60.1641 130>
LayerCount: 2
Fore
SplineSet
40 -30 m 1
 30 -30 l 1
 30 40.1640625 l 1
 0 40.1640625 l 1
 0 60.1640625 l 1
 30 60.1640625 l 1
 30 130 l 1
 40 130 l 1
 40 -30 l 1
EndSplineSet
Validated: 1
EndChar

StartChar: uni2526
Encoding: 9510 9510 163
Width: 80
Flags: W
HStem: -30 21G<30 39.9999> 50 10<0 30>
VStem: 30 20<60 130> 30 9.99986<-30 50>
LayerCount: 2
Fore
SplineSet
30 -30 m 1xd0
 30 50.2080078125 l 1xd0
 -0 50 l 1
 -0 60 l 1
 30 60 l 1
 30 130 l 1
 50 130 l 9
 50 50.2083333333 l 25xe0
 39.9998550415 50 l 25
 39.9998550415 -30 l 25
 30 -30 l 1xd0
EndSplineSet
Validated: 1
EndChar

StartChar: uni2527
Encoding: 9511 9511 164
Width: 80
Flags: W
LayerCount: 2
Fore
SplineSet
40 130 m 1
 30 130 l 1
 30 60.2080078125 l 1
 0 60.2080078125 l 1
 0 50.2080078125 l 1
 30 50.2080078125 l 1
 30 -30 l 1
 49 -30 l 1
 50 60 l 25
 40 60 l 1
 40 130 l 1
EndSplineSet
Validated: 9
EndChar

StartChar: uni2528
Encoding: 9512 9512 165
Width: 80
Flags: W
HStem: -30 21G<30 50> 50 10<0 30>
VStem: 30 20<-30 50 60 130>
LayerCount: 2
Fore
SplineSet
50 -30 m 1
 30 -30 l 1
 30 50 l 1
 -0 50 l 1
 -0 60 l 1
 30 60 l 1
 30 130 l 1
 50 130 l 1
 50 -30 l 1
EndSplineSet
Validated: 1
EndChar

StartChar: uni2529
Encoding: 9513 9513 166
Width: 80
Flags: W
VStem: 0 50
LayerCount: 2
Fore
SplineSet
30 130 m 1
 30 60 l 1
 0 60 l 1
 0 40 l 1
 30 40 l 1
 30 -30 l 1
 40 -30 l 9
 40 40 l 1
 50 40 l 25
 50 130 l 1
 30 130 l 1
EndSplineSet
Validated: 9
EndChar

StartChar: uni252A
Encoding: 9514 9514 167
Width: 80
Flags: W
VStem: 0 50
LayerCount: 2
Fore
SplineSet
40 130 m 1
 31 130 l 1
 31 60 l 1
 0 60 l 1
 0 40 l 1
 30 40 l 1
 30 -30 l 1
 50 -30 l 1
 50 60 l 25
 40 60 l 1
 40 130 l 1
EndSplineSet
Validated: 9
EndChar

StartChar: uni252B
Encoding: 9515 9515 168
Width: 80
Flags: W
HStem: -30 21G<30 50> 40 20<0 30>
VStem: 30 20<-30 40 60 130>
LayerCount: 2
Fore
SplineSet
50 -30 m 1
 30 -30 l 1
 30 40 l 1
 -0 40 l 1
 -0 60 l 1
 30 60 l 1
 30 130 l 1
 50 130 l 1
 50 -30 l 1
EndSplineSet
Validated: 1
EndChar

StartChar: SF060000
Encoding: 9516 9516 169
Width: 80
Flags: W
HStem: -30 21G<30 40> 50 10<0 30 40 80>
VStem: 30 10<-30 50>
LayerCount: 2
Fore
SplineSet
80 50 m 1
 40 50 l 1
 40 -30 l 1
 30 -30 l 1
 30 50 l 1
 0 50 l 1
 0 60 l 1
 80 60 l 1
 80 50 l 1
EndSplineSet
Validated: 1
EndChar

StartChar: uni252D
Encoding: 9517 9517 170
Width: 80
Flags: W
HStem: -30 21G<30 40> 40 20<0 30> 50 10<40 80>
VStem: 30 10<-30 40>
LayerCount: 2
Fore
SplineSet
80 50 m 1xb0
 40 50 l 1xb0
 40 -30 l 1
 30 -30 l 1
 30 40 l 1
 0 40 l 1
 0 60 l 1xd0
 80 60 l 1
 80 50 l 1xb0
EndSplineSet
Validated: 1
EndChar

StartChar: uni252E
Encoding: 9518 9518 171
Width: 80
Flags: W
HStem: -30 21G<30 40> 40 20<40 80> 50 10<0 30>
VStem: 30 10<-30 40>
LayerCount: 2
Fore
SplineSet
80 40 m 1xd0
 40 40 l 1xd0
 40 -30 l 1
 30 -30 l 1
 30 50 l 1
 0 50 l 1
 0 60 l 1xb0
 80 60 l 1
 80 40 l 1xd0
EndSplineSet
Validated: 1
EndChar

StartChar: uni252F
Encoding: 9519 9519 172
Width: 80
Flags: W
HStem: -30 21G<30 40> 40 20<0 30 40 80>
VStem: 30 10<-30 40>
LayerCount: 2
Fore
SplineSet
80 40 m 1
 40 40 l 1
 40 -30 l 1
 30 -30 l 1
 30 40 l 1
 0 40 l 1
 0 60 l 1
 80 60 l 1
 80 40 l 1
EndSplineSet
Validated: 1
EndChar

StartChar: uni2530
Encoding: 9520 9520 173
Width: 80
Flags: W
HStem: -30 21G<30 50> 50 10<0 30 50 80>
VStem: 30 20<-30 50>
LayerCount: 2
Fore
SplineSet
80 50 m 1
 50 50 l 1
 50 -30 l 1
 30 -30 l 1
 30 50 l 1
 0 50 l 1
 0 60 l 1
 80 60 l 1
 80 50 l 1
EndSplineSet
Validated: 1
EndChar

StartChar: uni2531
Encoding: 9521 9521 174
Width: 80
Flags: W
HStem: -30 21G<30 50> 40 20<0 30> 50 10<50 80>
VStem: 30 20<-30 40>
LayerCount: 2
Fore
SplineSet
80 50 m 1xb0
 50 50 l 1xb0
 50 -30 l 1
 30 -30 l 1
 30 40 l 1
 0 40 l 1
 0 60 l 1xd0
 80 60 l 1
 80 50 l 1xb0
EndSplineSet
Validated: 1
EndChar

StartChar: uni2532
Encoding: 9522 9522 175
Width: 80
Flags: W
HStem: -30 21G<30 50> 40 20<50 80> 50 10<0 30>
VStem: 30 20<-30 40>
LayerCount: 2
Fore
SplineSet
80 40 m 1xd0
 50 40 l 1xd0
 50 -30 l 1
 30 -30 l 1
 30 50 l 1
 0 50 l 1
 0 60 l 1xb0
 80 60 l 1
 80 40 l 1xd0
EndSplineSet
Validated: 1
EndChar

StartChar: uni2533
Encoding: 9523 9523 176
Width: 80
Flags: W
HStem: -30 21G<30 50> 40 20<0 30 50 80>
VStem: 30 20<-30 40>
LayerCount: 2
Fore
SplineSet
80 40 m 1
 50 40 l 1
 50 -30 l 1
 30 -30 l 1
 30 40 l 1
 0 40 l 1
 0 60 l 1
 80 60 l 1
 80 40 l 1
EndSplineSet
Validated: 1
EndChar

StartChar: SF070000
Encoding: 9524 9524 177
Width: 80
Flags: W
HStem: 50 10<0 30 40 80>
VStem: 30 10<60 130>
LayerCount: 2
Fore
SplineSet
80 50 m 1
 0 50 l 1
 0 60 l 1
 30 60 l 1
 30 130 l 1
 40 130 l 1
 40 60 l 1
 80 60 l 1
 80 50 l 1
EndSplineSet
Validated: 1
EndChar

StartChar: uni2535
Encoding: 9525 9525 178
Width: 80
Flags: W
HStem: 40 20<0 30> 50 10<40 80>
VStem: 30 10<60 130>
LayerCount: 2
Fore
SplineSet
80 50 m 1x60
 40 50 l 1x60
 40 40 l 1
 0 40 l 1
 0 60 l 1
 30 60 l 1xa0
 30 130 l 1
 40 130 l 1
 40 60 l 1
 80 60 l 1
 80 50 l 1x60
EndSplineSet
Validated: 1
EndChar

StartChar: uni2536
Encoding: 9526 9526 179
Width: 80
Flags: W
HStem: 40 20<40 80> 50 10<0 30>
VStem: 30 10<60 130>
LayerCount: 2
Fore
SplineSet
80 40 m 1xa0
 30 40 l 1xa0
 30 50 l 1
 0 50 l 1
 0 60 l 1
 30 60 l 1x60
 30 130 l 1
 40 130 l 1
 40 60 l 1
 80 60 l 1
 80 40 l 1xa0
EndSplineSet
Validated: 1
EndChar

StartChar: uni2537
Encoding: 9527 9527 180
Width: 80
Flags: W
HStem: 40 20<0 30 40 80>
VStem: 30 10<60 130>
LayerCount: 2
Fore
SplineSet
80 40 m 1
 0 40 l 1
 0 60 l 1
 30 60 l 1
 30 130 l 1
 40 130 l 1
 40 60 l 1
 80 60 l 1
 80 40 l 1
EndSplineSet
Validated: 1
EndChar

StartChar: uni2538
Encoding: 9528 9528 181
Width: 80
Flags: W
HStem: 50 10<0 30 50 80>
VStem: 30 20<60 130>
LayerCount: 2
Fore
SplineSet
80 50 m 1
 0 50 l 1
 0 60 l 1
 30 60 l 1
 30 130 l 1
 50 130 l 1
 50 60 l 1
 80 60 l 1
 80 50 l 1
EndSplineSet
Validated: 1
EndChar

StartChar: uni2539
Encoding: 9529 9529 182
Width: 80
Flags: W
HStem: 40 20<0 30> 50 10<50 80>
VStem: 30 20<60 130>
LayerCount: 2
Fore
SplineSet
80 50 m 1x60
 50 50 l 1x60
 50 40 l 1
 0 40 l 1
 0 60 l 1
 30 60 l 1xa0
 30 130 l 1
 50 130 l 1
 50 60 l 1
 80 60 l 1
 80 50 l 1x60
EndSplineSet
Validated: 1
EndChar

StartChar: uni253A
Encoding: 9530 9530 183
Width: 80
Flags: W
HStem: 40 20<50 80> 50 10<0 30>
VStem: 30 20<60 130>
LayerCount: 2
Fore
SplineSet
80 40 m 1xa0
 30 40 l 1xa0
 30 50 l 1
 0 50 l 1
 0 60 l 1
 30 60 l 1x60
 30 130 l 1
 50 130 l 1
 50 60 l 1
 80 60 l 1
 80 40 l 1xa0
EndSplineSet
Validated: 1
EndChar

StartChar: uni253B
Encoding: 9531 9531 184
Width: 80
Flags: W
HStem: 40 20<0 30 50 80>
VStem: 30 20<60 130>
LayerCount: 2
Fore
SplineSet
80 40 m 1
 0 40 l 1
 0 60 l 1
 30 60 l 1
 30 130 l 1
 50 130 l 1
 50 60 l 1
 80 60 l 1
 80 40 l 1
EndSplineSet
Validated: 1
EndChar

StartChar: SF050000
Encoding: 9532 9532 185
Width: 80
Flags: W
HStem: -30 21G<30 40> 50 10<0 30 40 80>
VStem: 30 10<-30 50 60 130>
LayerCount: 2
Fore
SplineSet
80 50 m 1
 40 50 l 1
 40 -30 l 1
 30 -30 l 1
 30 50 l 1
 0 50 l 1
 0 60 l 1
 30 60 l 1
 30 130 l 1
 40 130 l 1
 40 60 l 1
 80 60 l 1
 80 50 l 1
EndSplineSet
Validated: 1
EndChar

StartChar: uni253D
Encoding: 9533 9533 186
Width: 80
Flags: W
HStem: -30 21G<30 40> 40 20<0 30> 50 10<40 80>
VStem: 30 10<-30 40 60 130>
LayerCount: 2
Fore
SplineSet
80 50 m 1xb0
 40 50 l 1xb0
 40 -30 l 1
 30 -30 l 1
 30 40 l 1
 0 40 l 1
 0 60 l 1
 30 60 l 1xd0
 30 130 l 1
 40 130 l 1
 40 60 l 1
 80 60 l 1
 80 50 l 1xb0
EndSplineSet
Validated: 1
EndChar

StartChar: uni253E
Encoding: 9534 9534 187
Width: 80
Flags: W
HStem: -30 21G<30 40> 40 20<40 80> 50 10<0 30>
VStem: 30 10<-30 40 60 130>
LayerCount: 2
Fore
SplineSet
80 40 m 1xd0
 40 40 l 1xd0
 40 -30 l 1
 30 -30 l 1
 30 50 l 1
 0 50 l 1
 0 60 l 1
 30 60 l 1xb0
 30 130 l 1
 40 130 l 1
 40 60 l 1
 80 60 l 1
 80 40 l 1xd0
EndSplineSet
Validated: 1
EndChar

StartChar: uni253F
Encoding: 9535 9535 188
Width: 80
Flags: W
HStem: -30 21G<30 40> 40 20<0 30 40 80>
VStem: 30 10<-30 40 60 130>
LayerCount: 2
Fore
SplineSet
80 40 m 1
 40 40 l 1
 40 -30 l 1
 30 -30 l 1
 30 40 l 1
 0 40 l 1
 0 60 l 1
 30 60 l 1
 30 130 l 1
 40 130 l 1
 40 60 l 1
 80 60 l 1
 80 40 l 1
EndSplineSet
Validated: 1
EndChar

StartChar: uni2540
Encoding: 9536 9536 189
Width: 80
Flags: W
HStem: -30 21G<30 40> 50 10<0 30 50 80>
VStem: 30 20<60 130> 30 10<-30 50>
LayerCount: 2
Fore
SplineSet
80 50 m 1xe0
 40 50 l 1
 40 -30 l 1
 30 -30 l 1
 30 50 l 1xd0
 0 50 l 1
 0 60 l 1
 30 60 l 1
 30 130 l 1
 50 130 l 1
 50 60 l 1
 80 60 l 1
 80 50 l 1xe0
EndSplineSet
Validated: 1
EndChar

StartChar: uni2541
Encoding: 9537 9537 190
Width: 80
Flags: W
HStem: -30 21G<30 50> 50 10<0 30 50 80>
VStem: 30 20<-30 50> 30 10<60 130>
LayerCount: 2
Fore
SplineSet
80 50 m 1xd0
 50 50 l 1
 50 -30 l 1
 30 -30 l 1
 30 50 l 1xe0
 0 50 l 1
 0 60 l 1
 30 60 l 1
 30 130 l 1
 40 130 l 1
 40 60 l 1
 80 60 l 1
 80 50 l 1xd0
EndSplineSet
Validated: 1
EndChar

StartChar: uni2542
Encoding: 9538 9538 191
Width: 80
Flags: W
HStem: -30 21G<30 50> 50 10<0 30 50 80>
VStem: 30 20<-30 50 60 130>
LayerCount: 2
Fore
SplineSet
80 50 m 1
 50 50 l 1
 50 -30 l 1
 30 -30 l 1
 30 50 l 1
 0 50 l 1
 0 60 l 1
 30 60 l 1
 30 130 l 1
 50 130 l 1
 50 60 l 1
 80 60 l 1
 80 50 l 1
EndSplineSet
Validated: 1
EndChar

StartChar: uni2543
Encoding: 9539 9539 192
Width: 80
Flags: W
LayerCount: 2
Fore
SplineSet
80 50 m 1
 80 60 l 1
 50 60 l 1
 50 130 l 1
 30 130 l 1
 30 60 l 1
 0 60 l 1
 0 40 l 1
 31 40 l 1
 31 -30 l 1
 41 -30 l 9
 41 40 l 25
 50 40 l 25
 50 50 l 25
 80 50 l 1
EndSplineSet
Validated: 9
EndChar

StartChar: uni2544
Encoding: 9540 9540 193
Width: 80
Flags: W
HStem: -30 21G<30 40> 40 20<50 80> 50 10<0 30>
VStem: 30 20<60 130> 30 10<-30 40>
LayerCount: 2
Fore
SplineSet
80 40 m 1xd0
 40 40 l 1xc8
 40 -30 l 1
 30 -30 l 1
 30 50 l 1xa8
 0 50 l 1
 0 60 l 1
 30 60 l 1xb0
 30 130 l 1
 50 130 l 1
 50 60 l 1
 80 60 l 1
 80 40 l 1xd0
EndSplineSet
Validated: 1
EndChar

StartChar: uni2545
Encoding: 9541 9541 194
Width: 80
Flags: W
HStem: -30 21G<30 50> 40 20<0 30> 50 10<50 80>
VStem: 30 20<-30 40> 30 10<60 130>
LayerCount: 2
Fore
SplineSet
80 50 m 1xa8
 50 50 l 1xb0
 50 -30 l 1
 30 -30 l 1
 30 40 l 1xd0
 0 40 l 1
 0 60 l 1
 30 60 l 1xc8
 30 130 l 1
 40 130 l 1
 40 60 l 1
 80 60 l 1
 80 50 l 1xa8
EndSplineSet
Validated: 1
EndChar

StartChar: uni2546
Encoding: 9542 9542 195
Width: 80
Flags: W
HStem: -30 21G<30 50> 40 20<50 80> 50 10<0 30>
VStem: 30 20<-30 40> 30 10<60 130>
LayerCount: 2
Fore
SplineSet
80 40 m 1xc8
 50 40 l 1
 50 -30 l 1
 30 -30 l 1xd0
 30 50 l 1
 0 50 l 1
 0 60 l 1
 30 60 l 1
 30 130 l 1
 40 130 l 1
 40 60 l 1xa8
 80 60 l 1
 80 40 l 1xc8
EndSplineSet
Validated: 1
EndChar

StartChar: uni2547
Encoding: 9543 9543 196
Width: 80
Flags: W
HStem: -30 21G<30 40> 40 20<0 30 50 80>
VStem: 30 20<60 130> 30 10<-30 40>
LayerCount: 2
Fore
SplineSet
80 40 m 1xe0
 40 40 l 1
 40 -30 l 1
 30 -30 l 1
 30 40 l 1xd0
 0 40 l 1
 0 60 l 1
 30 60 l 1
 30 130 l 1
 50 130 l 1
 50 60 l 1
 80 60 l 1
 80 40 l 1xe0
EndSplineSet
Validated: 1
EndChar

StartChar: uni2548
Encoding: 9544 9544 197
Width: 80
Flags: W
HStem: -30 21G<30 50> 40 20<0 30 50 80>
VStem: 30 20<-30 40> 30 10<60 130>
LayerCount: 2
Fore
SplineSet
80 40 m 1xd0
 50 40 l 1
 50 -30 l 1
 30 -30 l 1
 30 40 l 1xe0
 0 40 l 1
 0 60 l 1
 30 60 l 1
 30 130 l 1
 40 130 l 1
 40 60 l 1
 80 60 l 1
 80 40 l 1xd0
EndSplineSet
Validated: 1
EndChar

StartChar: uni2549
Encoding: 9545 9545 198
Width: 80
Flags: W
HStem: -30 21G<30 50> 40 20<0 30> 50 10<50 80>
VStem: 30 20<-30 40 60 130>
LayerCount: 2
Fore
SplineSet
80 50 m 1xb0
 50 50 l 1xb0
 50 -30 l 1
 30 -30 l 1
 30 40 l 1
 0 40 l 1
 0 60 l 1
 30 60 l 1xd0
 30 130 l 1
 50 130 l 1
 50 60 l 1
 80 60 l 1
 80 50 l 1xb0
EndSplineSet
Validated: 1
EndChar

StartChar: uni254A
Encoding: 9546 9546 199
Width: 80
Flags: W
HStem: -30 21G<30 50> 40 20<50 80> 50 10<0 30>
VStem: 30 20<-30 40 60 130>
LayerCount: 2
Fore
SplineSet
80 40 m 1xd0
 50 40 l 1xd0
 50 -30 l 1
 30 -30 l 1
 30 50 l 1
 0 50 l 1
 0 60 l 1
 30 60 l 1xb0
 30 130 l 1
 50 130 l 1
 50 60 l 1
 80 60 l 1
 80 40 l 1xd0
EndSplineSet
Validated: 1
EndChar

StartChar: uni254B
Encoding: 9547 9547 200
Width: 80
Flags: W
HStem: -30 21G<30 50> 40 20<0 30 50 80>
VStem: 30 20<-30 40 60 130>
LayerCount: 2
Fore
SplineSet
80 40 m 1
 50 40 l 1
 50 -30 l 1
 30 -30 l 1
 30 40 l 1
 0 40 l 1
 0 60 l 1
 30 60 l 1
 30 130 l 1
 50 130 l 1
 50 60 l 1
 80 60 l 1
 80 40 l 1
EndSplineSet
Validated: 1
EndChar

StartChar: uni254C
Encoding: 9548 9548 201
Width: 80
Flags: W
HStem: 50 10<5 35 45 75>
LayerCount: 2
Fore
SplineSet
75 50 m 1
 45 50 l 1
 45 60 l 1
 75 60 l 1
 75 50 l 1
35 50 m 1
 5 50 l 1
 5 60 l 1
 35 60 l 1
 35 50 l 1
EndSplineSet
Validated: 1
EndChar

StartChar: uni254D
Encoding: 9549 9549 202
Width: 80
Flags: W
HStem: 40 20<5 35 45 75>
VStem: 5 30<40 60> 45 30<40 60>
LayerCount: 2
Fore
SplineSet
75 40 m 1
 45 40 l 1
 45 60 l 1
 75 60 l 1
 75 40 l 1
35 40 m 1
 5 40 l 1
 5 60 l 1
 35 60 l 1
 35 40 l 1
EndSplineSet
Validated: 1
EndChar

StartChar: uni254E
Encoding: 9550 9550 203
Width: 80
Flags: W
HStem: 70 21G<30 40>
VStem: 30 10<-10 40 70 120>
LayerCount: 2
Fore
SplineSet
40 70 m 1
 30 70 l 1
 30 120 l 1
 40 120 l 1
 40 70 l 1
40 -10 m 1
 30 -10 l 1
 30 40 l 1
 40 40 l 1
 40 -10 l 1
EndSplineSet
Validated: 1
EndChar

StartChar: uni254F
Encoding: 9551 9551 204
Width: 80
Flags: W
HStem: 70 21G<30 50>
VStem: 30 20<-10 40 70 120>
LayerCount: 2
Fore
SplineSet
50 70 m 1
 30 70 l 1
 30 120 l 1
 50 120 l 1
 50 70 l 1
50 -10 m 1
 30 -10 l 1
 30 40 l 1
 50 40 l 1
 50 -10 l 1
EndSplineSet
Validated: 1
EndChar

StartChar: SF430000
Encoding: 9552 9552 205
Width: 80
Flags: W
HStem: 40 10<0 80> 60 10<0 80>
LayerCount: 2
Fore
SplineSet
80 60 m 1
 0 60 l 1
 0 70 l 1
 80 70 l 1
 80 60 l 1
80 40 m 1
 0 40 l 1
 0 50 l 1
 80 50 l 1
 80 40 l 1
EndSplineSet
Validated: 1
EndChar

StartChar: SF240000
Encoding: 9553 9553 206
Width: 80
Flags: W
HStem: -30 21G<20 30 40 50>
VStem: 20 10<-30 130> 40 10<-30 130>
LayerCount: 2
Fore
SplineSet
50 -30 m 1
 40 -30 l 1
 40 130 l 1
 50 130 l 1
 50 -30 l 1
30 -30 m 1
 20 -30 l 1
 20 130 l 1
 30 130 l 1
 30 -30 l 1
EndSplineSet
Validated: 1
EndChar

StartChar: SF510000
Encoding: 9554 9554 207
Width: 80
Flags: W
HStem: -30 21G<30 40> 40 10<40 80> 60 10<40 80>
VStem: 30 10<-30 40 50 60>
LayerCount: 2
Fore
SplineSet
80 40 m 1
 40 40 l 1
 40 -30 l 1
 30 -30 l 1
 30 70 l 1
 80 70 l 1
 80 60 l 1
 40 60 l 1
 40 50 l 1
 80 50 l 1
 80 40 l 1
EndSplineSet
Validated: 1
EndChar

StartChar: SF520000
Encoding: 9555 9555 208
Width: 80
Flags: W
HStem: -30 21G<20 30 40 50> 50 10<30 40 50 80>
VStem: 20 10<-30 50> 40 10<-30 50>
LayerCount: 2
Fore
SplineSet
80 50 m 1
 50 50 l 1
 50 -30 l 1
 40 -30 l 1
 40 50 l 1
 30 50 l 1
 30 -30 l 1
 20 -30 l 1
 20 60 l 1
 80 60 l 1
 80 50 l 1
EndSplineSet
Validated: 1
EndChar

StartChar: SF390000
Encoding: 9556 9556 209
Width: 80
Flags: W
HStem: -30 21G<20 30 40 50> 40 10<50 80> 60 10<30 80>
VStem: 20 10<-30 60> 40 10<-30 40>
LayerCount: 2
Fore
SplineSet
80 60 m 1
 30 60 l 1
 30 -30 l 1
 20 -30 l 1
 20 70 l 1
 80 70 l 1
 80 60 l 1
80 40 m 1
 50 40 l 1
 50 -30 l 1
 40 -30 l 1
 40 50 l 1
 80 50 l 1
 80 40 l 1
EndSplineSet
Validated: 1
EndChar

StartChar: SF220000
Encoding: 9557 9557 210
Width: 80
Flags: W
HStem: -30 21G<30 40> 40 10<0 30> 60 10<0 30>
VStem: 30 10<-30 40 50 60>
LayerCount: 2
Fore
SplineSet
40 -30 m 1
 30 -30 l 1
 30 40 l 1
 0 40 l 1
 0 50 l 1
 30 50 l 1
 30 60 l 1
 0 60 l 1
 0 70 l 1
 40 70 l 1
 40 -30 l 1
EndSplineSet
Validated: 1
EndChar

StartChar: SF210000
Encoding: 9558 9558 211
Width: 80
Flags: W
HStem: -30 21G<20 30 40 50> 50 10<0 20 30 40>
VStem: 20 10<-30 50> 40 10<-30 50>
LayerCount: 2
Fore
SplineSet
50 -30 m 1
 40 -30 l 1
 40 50 l 1
 30 50 l 1
 30 -30 l 1
 20 -30 l 1
 20 50 l 1
 0 50 l 1
 0 60 l 1
 50 60 l 1
 50 -30 l 1
EndSplineSet
Validated: 1
EndChar

StartChar: SF250000
Encoding: 9559 9559 212
Width: 80
Flags: W
HStem: -30 21G<20 30 40 50> 40 10<0 20> 60 10<0 40>
VStem: 20 10<-30 40> 40 10<-30 60>
LayerCount: 2
Fore
SplineSet
50 -30 m 1
 40 -30 l 1
 40 60 l 1
 0 60 l 1
 0 70 l 1
 50 70 l 1
 50 -30 l 1
30 -30 m 1
 20 -30 l 1
 20 40 l 1
 0 40 l 1
 0 50 l 1
 30 50 l 1
 30 -30 l 1
EndSplineSet
Validated: 1
EndChar

StartChar: SF500000
Encoding: 9560 9560 213
Width: 80
Flags: W
HStem: 40 10<40 80> 60 10<40 80>
VStem: 30 10<50 60 70 130>
LayerCount: 2
Fore
SplineSet
80 40 m 1
 30 40 l 1
 30 130 l 1
 40 130 l 1
 40 70 l 1
 80 70 l 1
 80 60 l 1
 40 60 l 1
 40 50 l 1
 80 50 l 1
 80 40 l 1
EndSplineSet
Validated: 1
EndChar

StartChar: SF490000
Encoding: 9561 9561 214
Width: 80
Flags: W
HStem: 50 10<30 40 50 80>
VStem: 20 10<60 130> 40 10<60 130>
LayerCount: 2
Fore
SplineSet
80 50 m 1
 20 50 l 1
 20 130 l 1
 30 130 l 1
 30 60 l 1
 40 60 l 1
 40 130 l 1
 50 130 l 1
 50 60 l 1
 80 60 l 1
 80 50 l 1
EndSplineSet
Validated: 1
EndChar

StartChar: SF380000
Encoding: 9562 9562 215
Width: 80
Flags: W
HStem: 40 10<30 80> 60 10<50 80>
VStem: 20 10<50 130> 40 10<70 130>
LayerCount: 2
Fore
SplineSet
80 40 m 1
 20 40 l 1
 20 130 l 1
 30 130 l 1
 30 50 l 1
 80 50 l 1
 80 40 l 1
80 60 m 1
 40 60 l 1
 40 130 l 1
 50 130 l 1
 50 70 l 1
 80 70 l 1
 80 60 l 1
EndSplineSet
Validated: 1
EndChar

StartChar: SF280000
Encoding: 9563 9563 216
Width: 80
Flags: W
HStem: 40 10<0 30> 60 10<0 30>
VStem: 30 10<50 60 70 130>
LayerCount: 2
Fore
SplineSet
40 40 m 1
 0 40 l 1
 0 50 l 1
 30 50 l 1
 30 60 l 1
 0 60 l 1
 0 70 l 1
 30 70 l 1
 30 130 l 1
 40 130 l 1
 40 40 l 1
EndSplineSet
Validated: 1
EndChar

StartChar: SF270000
Encoding: 9564 9564 217
Width: 80
Flags: W
HStem: 50 10<0 20 30 40>
VStem: 20 10<60 130> 40 10<60 130>
LayerCount: 2
Fore
SplineSet
50 50 m 1
 0 50 l 1
 0 60 l 1
 20 60 l 1
 20 130 l 1
 30 130 l 1
 30 60 l 1
 40 60 l 1
 40 130 l 1
 50 130 l 1
 50 50 l 1
EndSplineSet
Validated: 1
EndChar

StartChar: SF260000
Encoding: 9565 9565 218
Width: 80
Flags: W
HStem: 40 10<0 40> 60 10<0 20>
VStem: 20 10<70 130> 40 10<50 130>
LayerCount: 2
Fore
SplineSet
50 40 m 1
 0 40 l 1
 0 50 l 1
 40 50 l 1
 40 130 l 1
 50 130 l 1
 50 40 l 1
30 60 m 1
 0 60 l 1
 0 70 l 1
 20 70 l 1
 20 130 l 1
 30 130 l 1
 30 60 l 1
EndSplineSet
Validated: 1
EndChar

StartChar: SF360000
Encoding: 9566 9566 219
Width: 80
Flags: W
HStem: -30 21G<30 40> 40 10<40 80> 60 10<40 80>
VStem: 30 10<-30 40 50 60 70 130>
LayerCount: 2
Fore
SplineSet
80 40 m 1
 40 40 l 1
 40 -30 l 1
 30 -30 l 1
 30 130 l 1
 40 130 l 1
 40 70 l 1
 80 70 l 1
 80 60 l 1
 40 60 l 1
 40 50 l 1
 80 50 l 1
 80 40 l 1
EndSplineSet
Validated: 1
EndChar

StartChar: SF370000
Encoding: 9567 9567 220
Width: 80
Flags: W
HStem: -30 21G<20 30 40 50> 50 10<50 80>
VStem: 20 10<-30 130> 40 10<-30 50 60 130>
LayerCount: 2
Fore
SplineSet
80 50 m 1
 50 50 l 1
 50 -30 l 1
 40 -30 l 1
 40 130 l 1
 50 130 l 1
 50 60 l 1
 80 60 l 1
 80 50 l 1
30 -30 m 1
 20 -30 l 1
 20 130 l 1
 30 130 l 1
 30 -30 l 1
EndSplineSet
Validated: 1
EndChar

StartChar: SF420000
Encoding: 9568 9568 221
Width: 80
Flags: W
HStem: -30 21G<20 30 40 50> 40 10<50 80> 60 10<50 80>
VStem: 20 10<-30 130> 40 10<-30 40 70 130>
LayerCount: 2
Fore
SplineSet
30 -30 m 1
 20 -30 l 1
 20 130 l 1
 30 130 l 1
 30 -30 l 1
80 40 m 1
 50 40 l 1
 50 -30 l 1
 40 -30 l 1
 40 50 l 1
 80 50 l 1
 80 40 l 1
80 60 m 1
 40 60 l 1
 40 130 l 1
 50 130 l 1
 50 70 l 1
 80 70 l 1
 80 60 l 1
EndSplineSet
Validated: 1
EndChar

StartChar: SF190000
Encoding: 9569 9569 222
Width: 80
Flags: W
HStem: -30 21G<30 40> 40 10<0 30> 60 10<0 30>
VStem: 30 10<-30 40 50 60 70 130>
LayerCount: 2
Fore
SplineSet
40 -30 m 1
 30 -30 l 1
 30 40 l 1
 -0 40 l 1
 -0 50 l 1
 30 50 l 1
 30 60 l 1
 -0 60 l 1
 -0 70 l 1
 30 70 l 1
 30 130 l 1
 40 130 l 1
 40 -30 l 1
EndSplineSet
Validated: 1
EndChar

StartChar: SF200000
Encoding: 9570 9570 223
Width: 80
Flags: W
HStem: -30 21G<20 30 40 50> 50 10<0 20>
VStem: 20 10<-30 50 60 130> 40 10<-30 130>
LayerCount: 2
Fore
SplineSet
30 -30 m 1
 20 -30 l 1
 20 50 l 1
 -0 50 l 1
 -0 60 l 1
 20 60 l 1
 20 130 l 1
 30 130 l 1
 30 -30 l 1
50 -30 m 1
 40 -30 l 1
 40 130 l 1
 50 130 l 1
 50 -30 l 1
EndSplineSet
Validated: 1
EndChar

StartChar: SF230000
Encoding: 9571 9571 224
Width: 80
Flags: W
HStem: -30 21G<20 30 40 50> 40 10<0 20> 60 10<0 20>
VStem: 0 30<40 50 60 70> 20 10<-30 40 70 130> 40 10<-30 130>
LayerCount: 2
Fore
SplineSet
50 -30 m 1xe4
 40 -30 l 1
 40 130 l 1
 50 130 l 1
 50 -30 l 1xe4
30 -30 m 1xec
 20 -30 l 1
 20 40 l 1xec
 0 40 l 1
 0 50 l 1
 30 50 l 1xf4
 30 -30 l 1xec
30 60 m 1xf4
 0 60 l 1
 0 70 l 1xf4
 20 70 l 1
 20 130 l 1
 30 130 l 1xec
 30 60 l 1xf4
EndSplineSet
Validated: 1
EndChar

StartChar: SF470000
Encoding: 9572 9572 225
Width: 80
Flags: W
HStem: -30 21G<30 40> 40 10<0 30 40 80> 60 10<0 80>
VStem: 30 10<-30 40>
LayerCount: 2
Fore
SplineSet
80 40 m 1
 40 40 l 1
 40 -30 l 1
 30 -30 l 1
 30 40 l 1
 0 40 l 1
 0 50 l 1
 80 50 l 1
 80 40 l 1
80 60 m 1
 0 60 l 1
 0 70 l 1
 80 70 l 1
 80 60 l 1
EndSplineSet
Validated: 1
EndChar

StartChar: SF480000
Encoding: 9573 9573 226
Width: 80
Flags: W
HStem: -30 21G<20 30 40 50> 50 10<0 20 30 40 50 80>
VStem: 20 10<-30 50> 40 10<-30 50>
LayerCount: 2
Fore
SplineSet
80 50 m 1
 50 50 l 1
 50 -30 l 1
 40 -30 l 1
 40 50 l 1
 30 50 l 1
 30 -30 l 1
 20 -30 l 1
 20 50 l 1
 0 50 l 1
 0 60 l 1
 80 60 l 1
 80 50 l 1
EndSplineSet
Validated: 1
EndChar

StartChar: SF410000
Encoding: 9574 9574 227
Width: 80
Flags: W
HStem: -30 21G<20 30 40 50> 40 10<0 20 50 80> 60 10<0 80>
VStem: 20 10<-30 40> 40 10<-30 40>
LayerCount: 2
Fore
SplineSet
30 -30 m 1
 20 -30 l 1
 20 40 l 1
 0 40 l 1
 0 50 l 1
 30 50 l 1
 30 -30 l 1
80 40 m 1
 50 40 l 1
 50 -30 l 1
 40 -30 l 1
 40 50 l 1
 80 50 l 1
 80 40 l 1
80 60 m 1
 0 60 l 1
 0 70 l 1
 80 70 l 1
 80 60 l 1
EndSplineSet
Validated: 1
EndChar

StartChar: SF450000
Encoding: 9575 9575 228
Width: 80
Flags: W
HStem: 40 10<0 80> 60 10<0 30 40 80>
VStem: 30 10<70 130>
LayerCount: 2
Fore
SplineSet
80 60 m 1
 0 60 l 1
 0 70 l 1
 30 70 l 1
 30 130 l 1
 40 130 l 1
 40 70 l 1
 80 70 l 1
 80 60 l 1
80 40 m 1
 0 40 l 1
 0 50 l 1
 80 50 l 1
 80 40 l 1
EndSplineSet
Validated: 1
EndChar

StartChar: SF460000
Encoding: 9576 9576 229
Width: 80
Flags: W
HStem: 50 10<0 20 30 40 50 80>
VStem: 20 10<60 130> 40 10<60 130>
LayerCount: 2
Fore
SplineSet
80 50 m 1
 0 50 l 1
 0 60 l 1
 20 60 l 1
 20 130 l 1
 30 130 l 1
 30 60 l 1
 40 60 l 1
 40 130 l 1
 50 130 l 1
 50 60 l 1
 80 60 l 1
 80 50 l 1
EndSplineSet
Validated: 1
EndChar

StartChar: SF400000
Encoding: 9577 9577 230
Width: 80
Flags: W
HStem: 40 10<0 80> 60 10<0 20 50 80>
VStem: 20 10<70 130> 40 10<70 130>
LayerCount: 2
Fore
SplineSet
30 60 m 1
 0 60 l 1
 0 70 l 1
 20 70 l 1
 20 130 l 1
 30 130 l 1
 30 60 l 1
80 40 m 1
 0 40 l 1
 0 50 l 1
 80 50 l 1
 80 40 l 1
80 60 m 1
 40 60 l 1
 40 130 l 1
 50 130 l 1
 50 70 l 1
 80 70 l 1
 80 60 l 1
EndSplineSet
Validated: 1
EndChar

StartChar: SF540000
Encoding: 9578 9578 231
Width: 80
Flags: W
HStem: -30 21G<30 40> 40 10<0 30 40 80> 60 10<0 30 40 80>
VStem: 30 10<-30 40 70 130>
LayerCount: 2
Fore
SplineSet
80 40 m 1
 40 40 l 1
 40 -30 l 1
 30 -30 l 1
 30 40 l 1
 0 40 l 1
 0 50 l 1
 80 50 l 1
 80 40 l 1
80 60 m 1
 0 60 l 1
 0 70 l 1
 30 70 l 1
 30 130 l 1
 40 130 l 1
 40 70 l 1
 80 70 l 1
 80 60 l 1
EndSplineSet
Validated: 1
EndChar

StartChar: SF530000
Encoding: 9579 9579 232
Width: 80
Flags: W
HStem: -30 21G<20 30 40 50> 50 10<0 20 50 80>
VStem: 20 10<-30 50 60 130> 40 10<-30 50 60 130>
LayerCount: 2
Fore
SplineSet
30 -30 m 1
 20 -30 l 1
 20 50 l 1
 0 50 l 1
 0 60 l 1
 20 60 l 1
 20 130 l 1
 30 130 l 1
 30 -30 l 1
80 50 m 1
 50 50 l 1
 50 -30 l 1
 40 -30 l 1
 40 130 l 1
 50 130 l 1
 50 60 l 1
 80 60 l 1
 80 50 l 1
EndSplineSet
Validated: 1
EndChar

StartChar: SF440000
Encoding: 9580 9580 233
Width: 80
Flags: W
HStem: -30 21G<20 30 40 50> 40 10<0 20 50 80> 60 10<0 20 50 80>
VStem: 0 30<40 50 60 70> 20 10<-30 40 70 130> 40 10<-30 40 70 130>
LayerCount: 2
Fore
SplineSet
30 -30 m 1xec
 20 -30 l 1
 20 40 l 1xec
 0 40 l 1
 0 50 l 1
 30 50 l 1xf4
 30 -30 l 1xec
80 40 m 1
 50 40 l 1
 50 -30 l 1
 40 -30 l 1
 40 50 l 1
 80 50 l 1
 80 40 l 1
30 60 m 1xf4
 0 60 l 1
 0 70 l 1xf4
 20 70 l 1
 20 130 l 1
 30 130 l 1xec
 30 60 l 1xf4
80 60 m 1
 40 60 l 1
 40 130 l 1
 50 130 l 1
 50 70 l 1
 80 70 l 1
 80 60 l 1
EndSplineSet
Validated: 1
EndChar

StartChar: uni256D
Encoding: 9581 9581 234
Width: 80
Flags: W
HStem: -30 21G<30 40> 20 10<40 50> 30 10<50 60> 40 10<60 70> 50 10<70 80>
VStem: 30 10<-30 20> 40 10<20 30> 50 10<30 40> 60 10<40 50> 70 10<50 60>
LayerCount: 2
Fore
SplineSet
70 60 m 25x8840
 80 60 l 25
 80 50 l 25x8840
 70 50 l 25x9080
 70 60 l 25x8840
40 -30 m 1xc4
 30 -30 l 1
 30 20 l 1
 40 20 l 1
 40 -30 l 1xc4
50 20 m 1xc2
 40 20 l 1xc4
 40 30 l 1
 50 30 l 1
 50 20 l 1xc2
70 40 m 1x9080
 60 40 l 1xa1
 60 50 l 1
 70 50 l 1
 70 40 l 1x9080
60 30 m 1
 50 30 l 1xc2
 50 40 l 1
 60 40 l 1
 60 30 l 1
EndSplineSet
Validated: 5
EndChar

StartChar: uni256E
Encoding: 9582 9582 235
Width: 80
Flags: W
HStem: -30 21G<30 40> 30 10<20 30> 40 10<10 20> 50 10<0 10>
VStem: 0 10<50 60> 10 10<40 50> 20 10<30 40> 30 10<-30 30>
LayerCount: 2
Fore
SplineSet
40 -30 m 1xc1
 30 -30 l 1xc1
 30 30 l 1
 20 30 l 1xc2
 20 40 l 1xc4
 10 40 l 1xa4
 10 50 l 1xa8
 0 50 l 1
 0 60 l 1
 10 60 l 1x98
 10 50 l 1xa8
 20 50 l 1xa4
 20 40 l 1xc4
 30 40 l 1
 30 30 l 1xc2
 40 30 l 1
 40 -30 l 1xc1
EndSplineSet
Validated: 5
EndChar

StartChar: uni256F
Encoding: 9583 9583 236
Width: 80
Flags: W
HStem: 60 10<0 10> 70 10<10 20> 80 10<20 30> 90 21G<30 40>
VStem: 0 10<60 70> 10 10<70 80> 20 10<80 90> 30 10<90 130>
LayerCount: 2
Fore
SplineSet
40 90 m 1x11
 30 90 l 1x22
 30 130 l 1
 40 130 l 1
 40 90 l 1x11
10 60 m 1x88
 0 60 l 1
 0 70 l 1
 10 70 l 1
 10 60 l 1x88
30 80 m 1x22
 20 80 l 1x44
 20 90 l 1
 30 90 l 1
 30 80 l 1x22
20 70 m 1
 10 70 l 1x88
 10 80 l 1
 20 80 l 1
 20 70 l 1
EndSplineSet
Validated: 5
EndChar

StartChar: uni2570
Encoding: 9584 9584 237
Width: 80
Flags: W
HStem: 50 10<70 80> 60 10<60 70> 70 10<50 60> 80 10<40 50>
VStem: 30 10<90 130> 40 10<80 90> 50 10<70 80> 60 10<60 70> 70 10<50 60>
LayerCount: 2
Fore
SplineSet
70 50 m 25x8080
 70 60 l 25x81
 80 60 l 25
 80 50 l 25
 70 50 l 25x8080
70 60 m 1
 60 60 l 1x41
 60 70 l 1x42
 50 70 l 1x22
 50 80 l 1x24
 40 80 l 1x14
 40 90 l 1
 30 90 l 1
 30 130 l 1
 40 130 l 1
 40 90 l 1x18
 50 90 l 1x14
 50 80 l 1x24
 60 80 l 1x22
 60 70 l 1x42
 70 70 l 1x41
 70 60 l 1
EndSplineSet
Validated: 5
EndChar

StartChar: uni2571
Encoding: 9585 9585 238
Width: 80
Flags: W
HStem: -30 21G<0 10> 10 20<10 20> 20 20<20 30> 30 20<30 40> 40 20<40 50> 50 20<50 60> 60 20<60 70>
VStem: 0 20<10 20> 0 10<-30 10> 10 20<20 30> 20 20<30 40> 30 20<40 50> 40 20<50 60> 50 20<60 70> 60 20<70 80> 70 10<80 130>
LayerCount: 2
Fore
SplineSet
80 70 m 1x8402
 70 70 l 1x8404
 70 60 l 1x8204
 60 60 l 1x8208
 60 50 l 1x8408
 50 50 l 1x8410
 50 40 l 1x8810
 40 40 l 1x8820
 40 30 l 1x9020
 30 30 l 1x9040
 30 20 l 1xa040
 20 20 l 1xa1
 20 10 l 1xc1
 10 10 l 1
 10 -30 l 1
 0 -30 l 1xc080
 0 20 l 1xa1
 10 20 l 1xa040
 10 30 l 1xc040
 20 30 l 1xc020
 20 40 l 1xa020
 30 40 l 1xa010
 30 50 l 1x9010
 40 50 l 1x9008
 40 60 l 1x8808
 50 60 l 1x8804
 50 70 l 1x8404
 60 70 l 1x8402
 60 80 l 1x8202
 70 80 l 1
 70 130 l 1
 80 130 l 1x8201
 80 70 l 1x8402
EndSplineSet
Validated: 1
EndChar

StartChar: uni2572
Encoding: 9586 9586 239
Width: 80
Flags: W
HStem: -30 21G<70 80> 10 20<60 70> 20 20<50 60> 30 20<40 50> 40 20<30 40> 50 20<20 30> 60 20<10 20>
VStem: 0 20<70 80> 0 10<80 130> 10 20<60 70> 20 20<50 60> 30 20<40 50> 40 20<30 40> 50 20<20 30> 60 20<10 20> 70 10<-30 10>
LayerCount: 2
Fore
SplineSet
80 -30 m 1xa001
 70 -30 l 1
 70 10 l 1xc001
 60 10 l 1xc002
 60 20 l 1xa002
 50 20 l 1xa004
 50 30 l 1x9004
 40 30 l 1x9008
 40 40 l 1x8808
 30 40 l 1x8810
 30 50 l 1x8410
 20 50 l 1x8420
 20 60 l 1x8220
 10 60 l 1x8240
 10 70 l 1x8440
 0 70 l 1x85
 0 130 l 1
 10 130 l 1
 10 80 l 1x8280
 20 80 l 1x83
 20 70 l 1x85
 30 70 l 1x8440
 30 60 l 1x8840
 40 60 l 1x8820
 40 50 l 1x9020
 50 50 l 1x9010
 50 40 l 1xa010
 60 40 l 1xa008
 60 30 l 1xc008
 70 30 l 1xc004
 70 20 l 1xa004
 80 20 l 1xa002
 80 -30 l 1xa001
EndSplineSet
Validated: 1
EndChar

StartChar: uni2573
Encoding: 9587 9587 240
Width: 80
Flags: W
HStem: -30 21G<0 10 70 80> 10 20<10 20 60 70> 20 20<20 30 50 60> 50 20<20 30 50 60> 60 20<10 20 60 70>
VStem: 0 20<10 20 70 80> 0 10<-30 10 80 130> 10 20<20 30 60 70> 50 20<20 30 60 70> 60 20<10 20 70 80> 70 10<-30 10 80 130>
LayerCount: 2
Fore
SplineSet
80 -30 m 1xa020
 70 -30 l 1
 70 10 l 1xc020
 60 10 l 1xc040
 60 20 l 1xa040
 50 20 l 1xa080
 50 30 l 1
 30 30 l 1xc180
 30 20 l 1xa180
 20 20 l 1xa4
 20 10 l 1xc4
 10 10 l 1
 10 -30 l 1
 0 -30 l 1xc2
 0 20 l 1xa4
 10 20 l 1xa1
 10 30 l 1xc1
 20 30 l 1xc4
 20 40 l 1xa4
 30 40 l 1
 30 50 l 1xb1
 20 50 l 1xb4
 20 60 l 1x8c
 10 60 l 1x89
 10 70 l 1x91
 0 70 l 1x94
 0 130 l 1
 10 130 l 1
 10 80 l 1x8a
 20 80 l 1x8c
 20 70 l 1x94
 30 70 l 1x91
 30 60 l 1
 50 60 l 1x8980
 50 70 l 1x9180
 60 70 l 1x9040
 60 80 l 1x8840
 70 80 l 1
 70 130 l 1
 80 130 l 1x8820
 80 70 l 1x9040
 70 70 l 1x9080
 70 60 l 1x8880
 60 60 l 1x8840
 60 50 l 1x9040
 50 50 l 1
 50 40 l 1xb080
 60 40 l 1xb040
 60 30 l 1xc040
 70 30 l 1xc080
 70 20 l 1xa080
 80 20 l 1xa040
 80 -30 l 1xa020
EndSplineSet
Validated: 1
EndChar

StartChar: uni2574
Encoding: 9588 9588 241
Width: 80
Flags: W
HStem: 40 30<30 50>
VStem: 30 20<40 50 60 70>
LayerCount: 2
Fore
SplineSet
50 40 m 1
 30 40 l 1
 30 50 l 1
 0 50 l 1
 0 60 l 1
 30 60 l 1
 30 70 l 1
 50 70 l 1
 50 40 l 1
EndSplineSet
Validated: 1
EndChar

StartChar: uni2575
Encoding: 9589 9589 242
Width: 80
Flags: W
HStem: 40.1641 20<20 30 40 50>
VStem: 20 30<40.1641 60.1641>
LayerCount: 2
Fore
SplineSet
50 40.1640625 m 1
 20 40.1640625 l 1
 20 60.1640625 l 1
 30 60.1640625 l 1
 30 130 l 1
 40 130 l 1
 40 60.1640625 l 1
 50 60.1640625 l 1
 50 40.1640625 l 1
EndSplineSet
Validated: 1
EndChar

StartChar: uni2576
Encoding: 9590 9590 243
Width: 80
Flags: W
HStem: 40 30<30 50>
VStem: 30 20<40 50 60 70>
LayerCount: 2
Fore
SplineSet
80 50 m 1
 50 50 l 1
 50 40 l 1
 30 40 l 1
 30 70 l 1
 50 70 l 1
 50 60 l 1
 80 60 l 1
 80 50 l 1
EndSplineSet
Validated: 1
EndChar

StartChar: uni2577
Encoding: 9591 9591 244
Width: 80
Flags: W
HStem: -30 21G<30 40> 40 20<20 30 40 50>
VStem: 20 30<40 60>
LayerCount: 2
Fore
SplineSet
50 40 m 1
 40 40 l 1
 40 -30 l 1
 30 -30 l 1
 30 40 l 1
 20 40 l 1
 20 60 l 1
 50 60 l 1
 50 40 l 1
EndSplineSet
Validated: 1
EndChar

StartChar: uni2578
Encoding: 9592 9592 245
Width: 80
Flags: W
HStem: 40 20<0 30> 50 20G<30 50>
VStem: 30 20<30 40 60 70>
LayerCount: 2
Fore
SplineSet
50 30 m 1x60
 30 30 l 1
 30 40 l 1
 0 40 l 1
 0 60 l 1
 30 60 l 1xa0
 30 70 l 1
 50 70 l 1
 50 30 l 1x60
EndSplineSet
Validated: 1
EndChar

StartChar: uni2579
Encoding: 9593 9593 246
Width: 80
Flags: W
HStem: 40 20<20 30 50 60>
VStem: 30 20<60 130>
LayerCount: 2
Fore
SplineSet
60 40 m 1
 20 40 l 1
 20 60 l 1
 30 60 l 1
 30 130 l 1
 50 130 l 1
 50 60 l 1
 60 60 l 1
 60 40 l 1
EndSplineSet
Validated: 1
EndChar

StartChar: uni257A
Encoding: 9594 9594 247
Width: 80
Flags: W
HStem: 40 20<50 80> 50 20G<30 50>
VStem: 30 20<30 40 60 70>
LayerCount: 2
Fore
SplineSet
80 40 m 1xa0
 50 40 l 1xa0
 50 30 l 1
 30 30 l 1
 30 70 l 1
 50 70 l 1x60
 50 60 l 1
 80 60 l 1
 80 40 l 1xa0
EndSplineSet
Validated: 1
EndChar

StartChar: uni257B
Encoding: 9595 9595 248
Width: 80
Flags: W
HStem: -30 21G<30 50> 40 20<20 30 50 60>
VStem: 30 20<-30 40>
LayerCount: 2
Fore
SplineSet
60 40 m 1
 50 40 l 1
 50 -30 l 1
 30 -30 l 1
 30 40 l 1
 20 40 l 1
 20 60 l 1
 60 60 l 1
 60 40 l 1
EndSplineSet
Validated: 1
EndChar

StartChar: uni257C
Encoding: 9596 9596 249
Width: 80
Flags: W
HStem: 40 20<40 80> 50 10<0 40>
LayerCount: 2
Fore
SplineSet
80 40 m 1x80
 40 40 l 1x80
 40 50 l 1
 0 50 l 1
 0 60 l 1x40
 80 60 l 1
 80 40 l 1x80
EndSplineSet
Validated: 1
EndChar

StartChar: uni257D
Encoding: 9597 9597 250
Width: 80
Flags: W
HStem: -30 21G<30 50>
VStem: 30 20<-30 60> 30 10<60 130>
LayerCount: 2
Fore
SplineSet
50 -30 m 1xc0
 30 -30 l 1xc0
 30 130 l 9
 40 130 l 25
 40 60 l 1xa0
 50 60 l 25
 50 -30 l 1xc0
EndSplineSet
Validated: 1
EndChar

StartChar: uni257E
Encoding: 9598 9598 251
Width: 80
Flags: W
HStem: 40 20<0 40> 50 10<40 80>
LayerCount: 2
Fore
SplineSet
80 50 m 1x40
 40 50 l 1x40
 40 40 l 1
 0 40 l 1
 0 60 l 1x80
 80 60 l 1
 80 50 l 1x40
EndSplineSet
Validated: 1
EndChar

StartChar: uni257F
Encoding: 9599 9599 252
Width: 80
Flags: W
LayerCount: 2
Fore
SplineSet
50 130 m 1
 30 130 l 1
 29 -30 l 1
 40 -30 l 25
 40 50 l 1
 50 50 l 1
 50 130 l 1
EndSplineSet
Validated: 9
EndChar

StartChar: upblock
Encoding: 9600 9600 253
Width: 80
Flags: W
HStem: 50 80<0 80>
VStem: 0 80<50 130>
LayerCount: 2
Fore
SplineSet
80 50 m 1
 0 50 l 1
 0 130 l 1
 80 130 l 1
 80 50 l 1
EndSplineSet
Validated: 1
EndChar

StartChar: uni2581
Encoding: 9601 9601 254
Width: 80
Flags: W
HStem: -30 20<0 80>
LayerCount: 2
Fore
SplineSet
80 -30 m 1
 0 -30 l 1
 0 -10 l 1
 80 -10 l 1
 80 -30 l 1
EndSplineSet
Validated: 1
EndChar

StartChar: uni2582
Encoding: 9602 9602 255
Width: 80
Flags: W
HStem: -30 40<0 80>
LayerCount: 2
Fore
SplineSet
80 -30 m 1
 0 -30 l 1
 0 10 l 1
 80 10 l 1
 80 -30 l 1
EndSplineSet
Validated: 1
EndChar

StartChar: uni2583
Encoding: 9603 9603 256
Width: 80
Flags: W
HStem: -30 60<0 80>
LayerCount: 2
Fore
SplineSet
0 30 m 1
 80 30 l 1
 80 -30 l 1
 0 -30 l 1
 0 30 l 1
EndSplineSet
Validated: 1
EndChar

StartChar: dnblock
Encoding: 9604 9604 257
Width: 80
Flags: W
HStem: -30 80<0 80>
VStem: 0 80<-30 50>
LayerCount: 2
Fore
SplineSet
80 -30 m 1
 0 -30 l 1
 0 50 l 1
 80 50 l 1
 80 -30 l 1
EndSplineSet
Validated: 1
EndChar

StartChar: uni2585
Encoding: 9605 9605 258
Width: 80
Flags: W
HStem: -30 21G<0 80> 50 20G<0 80>
VStem: 0 80<-30 70>
LayerCount: 2
Fore
SplineSet
80 -30 m 1
 0 -30 l 1
 0 70 l 1
 80 70 l 1
 80 -30 l 1
EndSplineSet
Validated: 1
EndChar

StartChar: uni2586
Encoding: 9606 9606 259
Width: 80
Flags: W
HStem: -30 21G<0 80> 70 20G<0 80>
VStem: 0 80<-30 90>
LayerCount: 2
Fore
SplineSet
80 -30 m 1
 0 -30 l 1
 0 90 l 1
 80 90 l 1
 80 -30 l 1
EndSplineSet
Validated: 1
EndChar

StartChar: uni2587
Encoding: 9607 9607 260
Width: 80
Flags: W
HStem: -30 21G<0 80>
VStem: 0 80<-30 110>
LayerCount: 2
Fore
SplineSet
80 -30 m 1
 0 -30 l 1
 0 110 l 1
 80 110 l 1
 80 -30 l 1
EndSplineSet
Validated: 1
EndChar

StartChar: block
Encoding: 9608 9608 261
Width: 80
Flags: W
HStem: -30 21G<0 80>
VStem: 0 80<-30 130>
LayerCount: 2
Fore
SplineSet
80 -30 m 1
 0 -30 l 1
 0 130 l 1
 80 130 l 1
 80 -30 l 1
EndSplineSet
Validated: 1
EndChar

StartChar: uni2589
Encoding: 9609 9609 262
Width: 80
Flags: W
HStem: -30 21G<0 70>
VStem: 0 70<-30 130>
LayerCount: 2
Fore
SplineSet
70 -30 m 1
 0 -30 l 1
 0 130 l 1
 70 130 l 1
 70 -30 l 1
EndSplineSet
Validated: 1
EndChar

StartChar: uni258A
Encoding: 9610 9610 263
Width: 80
Flags: W
HStem: -30 21G<0 60>
VStem: 0 60<-30 130>
LayerCount: 2
Fore
SplineSet
60 -30 m 1
 0 -30 l 1
 0 130 l 1
 60 130 l 1
 60 -30 l 1
EndSplineSet
Validated: 1
EndChar

StartChar: uni258B
Encoding: 9611 9611 264
Width: 80
Flags: W
HStem: -30 21G<0 50>
VStem: 0 50<-30 130>
LayerCount: 2
Fore
SplineSet
50 -30 m 1
 0 -30 l 1
 0 130 l 1
 50 130 l 1
 50 -30 l 1
EndSplineSet
Validated: 1
EndChar

StartChar: lfblock
Encoding: 9612 9612 265
Width: 80
Flags: W
HStem: -30 21G<0 40>
VStem: 0 40<-30 130>
LayerCount: 2
Fore
SplineSet
40 -30 m 1
 0 -30 l 1
 0 130 l 1
 40 130 l 1
 40 -30 l 1
EndSplineSet
Validated: 1
EndChar

StartChar: uni258D
Encoding: 9613 9613 266
Width: 80
Flags: W
HStem: -30 21G<0 30>
VStem: 0 30<-30 130>
LayerCount: 2
Fore
SplineSet
30 -30 m 1
 0 -30 l 1
 0 130 l 1
 30 130 l 1
 30 -30 l 1
EndSplineSet
Validated: 1
EndChar

StartChar: uni258E
Encoding: 9614 9614 267
Width: 80
Flags: W
HStem: -30 21G<0 20>
VStem: 0 20<-30 130>
LayerCount: 2
Fore
SplineSet
20 -30 m 1
 0 -30 l 1
 0 130 l 1
 20 130 l 1
 20 -30 l 1
EndSplineSet
Validated: 1
EndChar

StartChar: uni258F
Encoding: 9615 9615 268
Width: 80
Flags: W
HStem: -30 21G<0 10>
VStem: 0 10<-30 130>
LayerCount: 2
Fore
SplineSet
10 -30 m 1
 0 -30 l 1
 0 130 l 1
 10 130 l 1
 10 -30 l 1
EndSplineSet
Validated: 1
EndChar

StartChar: rtblock
Encoding: 9616 9616 269
Width: 80
Flags: W
HStem: -30 21G<0 40>
VStem: 0 40<-30 130>
LayerCount: 2
Fore
SplineSet
40 -30 m 1
 0 -30 l 1
 0 130 l 1
 40 130 l 1
 40 -30 l 1
EndSplineSet
Validated: 1
EndChar

StartChar: ltshade
Encoding: 9617 9617 270
Width: 80
Flags: W
HStem: -30 10<0 10 40 50> -20 10<20 30 60 70> -10 10<0 10 40 50> 0 10<20 30 60 70> 10 10<0 10 40 50> 20 10<20 30 60 70> 30 10<0 10 40 50> 40 10<20 30 60 70> 50 10<0 10 40 50> 60 10<20 30 60 70> 70 10<0 10 40 50> 80 10<20 30 60 70> 90 10<0 10 40 50> 100 10<20 30 60 70> 110 10<0 10 40 50> 120 10<60 70>
VStem: 0 10<-30 -20 -10 0 10 20 30 40 50 60 70 80 90 100 110 120> 20 10<-20 -10 0 10 20 30 40 50 60 70 80 90 100 110> 40 10<-30 -20 -10 0 10 20 30 40 50 60 70 80 90 100 110 120> 60 10<-20 -10 0 10 20 30 40 50 60 70 80 90 100 110 120 130>
LayerCount: 2
Fore
SplineSet
60 120 m 1x0001f0
 60 130 l 1
 70 130 l 1
 70 120 l 1
 60 120 l 1x0001f0
20 120 m 1
 30 120 l 1
 30 130 l 1
 20 130 l 1
 20 120 l 1
0 120 m 1x0002f0
 10 120 l 1
 10 110 l 1
 0 110 l 1
 0 120 l 1x0002f0
60 -10 m 1x4000f0
 70 -10 l 1
 70 -20 l 1
 60 -20 l 1
 60 -10 l 1x4000f0
40 -20 m 1x8000f0
 50 -20 l 1
 50 -30 l 1
 40 -30 l 1
 40 -20 l 1x8000f0
0 -20 m 1
 10 -20 l 1
 10 -30 l 1
 0 -30 l 1
 0 -20 l 1
20 -10 m 1x4000f0
 30 -10 l 1
 30 -20 l 1
 20 -20 l 1
 20 -10 l 1x4000f0
60 50 m 1x0100f0
 70 50 l 1
 70 40 l 1
 60 40 l 1
 60 50 l 1x0100f0
60 30 m 1x0400f0
 70 30 l 1
 70 20 l 1
 60 20 l 1
 60 30 l 1x0400f0
60 10 m 1x1000f0
 70 10 l 1
 70 0 l 1
 60 0 l 1
 60 10 l 1x1000f0
0 0 m 1x2000f0
 10 0 l 1
 10 -10 l 1
 0 -10 l 1
 0 0 l 1x2000f0
0 20 m 1x0800f0
 10 20 l 1
 10 10 l 1
 0 10 l 1
 0 20 l 1x0800f0
0 40 m 1x0200f0
 10 40 l 1
 10 30 l 1
 0 30 l 1
 0 40 l 1x0200f0
0 60 m 1x0080f0
 10 60 l 1
 10 50 l 1
 0 50 l 1
 0 60 l 1x0080f0
20 10 m 1x1000f0
 30 10 l 1
 30 0 l 1
 20 0 l 1
 20 10 l 1x1000f0
20 30 m 1x0400f0
 30 30 l 1
 30 20 l 1
 20 20 l 1
 20 30 l 1x0400f0
20 50 m 1x0100f0
 30 50 l 1
 30 40 l 1
 20 40 l 1
 20 50 l 1x0100f0
40 0 m 1x2000f0
 50 0 l 1
 50 -10 l 1
 40 -10 l 1
 40 0 l 1x2000f0
40 20 m 1x0800f0
 50 20 l 1
 50 10 l 1
 40 10 l 1
 40 20 l 1x0800f0
40 40 m 1x0200f0
 50 40 l 1
 50 30 l 1
 40 30 l 1
 40 40 l 1x0200f0
40 60 m 1x0080f0
 50 60 l 1
 50 50 l 1
 40 50 l 1
 40 60 l 1x0080f0
60 70 m 1x0040f0
 70 70 l 1
 70 60 l 1
 60 60 l 1
 60 70 l 1x0040f0
20 70 m 1
 30 70 l 1
 30 60 l 1
 20 60 l 1
 20 70 l 1
0 80 m 1x0020f0
 10 80 l 1
 10 70 l 1
 0 70 l 1
 0 80 l 1x0020f0
40 80 m 1
 50 80 l 1
 50 70 l 1
 40 70 l 1
 40 80 l 1
60 90 m 1x0010f0
 70 90 l 1
 70 80 l 1
 60 80 l 1
 60 90 l 1x0010f0
20 90 m 1
 30 90 l 1
 30 80 l 1
 20 80 l 1
 20 90 l 1
0 100 m 1x0008f0
 10 100 l 1
 10 90 l 1
 0 90 l 1
 0 100 l 1x0008f0
40 100 m 1
 50 100 l 1
 50 90 l 1
 40 90 l 1
 40 100 l 1
60 110 m 1x0004f0
 70 110 l 1
 70 100 l 1
 60 100 l 1
 60 110 l 1x0004f0
40 120 m 1x0002f0
 50 120 l 1
 50 110 l 1
 40 110 l 1
 40 120 l 1x0002f0
20 110 m 1x0004f0
 30 110 l 1
 30 100 l 1
 20 100 l 1
 20 110 l 1x0004f0
EndSplineSet
Validated: 9
EndChar

StartChar: shade
Encoding: 9618 9618 271
Width: 80
Flags: W
HStem: -30 10<0 10 20 30 40 50 60 70> -20 10<10 20 30 40 50 60 70 80> -10 10<0 10 20 30 40 50 60 70> 0 10<10 20 30 40 50 60 70 80> 10 10<0 10 20 30 40 50 60 70> 20 10<10 20 30 40 50 60 70 80> 30 10<0 10 20 30 40 50 60 70> 40 10<10 20 30 40 50 60 70 80> 50 10<0 10 20 30 40 50 60 70> 60 10<10 20 30 40 50 60 70 80> 70 10<0 10 20 30 40 50 60 70> 80 10<10 20 30 40 50 60 70 80> 90 10<0 10 20 30 40 50 60 70> 100 10<10 20 30 40 50 60 70 80> 110 10<0 10 20 30 40 50 60 70> 120 10<30 40 70 80>
VStem: 0 10<-30 -20 -10 0 10 20 30 40 50 60 70 80 90 100 110 120> 10 10<-20 -10 0 10 20 30 40 50 60 70 80 90 100 110> 20 10<-30 -20 -10 0 10 20 30 40 50 60 70 80 90 100 110 120> 30 10<-20 -10 0 10 20 30 40 50 60 70 80 90 100 110 120 130> 40 10<-30 -20 -10 0 10 20 30 40 50 60 70 80 90 100 110 120> 50 10<-20 -10 0 10 20 30 40 50 60 70 80 90 100 110> 60 10<-30 -20 -10 0 10 20 30 40 50 60 70 80 90 100 110 120> 70 10<-20 -10 0 10 20 30 40 50 60 70 80 90 100 110 120 130>
LayerCount: 2
Fore
SplineSet
70 130 m 1x000101
 80 130 l 1
 80 120 l 1x000101
 70 120 l 1x000202
 70 130 l 1x000101
50 120 m 1x000208
 60 120 l 1x00020a
 60 130 l 1x00010a
 50 130 l 1x000104
 50 120 l 1x000208
10 120 m 1x000280
 20 120 l 1x0002a0
 20 130 l 1x0001a0
 10 130 l 1x000140
 10 120 l 1x000280
30 130 m 1x000110
 40 130 l 1x000110
 40 120 l 1x000210
 30 120 l 1x000220
 30 130 l 1x000110
10 110 m 1x000480
 20 110 l 1x000440
 20 100 l 1x000840
 30 100 l 1x000820
 30 90 l 1x001020
 40 90 l 1x001010
 40 80 l 1x002010
 50 80 l 1x002008
 50 70 l 1x004008
 60 70 l 1x004004
 60 60 l 1x008004
 70 60 l 1x008002
 70 50 l 1x010002
 80 50 l 1
 80 40 l 1x010001
 70 40 l 1x020002
 70 50 l 1x010002
 60 50 l 1x010004
 60 60 l 1x008004
 50 60 l 1x008008
 50 70 l 1x004008
 40 70 l 1x004010
 40 80 l 1x002010
 30 80 l 1x002020
 30 90 l 1x001020
 20 90 l 1x001040
 20 100 l 1x000840
 10 100 l 1x000880
 10 110 l 1x000480
 0 110 l 1
 0 120 l 1
 10 120 l 1x000280
 10 110 l 1x000480
10 90 m 1x001080
 20 90 l 1x001040
 20 80 l 1x002040
 30 80 l 1x002020
 30 70 l 1x004020
 40 70 l 1x004010
 40 60 l 1x008010
 50 60 l 1x008008
 50 50 l 1x010008
 60 50 l 1x010004
 60 40 l 1x020004
 70 40 l 1x020002
 70 30 l 1x040002
 80 30 l 1
 80 20 l 1x040001
 70 20 l 1x080002
 70 30 l 1x040002
 60 30 l 1x040004
 60 40 l 1x020004
 50 40 l 1x020008
 50 50 l 1x010008
 40 50 l 1x010010
 40 60 l 1x008010
 30 60 l 1x008020
 30 70 l 1x004020
 20 70 l 1x004040
 20 80 l 1x002040
 10 80 l 1x002080
 10 90 l 1x001080
 0 90 l 1
 0 100 l 1
 10 100 l 1x000880
 10 90 l 1x001080
10 50 m 1x010080
 20 50 l 1x010040
 20 40 l 1x020040
 30 40 l 1x020020
 30 30 l 1x040020
 40 30 l 1x040010
 40 20 l 1x080010
 50 20 l 1x080008
 50 10 l 1x100008
 60 10 l 1x100004
 60 0 l 1x200004
 70 0 l 1x200002
 70 -10 l 1x400002
 80 -10 l 1
 80 -20 l 1x400001
 70 -20 l 1x800002
 70 -10 l 1x400002
 60 -10 l 1x400004
 60 0 l 1x200004
 50 0 l 1x200008
 50 10 l 1x100008
 40 10 l 1x100010
 40 20 l 1x080010
 30 20 l 1x080020
 30 30 l 1x040020
 20 30 l 1x040040
 20 40 l 1x020040
 10 40 l 1x020080
 10 50 l 1x010080
 0 50 l 1
 0 60 l 1
 10 60 l 1x008080
 10 50 l 1x010080
10 70 m 1x004080
 20 70 l 1x004040
 20 60 l 1x008040
 30 60 l 1x008020
 30 50 l 1x010020
 40 50 l 1x010010
 40 40 l 1x020010
 50 40 l 1x020008
 50 30 l 1x040008
 60 30 l 1x040004
 60 20 l 1x080004
 70 20 l 1x080002
 70 10 l 1x100002
 80 10 l 1
 80 0 l 1x100001
 70 0 l 1x200002
 70 10 l 1x100002
 60 10 l 1x100004
 60 20 l 1x080004
 50 20 l 1x080008
 50 30 l 1x040008
 40 30 l 1x040010
 40 40 l 1x020010
 30 40 l 1x020020
 30 50 l 1x010020
 20 50 l 1x010040
 20 60 l 1x008040
 10 60 l 1x008080
 10 70 l 1x004080
 0 70 l 1
 0 80 l 1
 10 80 l 1x002080
 10 70 l 1x004080
10 30 m 1x040080
 20 30 l 1x040040
 20 20 l 1x080040
 30 20 l 1x080020
 30 10 l 1x100020
 40 10 l 1x100010
 40 0 l 1x200010
 50 0 l 1x200008
 50 -10 l 1x400008
 60 -10 l 1x400004
 60 -20 l 1x800004
 70 -20 l 1
 70 -30 l 1
 60 -30 l 1x800002
 60 -20 l 1x800004
 50 -20 l 1x800008
 50 -10 l 1x400008
 40 -10 l 1x400010
 40 0 l 1x200010
 30 0 l 1x200020
 30 10 l 1x100020
 20 10 l 1x100040
 20 20 l 1x080040
 10 20 l 1x080080
 10 30 l 1x040080
 0 30 l 1
 0 40 l 1
 10 40 l 1x020080
 10 30 l 1x040080
20 120 m 1x000220
 30 120 l 1x000220
 30 110 l 1x000420
 40 110 l 1x000410
 40 100 l 1x000810
 50 100 l 1x000808
 50 90 l 1x001008
 60 90 l 1x001004
 60 80 l 1x002004
 70 80 l 1x002002
 70 70 l 1x004002
 60 70 l 1x004004
 60 80 l 1x002004
 50 80 l 1x002008
 50 90 l 1x001008
 40 90 l 1x001010
 40 100 l 1x000810
 30 100 l 1x000820
 30 110 l 1x000420
 20 110 l 1x000440
 20 120 l 1x000220
10 10 m 1x100080
 20 10 l 1x100040
 20 0 l 1x200040
 30 0 l 1x200020
 30 -10 l 1x400020
 40 -10 l 1x400010
 40 -20 l 1x800010
 50 -20 l 1
 50 -30 l 1
 40 -30 l 1x800008
 40 -20 l 1x800010
 30 -20 l 1x800020
 30 -10 l 1x400020
 20 -10 l 1x400040
 20 0 l 1x200040
 10 0 l 1x200080
 10 10 l 1x100080
 0 10 l 1
 0 20 l 1
 10 20 l 1x080080
 10 10 l 1x100080
40 120 m 1x000210
 50 120 l 1x000208
 50 110 l 1x000408
 60 110 l 1x000404
 60 100 l 1x000804
 70 100 l 1x000802
 70 90 l 1x001002
 60 90 l 1x001004
 60 100 l 1x000804
 50 100 l 1x000808
 50 110 l 1x000408
 40 110 l 1x000410
 40 120 l 1x000210
10 -10 m 1x400080
 20 -10 l 1x400040
 20 -20 l 1x800040
 30 -20 l 1
 30 -30 l 1
 20 -30 l 1x800020
 20 -20 l 1x800040
 10 -20 l 1x800080
 10 -10 l 1x400080
 0 -10 l 1
 0 0 l 1
 10 0 l 1x200080
 10 -10 l 1x400080
60 120 m 1x000202
 70 120 l 1x000202
 70 110 l 1x000402
 60 110 l 1x000404
 60 120 l 1x000202
0 -20 m 1x800080
 10 -20 l 1
 10 -30 l 1
 0 -30 l 1
 0 -20 l 1x800080
70 110 m 1x000402
 80 110 l 1
 80 100 l 1x000401
 70 100 l 1x000802
 70 110 l 1x000402
70 90 m 1x001002
 80 90 l 1
 80 80 l 1x001001
 70 80 l 1x002002
 70 90 l 1x001002
70 70 m 1x004002
 80 70 l 1
 80 60 l 1x004001
 70 60 l 1x008002
 70 70 l 1x004002
EndSplineSet
Validated: 5
EndChar

StartChar: dkshade
Encoding: 9619 9619 272
Width: 80
Flags: W
HStem: -30 10<20 30 60 70> -20 10<0 10 40 50> -10 10<20 30 60 70> 0 10<0 10 40 50> 10 10<20 30 60 70> 20 10<0 10 40 50> 30 10<20 30 60 70> 40 10<0 10 40 50> 50 10<20 30 60 70> 60 10<0 10 40 50> 70 10<20 30 60 70> 80 10<0 10 40 50> 90 10<20 30 60 70> 100 10<0 10 40 50> 110 10<20 30 60 70> 120 10<0 10 40 50>
VStem: 0 20<-20 -10 0 10 20 30 40 50 60 70 80 90 100 110 120 130> 10 30<-30 -20 -10 0 10 20 30 40 50 60 70 80 90 100 110 120> 30 30<-20 -10 0 10 20 30 40 50 60 70 80 90 100 110 120 130> 50 30<-30 -20 -10 0 10 20 30 40 50 60 70 80 90 100 110 120> 70 10<-20 -10 0 10 20 30 40 50 60 70 80 90 100 110 120 130>
LayerCount: 2
Fore
SplineSet
50 110 m 1x000550
 50 120 l 1
 40 120 l 1
 40 110 l 1
 50 110 l 1x000550
70 130 m 1x0001a8
 80 130 l 1x0001a8
 80 -30 l 1
 50 -30 l 1x800110
 50 -20 l 1
 40 -20 l 1x400050
 40 -30 l 1
 10 -30 l 1x800050
 10 -20 l 1x400050
 0 -20 l 1
 0 -10 l 1x400080
 10 -10 l 1
 10 0 l 1x500040
 0 0 l 1
 0 10 l 1x500080
 10 10 l 1
 10 20 l 1x540040
 0 20 l 1
 0 30 l 1x540080
 10 30 l 1
 10 40 l 1x550040
 0 40 l 1
 0 50 l 1x550080
 10 50 l 1
 10 60 l 1x554040
 0 60 l 1
 0 70 l 1x554080
 10 70 l 1
 10 80 l 1x555040
 0 80 l 1
 0 90 l 1x555080
 10 90 l 1
 10 100 l 1x555440
 0 100 l 1
 0 110 l 1x555480
 10 110 l 1
 10 120 l 1x555540
 0 120 l 1
 0 130 l 1
 19 130 l 1
 19 120 l 1x555580
 30 120 l 1x0002a0
 30 130 l 1
 60 130 l 1x0001a0
 60 120 l 1
 70 120 l 1x0002a8
 70 130 l 1x0001a8
30 -20 m 1xa000a0
 30 -10 l 1
 20 -10 l 1
 20 -20 l 1
 30 -20 l 1xa000a0
30 0 m 1
 30 10 l 1
 20 10 l 1x2800a0
 20 0 l 1
 30 0 l 1
50 -10 m 1x500050
 50 0 l 1
 40 0 l 1
 40 -10 l 1
 50 -10 l 1x500050
70 -20 m 1xa00028
 70 -10 l 1
 60 -10 l 1
 60 -20 l 1
 70 -20 l 1xa00028
30 20 m 1x0a00a0
 30 30 l 1
 20 30 l 1
 20 20 l 1
 30 20 l 1x0a00a0
50 10 m 1x140050
 50 20 l 1
 40 20 l 1
 40 10 l 1
 50 10 l 1x140050
70 0 m 1x280028
 70 10 l 1
 60 10 l 1
 60 0 l 1
 70 0 l 1x280028
30 40 m 1x0280a0
 30 50 l 1
 20 50 l 1
 20 40 l 1
 30 40 l 1x0280a0
50 30 m 1x050050
 50 40 l 1
 40 40 l 1
 40 30 l 1
 50 30 l 1x050050
70 20 m 1x0a0028
 70 30 l 1
 60 30 l 1
 60 20 l 1
 70 20 l 1x0a0028
30 60 m 1x00a0a0
 30 70 l 1
 20 70 l 1
 20 60 l 1
 30 60 l 1x00a0a0
50 50 m 1x014050
 50 60 l 1
 40 60 l 1
 40 50 l 1
 50 50 l 1x014050
70 40 m 1x028028
 70 50 l 1
 60 50 l 1
 60 40 l 1
 70 40 l 1x028028
30 80 m 1x0028a0
 30 90 l 1
 20 90 l 1
 20 80 l 1
 30 80 l 1x0028a0
50 70 m 1x005050
 50 80 l 1
 40 80 l 1
 40 70 l 1
 50 70 l 1x005050
70 60 m 1x00a028
 70 70 l 1
 60 70 l 1
 60 60 l 1
 70 60 l 1x00a028
30 100 m 1x000aa0
 30 110 l 1
 20 110 l 1
 20 100 l 1
 30 100 l 1x000aa0
50 90 m 1x001450
 50 100 l 1
 40 100 l 1
 40 90 l 1
 50 90 l 1x001450
70 80 m 1x002828
 70 90 l 1
 60 90 l 1
 60 80 l 1
 70 80 l 1x002828
70 100 m 1
 70 110 l 1
 60 110 l 1x000a28
 60 100 l 1
 70 100 l 1
EndSplineSet
Validated: 1
EndChar

StartChar: uni2594
Encoding: 9620 9620 273
Width: 80
Flags: W
HStem: 100 30<0 80>
LayerCount: 2
Fore
SplineSet
80 100 m 1
 0 100 l 1
 0 130 l 1
 80 130 l 1
 80 100 l 1
EndSplineSet
Validated: 1
EndChar

StartChar: uni2595
Encoding: 9621 9621 274
Width: 80
Flags: W
HStem: -30 21G<0 10>
VStem: 0 10<-30 130>
LayerCount: 2
Fore
SplineSet
10 -30 m 1
 0 -30 l 1
 0 130 l 1
 10 130 l 1
 10 -30 l 1
EndSplineSet
Validated: 1
EndChar

StartChar: uni2596
Encoding: 9622 9622 275
Width: 80
Flags: W
HStem: -30 21G<0 40>
VStem: 0 40<-30 50>
LayerCount: 2
Fore
SplineSet
40 -30 m 1
 0 -30 l 1
 0 50 l 1
 40 50 l 1
 40 -30 l 1
EndSplineSet
Validated: 1
EndChar

StartChar: uni2597
Encoding: 9623 9623 276
Width: 80
Flags: W
HStem: -30 21G<0 40>
VStem: 0 40<-30 50>
LayerCount: 2
Fore
SplineSet
40 -30 m 1
 0 -30 l 1
 0 50 l 1
 40 50 l 1
 40 -30 l 1
EndSplineSet
Validated: 1
EndChar

StartChar: uni2598
Encoding: 9624 9624 277
Width: 80
Flags: W
VStem: 0 40<50 130>
LayerCount: 2
Fore
SplineSet
40 50 m 1
 0 50 l 1
 0 130 l 1
 40 130 l 1
 40 50 l 1
EndSplineSet
Validated: 1
EndChar

StartChar: uni2599
Encoding: 9625 9625 278
Width: 80
Flags: W
HStem: -30 21G<0 80>
VStem: 0 80<-30 50> 0 40<50 130>
LayerCount: 2
Fore
SplineSet
80 -30 m 1xc0
 0 -30 l 1xc0
 0 130 l 1
 40 130 l 1
 40 50 l 1xa0
 80 50 l 1
 80 -30 l 1xc0
EndSplineSet
Validated: 1
EndChar

StartChar: uni259A
Encoding: 9626 9626 279
Width: 80
Flags: W
HStem: -30 21G<40 80>
VStem: 0 40<50 130> 40 40<-30 50>
LayerCount: 2
Fore
SplineSet
80 -30 m 1xa0
 40 -30 l 1xa0
 40 50 l 1
 0 50 l 1
 0 130 l 1
 40 130 l 1
 40 50 l 1xc0
 80 50 l 1
 80 -30 l 1xa0
EndSplineSet
Validated: 5
EndChar

StartChar: uni259B
Encoding: 9627 9627 280
Width: 80
Flags: W
HStem: -30 21G<0 40>
VStem: 0 80<50 130> 0 40<-30 50>
LayerCount: 2
Fore
SplineSet
80 50 m 1xc0
 40 50 l 1
 40 -30 l 1
 0 -30 l 1xa0
 0 130 l 1
 80 130 l 1
 80 50 l 1xc0
EndSplineSet
Validated: 1
EndChar

StartChar: uni259C
Encoding: 9628 9628 281
Width: 80
Flags: W
HStem: -30 21G<40 80>
VStem: 0 80<50 130> 40 40<-30 50>
LayerCount: 2
Fore
SplineSet
80 -30 m 1xa0
 40 -30 l 1
 40 50 l 1xa0
 0 50 l 1
 0 130 l 1
 80 130 l 1xc0
 80 -30 l 1xa0
EndSplineSet
Validated: 1
EndChar

StartChar: uni259D
Encoding: 9629 9629 282
Width: 80
Flags: W
VStem: 0 40<50 130>
LayerCount: 2
Fore
SplineSet
40 50 m 1
 0 50 l 1
 0 130 l 1
 40 130 l 1
 40 50 l 1
EndSplineSet
Validated: 1
EndChar

StartChar: uni259E
Encoding: 9630 9630 283
Width: 80
Flags: W
HStem: -30 21G<0 40>
VStem: 0 40<-30 50> 40 40<50 130>
LayerCount: 2
Fore
SplineSet
40 -30 m 1xc0
 0 -30 l 1
 0 50 l 1
 40 50 l 1
 40 -30 l 1xc0
80 50 m 1xa0
 40 50 l 1xc0
 40 130 l 1
 80 130 l 1
 80 50 l 1xa0
EndSplineSet
Validated: 5
EndChar

StartChar: uni259F
Encoding: 9631 9631 284
Width: 80
Flags: W
HStem: -30 21G<0 80>
VStem: 0 80<-30 50> 40 40<50 130>
LayerCount: 2
Fore
SplineSet
80 -30 m 1xc0
 0 -30 l 1
 0 50 l 1xc0
 40 50 l 1
 40 130 l 1
 80 130 l 1xa0
 80 -30 l 1xc0
EndSplineSet
Validated: 1
EndChar

StartChar: uniE201
Encoding: 57857 57857 287
Width: 80
Flags: HW
HStem: 0 20<20 40> 50 30<10 20 40 50> 70 20G<20 40>
VStem: 10 40<50 80> 20 20<0 20 30 50 80 90>
LayerCount: 2
Fore
SplineSet
0 130 m 1
 40 130 l 1
 40 80 l 1
 0 80 l 1
 0 130 l 1
EndSplineSet
Validated: 1
EndChar

StartChar: uniE202
Encoding: 57858 57858 288
Width: 80
Flags: HW
HStem: 0 20<20 40> 50 30<10 20 40 50> 70 20G<20 40>
VStem: 10 40<50 80> 20 20<0 20 30 50 80 90>
LayerCount: 2
Fore
SplineSet
40 130 m 25
 80 130 l 25
 80 80 l 25
 40 80 l 25
 40 130 l 25
EndSplineSet
Validated: 1
EndChar

StartChar: uniE203
Encoding: 57859 57859 289
Width: 80
Flags: HW
HStem: 0 20<20 40> 50 30<10 20 40 50> 70 20G<20 40>
VStem: 10 40<50 80> 20 20<0 20 30 50 80 90>
LayerCount: 2
Fore
SplineSet
0 130 m 29
 80 130 l 25
 80 80 l 25
 0 80 l 25
 0 130 l 29
EndSplineSet
Validated: 1
EndChar

StartChar: uniE204
Encoding: 57860 57860 290
Width: 80
Flags: HW
HStem: 0 20<20 40> 50 30<10 20 40 50> 70 20G<20 40>
VStem: 10 40<50 80> 20 20<0 20 30 50 80 90>
LayerCount: 2
Fore
SplineSet
0 80 m 29
 40 80 l 25
 40 20 l 25
 0 20 l 25
 0 80 l 29
EndSplineSet
Validated: 1
EndChar

StartChar: uniE205
Encoding: 57861 57861 291
Width: 80
Flags: HW
HStem: 0 20<20 40> 50 30<10 20 40 50> 70 20G<20 40>
VStem: 10 40<50 80> 20 20<0 20 30 50 80 90>
LayerCount: 2
Fore
SplineSet
0 130 m 29
 40 130 l 25
 40 20 l 25
 0 20 l 25
 0 130 l 29
EndSplineSet
Validated: 1
EndChar

StartChar: uniE206
Encoding: 57862 57862 292
Width: 80
VWidth: 0
Flags: H
LayerCount: 2
Fore
SplineSet
0 80 m 29
 40 80 l 25
 40 20 l 25
 0 20 l 25
 0 80 l 29
40 130 m 25
 80 130 l 25
 80 80 l 25
 40 80 l 25
 40 130 l 25
EndSplineSet
Validated: 5
EndChar

StartChar: uniE207
Encoding: 57863 57863 293
Width: 80
VWidth: 0
Flags: H
LayerCount: 2
Fore
SplineSet
0 130 m 29
 80 130 l 25
 80 80 l 25
 40 80 l 25
 40 20 l 25
 0 20 l 25
 0 130 l 29
EndSplineSet
Validated: 1
EndChar

StartChar: uniE208
Encoding: 57864 57864 294
Width: 80
VWidth: 0
Flags: H
LayerCount: 2
Fore
SplineSet
40 80 m 29
 80 80 l 25
 80 20 l 25
 40 20 l 25
 40 80 l 29
EndSplineSet
Validated: 1
EndChar

StartChar: uniE209
Encoding: 57865 57865 295
Width: 80
VWidth: 0
Flags: H
LayerCount: 2
Fore
SplineSet
40 80 m 29
 80 80 l 25
 80 20 l 25
 40 20 l 25
 40 80 l 29
0 130 m 25
 40 130 l 25
 40 80 l 25
 0 80 l 25
 0 130 l 25
EndSplineSet
Validated: 5
EndChar

StartChar: uniE20A
Encoding: 57866 57866 296
Width: 80
VWidth: 0
Flags: H
LayerCount: 2
Fore
SplineSet
40 130 m 29
 80 130 l 25
 80 20 l 25
 40 20 l 25
 40 130 l 29
EndSplineSet
Validated: 1
EndChar

StartChar: uniE20B
Encoding: 57867 57867 297
Width: 80
VWidth: 0
Flags: H
LayerCount: 2
Fore
SplineSet
40 20 m 1
 80 20 l 25
 80 130 l 25
 0 130 l 25
 0 80 l 1
 40 80 l 25
 40 20 l 1
EndSplineSet
Validated: 9
EndChar

StartChar: uniE20C
Encoding: 57868 57868 298
Width: 80
VWidth: 0
Flags: H
LayerCount: 2
Fore
SplineSet
0 80.0624796549 m 29
 80 80.0624796549 l 25
 80 20.0624796549 l 25
 0 20.0624796549 l 25
 0 80.0624796549 l 29
EndSplineSet
Validated: 1
EndChar

StartChar: uniE20D
Encoding: 57869 57869 299
Width: 80
VWidth: 0
Flags: HW
LayerCount: 2
Fore
SplineSet
80 80.0624796549 m 1
 80 20.0624796549 l 25
 0 20.0624796549 l 25
 0 130 l 25
 39.9998550415 130 l 1
 40 80.0625 l 25
 80 80.0624796549 l 1
EndSplineSet
Validated: 1
EndChar

StartChar: uniE20E
Encoding: 57870 57870 300
Width: 80
VWidth: 0
Flags: H
LayerCount: 2
Fore
SplineSet
0 80.0624796549 m 29
 40 80.0624796549 l 25
 39.9998550415 130 l 25
 80 130 l 25
 80 20.0624796549 l 25
 0 20.0624796549 l 25
 0 80.0624796549 l 29
EndSplineSet
Validated: 1
EndChar

StartChar: uniE20F
Encoding: 57871 57871 301
Width: 80
VWidth: 0
Flags: H
LayerCount: 2
Fore
SplineSet
0 130 m 1
 80 130 l 25
 80 20.0624796549 l 1
 0 20.0624796549 l 25
 0 130 l 1
EndSplineSet
Validated: 1
EndChar

StartChar: uniE210
Encoding: 57872 57872 302
Width: 80
VWidth: 0
Flags: H
LayerCount: 2
Fore
SplineSet
0 20.0624796549 m 25
 40 20.0624796549 l 1
 40 -30 l 25
 0 -30 l 1
 0 20.0624796549 l 25
EndSplineSet
Validated: 1
EndChar

StartChar: uniE211
Encoding: 57873 57873 303
Width: 80
VWidth: 0
Flags: H
LayerCount: 2
Fore
SplineSet
0 130 m 29
 39.9998550415 130 l 25
 40 80.0624796549 l 25
 0 80.0624796549 l 25
 0 130 l 29
0 -30 m 25
 39.9998550415 -30 l 25
 40 20.0624796549 l 25
 0 20.0624796549 l 25
 0 -30 l 25
EndSplineSet
Validated: 9
EndChar

StartChar: uniE212
Encoding: 57874 57874 304
Width: 80
VWidth: 0
Flags: H
LayerCount: 2
Fore
SplineSet
40 130 m 25
 80 130 l 1
 80 80.0624796549 l 25
 40 80.0624796549 l 1
 40 130 l 25
0 20.0624796549 m 25
 40 20.0624796549 l 25
 39.9998550415 -30 l 25
 0 -30 l 25
 0 20.0624796549 l 25
EndSplineSet
Validated: 1
EndChar

StartChar: uniE213
Encoding: 57875 57875 305
Width: 80
VWidth: 0
Flags: H
LayerCount: 2
Fore
SplineSet
0 -30 m 29
 0 20.0624796549 l 25
 40 20.0624796549 l 25
 39.9998550415 -30 l 25
 0 -30 l 29
0 130 m 25
 80 130 l 25
 80 80.0624796549 l 25
 0 80.0624796549 l 25
 0 130 l 25
EndSplineSet
Validated: 1
EndChar

StartChar: uniE214
Encoding: 57876 57876 306
Width: 80
VWidth: 0
Flags: H
LayerCount: 2
Fore
SplineSet
0 80.0624796549 m 29
 40 80.0624796549 l 25
 39.9998550415 -30 l 25
 0 -30 l 25
 0 80.0624796549 l 29
EndSplineSet
Validated: 1
EndChar

StartChar: uniE215
Encoding: 57877 57877 307
Width: 80
VWidth: 0
Flags: H
LayerCount: 2
Fore
SplineSet
0 130 m 29
 39.9998550415 130 l 25
 39.9998550415 -30 l 25
 0 -30 l 25
 0 130 l 29
EndSplineSet
Validated: 1
EndChar

StartChar: uniE216
Encoding: 57878 57878 308
Width: 80
VWidth: 0
Flags: H
LayerCount: 2
Fore
SplineSet
39.9998550415 130 m 1
 80 130 l 25
 80 80.0624796549 l 1
 40 80.0624796549 l 25
 39.9998550415 130 l 1
0 80.0624796549 m 25
 40 80.0624796549 l 25
 39.9998550415 -30 l 25
 0 -30 l 25
 0 80.0624796549 l 25
EndSplineSet
Validated: 5
EndChar

StartChar: uniE217
Encoding: 57879 57879 309
Width: 80
VWidth: 0
Flags: H
LayerCount: 2
Fore
SplineSet
0 130 m 29
 80 130 l 25
 80 80.0624796549 l 25
 40 80.0624796549 l 25
 39.9998550415 -30 l 25
 0 -30 l 25
 0 130 l 29
EndSplineSet
Validated: 1
EndChar

StartChar: uniE218
Encoding: 57880 57880 310
Width: 80
VWidth: 0
Flags: H
LayerCount: 2
Fore
SplineSet
39.9998550415 70 m 29
 80 70.0000203451 l 25
 80 20.0624796549 l 25
 40 20.0624796549 l 25
 39.9998550415 70 l 29
0 20.0624796549 m 25
 40 20.0624796549 l 25
 39.9998550415 -30 l 25
 0 -30 l 25
 0 20.0624796549 l 25
EndSplineSet
Validated: 5
EndChar

StartChar: uniE219
Encoding: 57881 57881 311
Width: 80
VWidth: 0
Flags: H
LayerCount: 2
Fore
SplineSet
0 80.0624796549 m 29
 0 130 l 25
 39.9998550415 130 l 25
 40 80.0624796549 l 25
 0 80.0624796549 l 29
40 80.0624796549 m 25
 80 80.0624796549 l 25
 80 20.0624796549 l 25
 40 20.0624796549 l 25
 40 80.0624796549 l 25
0 20.0624796549 m 25
 40 20.0624796549 l 25
 39.9998550415 -30 l 25
 0 -30 l 25
 0 20.0624796549 l 25
EndSplineSet
Validated: 5
EndChar

StartChar: uniE21A
Encoding: 57882 57882 312
Width: 80
VWidth: 0
Flags: H
LayerCount: 2
Fore
SplineSet
39.9998550415 130 m 29
 80 130 l 25
 80 20.0624796549 l 25
 40 20.0624796549 l 25
 39.9998550415 130 l 29
0 -30 m 1
 0 20.0624796549 l 25
 40 20.0624796549 l 1
 40 -30 l 25
 0 -30 l 1
EndSplineSet
Validated: 5
EndChar

StartChar: uniE21B
Encoding: 57883 57883 313
Width: 80
VWidth: 0
Flags: H
LayerCount: 2
Fore
SplineSet
0 20.0624796549 m 29
 40 20.0624796549 l 25
 39.9998550415 -30 l 25
 0 -30 l 25
 0 20.0624796549 l 29
0 130 m 25
 80 130 l 25
 80 20.0624796549 l 25
 40 20.0624796549 l 25
 40 80.0624796549 l 25
 0 80.0624796549 l 25
 0 130 l 25
EndSplineSet
Validated: 5
EndChar

StartChar: uniE21C
Encoding: 57884 57884 314
Width: 80
VWidth: 0
Flags: H
LayerCount: 2
Fore
SplineSet
0 80.0624796549 m 29
 80 80.0624796549 l 25
 80 20.0624796549 l 25
 40 20.0624796549 l 25
 39.9998550415 -30 l 25
 0 -30 l 25
 0 80.0624796549 l 29
EndSplineSet
Validated: 1
EndChar

StartChar: uniE21D
Encoding: 57885 57885 315
Width: 80
VWidth: 0
Flags: H
LayerCount: 2
Fore
SplineSet
0 130 m 29
 0 -30 l 25
 39.9998550415 -30 l 25
 40 20.0624796549 l 25
 80 20.0624796549 l 25
 80 80.0624796549 l 25
 40 80.0624796549 l 25
 39.9998550415 130 l 25
 0 130 l 29
EndSplineSet
Validated: 9
EndChar

StartChar: uniE21E
Encoding: 57886 57886 316
Width: 80
VWidth: 0
Flags: H
LayerCount: 2
Fore
SplineSet
0 -30 m 25
 0 80.0624796549 l 25
 40 80.0624796549 l 1
 40 130 l 25
 80 130 l 1
 80 20.0624796549 l 1
 40 20.0624796549 l 25
 39.9998550415 -30 l 25
 0 -30 l 25
EndSplineSet
Validated: 1
EndChar

StartChar: uniE21F
Encoding: 57887 57887 317
Width: 80
VWidth: 0
Flags: H
LayerCount: 2
Fore
SplineSet
0 130 m 1
 80 130 l 25
 80 20.0624796549 l 25
 40 20.0624796549 l 1
 40 -30 l 25
 0 -30 l 25
 0 130 l 1
EndSplineSet
Validated: 1
EndChar

StartChar: uniE220
Encoding: 57888 57888 318
Width: 80
VWidth: 0
Flags: H
LayerCount: 2
Fore
SplineSet
80 -30 m 29
 80 20.0624796549 l 25
 40 20.0624796549 l 25
 39.9998550415 -30 l 25
 80 -30 l 29
EndSplineSet
Validated: 9
EndChar

StartChar: uniE221
Encoding: 57889 57889 319
Width: 80
VWidth: 0
Flags: HW
LayerCount: 2
Fore
SplineSet
0 130 m 29
 39.9998550415 130 l 25
 40 80.0624796549 l 25
 0 80.0624796549 l 25
 0 130 l 29
80 -30 m 25
 80 20.0624796549 l 25
 40 20.0624796549 l 25
 39.9998550415 -30 l 25
 80 -30 l 25
EndSplineSet
Validated: 9
EndChar

StartChar: uniE222
Encoding: 57890 57890 320
Width: 80
VWidth: 0
Flags: HW
LayerCount: 2
Fore
SplineSet
39.9998550415 130 m 29
 80 130 l 25
 80 80.0624796549 l 25
 40 80.0624796549 l 25
 39.9998550415 130 l 29
80 -30 m 25
 80 20.0624796549 l 25
 40 20.0624796549 l 25
 39.9998550415 -30 l 25
 80 -30 l 25
EndSplineSet
Validated: 9
EndChar

StartChar: uniE223
Encoding: 57891 57891 321
Width: 80
VWidth: 0
Flags: HW
LayerCount: 2
Fore
SplineSet
0 130 m 1
 80 130 l 1
 80 80.0624796549 l 1
 0 80.0625 l 25
 0 130 l 1
80 -30 m 25
 80 20.0624796549 l 25
 40 20.0624796549 l 25
 39.9998550415 -30 l 25
 80 -30 l 25
EndSplineSet
Validated: 9
EndChar

StartChar: uniE224
Encoding: 57892 57892 322
Width: 80
VWidth: 0
Flags: H
LayerCount: 2
Fore
SplineSet
0 80.0624796549 m 29
 40 80.0624796549 l 29
 40 20.0624796549 l 25
 0 20.0624796549 l 25
 0 80.0624796549 l 29
40 20.0624796549 m 25
 80 20.0624796549 l 25
 80 -30 l 25
 39.9998550415 -30 l 25
 40 20.0624796549 l 25
EndSplineSet
Validated: 5
EndChar

StartChar: uniE225
Encoding: 57893 57893 323
Width: 80
VWidth: 0
Flags: HW
LayerCount: 2
Fore
SplineSet
0 130 m 29
 40 130 l 29
 40 20.0624796549 l 1
 0 20.0624796549 l 1
 0 130 l 29
40 20.0624796549 m 25
 80 20.0624796549 l 25
 80 -30 l 25
 39.9998550415 -30 l 25
 40 20.0624796549 l 25
EndSplineSet
Validated: 5
EndChar

StartChar: uniE226
Encoding: 57894 57894 324
Width: 80
VWidth: 0
Flags: HW
LayerCount: 2
Fore
SplineSet
39.9998550415 130 m 29
 80 130 l 25
 80 80.0624796549 l 25
 40 80.0624796549 l 25
 39.9998550415 130 l 29
0 80.0624796549 m 25
 40 80.0624796549 l 25
 40 20.0624796549 l 25
 0 20.0624796549 l 25
 0 80.0624796549 l 25
40 20.0624796549 m 25
 80 20.0624796549 l 25
 80 -30 l 25
 39.9998550415 -30 l 25
 40 20.0624796549 l 25
EndSplineSet
Validated: 5
EndChar

StartChar: uniE227
Encoding: 57895 57895 325
Width: 80
VWidth: 0
Flags: H
LayerCount: 2
Fore
SplineSet
0 20.0624796549 m 29
 40 20.0624796549 l 25
 40 80.0624796549 l 25
 80 80.0624796549 l 25
 80 130 l 25
 0 130 l 25
 0 20.0624796549 l 29
80 -30 m 25
 80 20.0624796549 l 25
 40 20.0624796549 l 25
 39.9998550415 -30 l 25
 80 -30 l 25
EndSplineSet
Validated: 5
EndChar

StartChar: uniE228
Encoding: 57896 57896 326
Width: 80
VWidth: 0
Flags: H
LayerCount: 2
Fore
SplineSet
80 -30 m 29
 80 80.0624796549 l 25
 40 80.0624796549 l 25
 39.9998550415 -30 l 25
 80 -30 l 29
EndSplineSet
Validated: 9
EndChar

StartChar: uniE229
Encoding: 57897 57897 327
Width: 80
VWidth: 0
Flags: HW
LayerCount: 2
Fore
SplineSet
0 130 m 29
 39.9998550415 130 l 25
 40 80.0624796549 l 25
 0 80.0624796549 l 25
 0 130 l 29
80 -30 m 25
 80 80.0624796549 l 25
 40 80.0624796549 l 25
 39.9998550415 -30 l 25
 80 -30 l 25
EndSplineSet
Validated: 5
EndChar

StartChar: uniE22A
Encoding: 57898 57898 328
Width: 80
VWidth: 0
Flags: H
LayerCount: 2
Fore
SplineSet
39.9998550415 130 m 29
 80 130 l 25
 80 -30 l 25
 39.9998550415 -30 l 25
 39.9998550415 130 l 29
EndSplineSet
Validated: 1
EndChar

StartChar: uniE22B
Encoding: 57899 57899 329
Width: 80
VWidth: 0
Flags: H
LayerCount: 2
Fore
SplineSet
0 130 m 29
 80 130 l 25
 80 -30 l 25
 39.9998550415 -30 l 25
 40 80.0624796549 l 25
 0 80.0624796549 l 25
 0 130 l 29
EndSplineSet
Validated: 1
EndChar

StartChar: uniE22C
Encoding: 57900 57900 330
Width: 80
VWidth: 0
Flags: HW
LayerCount: 2
Fore
SplineSet
0 80.0625 m 1
 80 80.0625 l 25
 80 -30 l 1
 39.9998550415 -30 l 1
 40 20.0625 l 25
 -0 20.0625 l 25
 0 80.0625 l 1
EndSplineSet
Validated: 1
EndChar

StartChar: uniE22D
Encoding: 57901 57901 331
Width: 80
VWidth: 0
Flags: H
LayerCount: 2
Fore
SplineSet
0 130 m 29
 39.9998550415 130 l 25
 40 80.0624796549 l 25
 80 80.0624796549 l 25
 80 -30 l 25
 39.9998550415 -30 l 25
 40 20.0624796549 l 25
 0 20.0624796549 l 25
 0 130 l 29
EndSplineSet
Validated: 1
EndChar

StartChar: uniE22E
Encoding: 57902 57902 332
Width: 80
VWidth: 0
Flags: H
LayerCount: 2
Fore
SplineSet
0 20.0624796549 m 29
 40 20.0624796549 l 25
 39.9998550415 -30 l 25
 80 -30 l 25
 80 130 l 25
 39.9998550415 130 l 25
 40 80.0624796549 l 25
 0 80.0624796549 l 25
 0 20.0624796549 l 29
EndSplineSet
Validated: 9
EndChar

StartChar: uniE22F
Encoding: 57903 57903 333
Width: 80
VWidth: 0
Flags: H
LayerCount: 2
Fore
SplineSet
0 20.0624796549 m 29
 40 20.0624796549 l 25
 39.9998550415 -30 l 25
 80 -30 l 25
 80 130 l 25
 0 130 l 25
 0 20.0624796549 l 29
EndSplineSet
Validated: 9
EndChar

StartChar: uniE230
Encoding: 57904 57904 334
Width: 80
VWidth: 0
Flags: H
LayerCount: 2
Fore
SplineSet
0 20.0624796549 m 29
 80 20.0624796549 l 25
 80 -30 l 25
 0 -30 l 25
 0 20.0624796549 l 29
EndSplineSet
Validated: 1
EndChar

StartChar: uniE231
Encoding: 57905 57905 335
Width: 80
VWidth: 0
Flags: HW
LayerCount: 2
Fore
SplineSet
0 130 m 29
 39.9998550415 130 l 25
 40 80.0624796549 l 25
 0 80.0624796549 l 25
 0 130 l 29
0 20.0624796549 m 25
 80 20.0624796549 l 25
 80 -30 l 25
 0 -30 l 25
 0 20.0624796549 l 25
EndSplineSet
Validated: 1
EndChar

StartChar: uniE232
Encoding: 57906 57906 336
Width: 80
VWidth: 0
Flags: HW
LayerCount: 2
Fore
SplineSet
39.9998550415 130 m 29
 80 130 l 25
 80 80.0624796549 l 25
 40 80.0624796549 l 25
 39.9998550415 130 l 29
0 20.0624796549 m 25
 80 20.0624796549 l 25
 80 -30 l 25
 0 -30 l 25
 0 20.0624796549 l 25
EndSplineSet
Validated: 1
EndChar

StartChar: uniE233
Encoding: 57907 57907 337
Width: 80
VWidth: 0
Flags: HW
LayerCount: 2
Fore
SplineSet
0 130 m 29
 80 130 l 25
 80 80.0624796549 l 25
 0 80.0624796549 l 25
 0 130 l 29
0 20.0624796549 m 25
 80 20.0624796549 l 25
 80 -30 l 25
 0 -30 l 25
 0 20.0624796549 l 25
EndSplineSet
Validated: 1
EndChar

StartChar: uniE234
Encoding: 57908 57908 338
Width: 80
VWidth: 0
Flags: H
LayerCount: 2
Fore
SplineSet
0 80.0624796549 m 29
 40 80.0624796549 l 25
 40 20.0624796549 l 25
 80 20.0624796549 l 25
 80 -30 l 25
 0 -30 l 25
 0 80.0624796549 l 29
EndSplineSet
Validated: 1
EndChar

StartChar: uniE235
Encoding: 57909 57909 339
Width: 80
VWidth: 0
Flags: HW
LayerCount: 2
Fore
SplineSet
-0 130 m 29
 40 130 l 29
 40 20.0624796549 l 1
 80 20.0624796549 l 25
 80 -30 l 25
 0 -30 l 1
 -0 130 l 29
EndSplineSet
Validated: 1
EndChar

StartChar: uniE236
Encoding: 57910 57910 340
Width: 80
VWidth: 0
Flags: HW
LayerCount: 2
Fore
SplineSet
39.9998550415 130 m 29
 80 130 l 25
 80 80.0624796549 l 25
 40 80.0624796549 l 25
 39.9998550415 130 l 29
0 80.0624796549 m 25
 40 80.0624796549 l 25
 40 20.0624796549 l 25
 80 20.0624796549 l 25
 80 -30 l 25
 0 -30 l 25
 0 80.0624796549 l 25
EndSplineSet
Validated: 5
EndChar

StartChar: uniE237
Encoding: 57911 57911 341
Width: 80
VWidth: 0
Flags: H
LayerCount: 2
Fore
SplineSet
80 130 m 29
 0 130 l 25
 0 -30 l 25
 80 -30 l 25
 80 20.0624796549 l 25
 40 20.0624796549 l 25
 40 80.0624796549 l 25
 80 80.0624796549 l 25
 80 130 l 29
EndSplineSet
Validated: 9
EndChar

StartChar: uniE238
Encoding: 57912 57912 342
Width: 80
VWidth: 0
Flags: H
LayerCount: 2
Fore
SplineSet
80 80.0625 m 25
 80 -30 l 1
 0 -30 l 25
 0 20.0624796549 l 25
 40 20.0624796549 l 1
 40 80.0625 l 25
 80 80.0625 l 25
EndSplineSet
Validated: 1
EndChar

StartChar: uniE239
Encoding: 57913 57913 343
Width: 80
VWidth: 0
Flags: HW
LayerCount: 2
Fore
SplineSet
0 130 m 29
 39.9998550415 130 l 25
 40 80.0624796549 l 25
 0 80.0624796549 l 25
 0 130 l 29
80 -30 m 25
 0 -30 l 25
 0 20.0624796549 l 25
 40 20.0624796549 l 25
 40 80.0624796549 l 25
 80 80.0624796549 l 25
 80 -30 l 25
EndSplineSet
Validated: 5
EndChar

StartChar: uniE23A
Encoding: 57914 57914 344
Width: 80
VWidth: 0
Flags: HW
LayerCount: 2
Fore
SplineSet
80 130 m 25
 80 -30 l 1
 0 -30 l 25
 0 20.0624796549 l 25
 40 20.0624796549 l 1
 40 130 l 25
 80 130 l 25
EndSplineSet
EndChar

StartChar: uniE23B
Encoding: 57915 57915 345
Width: 80
VWidth: 0
Flags: H
LayerCount: 2
Fore
SplineSet
0 130 m 29
 80 130 l 25
 80 -30 l 25
 0 -30 l 25
 0 20.0624796549 l 25
 40 20.0624796549 l 25
 40 80.0624796549 l 25
 0 80.0624796549 l 25
 0 130 l 29
EndSplineSet
Validated: 1
EndChar

StartChar: uniE23C
Encoding: 57916 57916 346
Width: 80
VWidth: 0
Flags: H
LayerCount: 2
Fore
SplineSet
0 80.0624796549 m 29
 80 80.0624796549 l 25
 80 -30 l 25
 0 -30 l 25
 0 80.0624796549 l 29
EndSplineSet
Validated: 1
EndChar

StartChar: uniE23D
Encoding: 57917 57917 347
Width: 80
VWidth: 0
Flags: H
LayerCount: 2
Fore
SplineSet
0 130 m 29
 39.9998550415 130 l 25
 40 80.0624796549 l 25
 80 80.0624796549 l 25
 80 -30 l 25
 0 -30 l 25
 0 130 l 29
EndSplineSet
Validated: 1
EndChar

StartChar: uniE23E
Encoding: 57918 57918 348
Width: 80
VWidth: 0
Flags: H
LayerCount: 2
Fore
SplineSet
39.9998550415 130 m 29
 80 130 l 25
 80 -30 l 25
 0 -30 l 25
 0 80.0624796549 l 25
 40 80.0624796549 l 25
 39.9998550415 130 l 29
EndSplineSet
Validated: 1
EndChar

StartChar: uniE23F
Encoding: 57919 57919 349
Width: 80
VWidth: 0
Flags: H
LayerCount: 2
Fore
SplineSet
0 130 m 25
 80 130 l 25
 80 -30 l 25
 0 -30 l 25
 0 130 l 25
EndSplineSet
Validated: 1
EndChar

StartChar: uniE2C1
Encoding: 58049 58049 351
Width: 80
Flags: HW
HStem: 0 20<20 40> 50 30<10 20 40 50> 70 20G<20 40>
VStem: 10 40<50 80> 20 20<0 20 30 50 80 90>
LayerCount: 2
Fore
SplineSet
10 130 m 25
 39.9998550415 130 l 25
 39.9998550415 90 l 25
 10 90 l 25
 10 130 l 25
EndSplineSet
EndChar

StartChar: uniE2C2
Encoding: 58050 58050 352
Width: 80
Flags: HW
HStem: 0 20<60.0001 80.0001> 50 30<50.0001 60.0001 80.0001 90.0001> 70 20G<60.0001 80.0001>
VStem: 50.0001 40<50 80> 60.0001 20<0 20 30 50 80 90>
LayerCount: 2
Fore
SplineSet
50 130 m 25
 80 130 l 25
 80 90 l 25
 50 90 l 25
 50 130 l 25
EndSplineSet
EndChar

StartChar: uniE2C3
Encoding: 58051 58051 353
Width: 80
Flags: HW
HStem: 0 20<60 80> 50 30<50 60 80 90> 70 20G<60 80>
VStem: 50 40<50 80> 60 20<0 20 30 50 80 90>
LayerCount: 2
Fore
SplineSet
10 130 m 25
 39.9998550415 130 l 25
 39.9998550415 90 l 25
 10 90 l 25
 10 130 l 25
50 130 m 25
 80 130 l 25
 80 90 l 25
 50 90 l 25
 50 130 l 25
EndSplineSet
EndChar

StartChar: uniE2C4
Encoding: 58052 58052 354
Width: 80
Flags: HW
HStem: 0 20<20 40> 50 30<10 20 40 50> 70 20G<20 40>
VStem: 10 40<50 80> 20 20<0 20 30 50 80 90>
LayerCount: 2
Fore
SplineSet
10 80.1640625 m 1
 40 80.1640625 l 1
 40 30 l 1
 10 30 l 25
 10 80.1640625 l 1
EndSplineSet
EndChar

StartChar: uniE2C5
Encoding: 58053 58053 355
Width: 80
Flags: HW
HStem: 0 20<20 40> 50 30<10 20 40 50> 70 20G<20 40>
VStem: 10 40<50 80> 20 20<0 20 30 50 80 90>
LayerCount: 2
Fore
SplineSet
10 130 m 29
 39.9998550415 130 l 29
 39.9998550415 90 l 29
 10 90 l 29
 10 130 l 29
10 80.0625 m 5
 40 80.0625 l 5
 40 30 l 29
 10 30 l 29
 10 80.0625 l 5
EndSplineSet
EndChar

StartChar: uniE2C6
Encoding: 58054 58054 356
Width: 80
Flags: HW
LayerCount: 2
Fore
SplineSet
10 80.0625 m 1
 40 80.0625 l 1
 40 30.2265625 l 25
 10 30.2265625 l 25
 10 80.0625 l 1
50 130 m 25
 80 130 l 25
 80 90 l 25
 50 90 l 25
 50 130 l 25
EndSplineSet
EndChar

StartChar: uniE2C7
Encoding: 58055 58055 357
Width: 80
Flags: HW
LayerCount: 2
Fore
SplineSet
50 130 m 25
 80 130 l 25
 80 90 l 25
 50 90 l 25
 50 130 l 25
10 130 m 25
 39.9998550415 130 l 25
 39.9998550415 90 l 25
 10 90 l 25
 10 130 l 25
10 80.0625 m 1
 40 80.0625 l 1
 40 30 l 25
 10 30 l 25
 10 80.0625 l 1
EndSplineSet
EndChar

StartChar: uniE2C8
Encoding: 58056 58056 358
Width: 80
Flags: HW
LayerCount: 2
Fore
SplineSet
10 80.0625 m 1
 40 80.0625 l 1
 40 30 l 25
 10 30 l 25
 10 80.0625 l 1
EndSplineSet
EndChar

StartChar: uniE2C9
Encoding: 58057 58057 359
Width: 80
Flags: HW
LayerCount: 2
Fore
SplineSet
10 130 m 25
 39.9998550415 130 l 25
 39.9998550415 90 l 25
 10 90 l 25
 10 130 l 25
50 80.0625 m 1
 80 80.0625 l 1
 80 30 l 25
 50 30 l 25
 50 80.0625 l 1
EndSplineSet
EndChar

StartChar: uniE2CA
Encoding: 58058 58058 360
Width: 80
Flags: HW
LayerCount: 2
Fore
SplineSet
50 130 m 25
 80 130 l 25
 80 90 l 25
 50 90 l 25
 50 130 l 25
50 80.0625 m 1
 80 80.0625 l 1
 80 30 l 25
 50 30 l 25
 50 80.0625 l 1
EndSplineSet
EndChar

StartChar: uniE2CB
Encoding: 58059 58059 361
Width: 80
Flags: HW
LayerCount: 2
Fore
SplineSet
50 130 m 25
 80 130 l 25
 80 90 l 25
 50 90 l 25
 50 130 l 25
10 130 m 25
 39.9998550415 130 l 25
 39.9998550415 90 l 25
 10 90 l 25
 10 130 l 25
50 80.0625 m 1
 80 80.0625 l 1
 80 30 l 25
 50 30 l 25
 50 80.0625 l 1
EndSplineSet
EndChar

StartChar: uniE2CC
Encoding: 58060 58060 362
Width: 80
Flags: HW
LayerCount: 2
Fore
SplineSet
39.9998550415 130 m 1049
50 80.0625 m 1
 80 80.0625 l 1
 80 30 l 25
 50 30 l 25
 50 80.0625 l 1
10 80.0625 m 1
 40 80.0625 l 1
 40 30 l 25
 10 30 l 25
 10 80.0625 l 1
EndSplineSet
EndChar

StartChar: uniE2CD
Encoding: 58061 58061 363
Width: 80
Flags: HW
LayerCount: 2
Fore
SplineSet
10 130 m 25
 39.9998550415 130 l 25
 39.9998550415 90 l 25
 10 90 l 25
 10 130 l 25
50 80.0625 m 1
 80 80.0625 l 1
 80 30 l 25
 50 30 l 25
 50 80.0625 l 1
10 80.0625 m 1
 40 80.0625 l 1
 40 30 l 25
 10 30 l 25
 10 80.0625 l 1
39.9998550415 130 m 1025
EndSplineSet
EndChar

StartChar: uniE2CE
Encoding: 58062 58062 364
Width: 80
Flags: HW
LayerCount: 2
Fore
SplineSet
50 130 m 25
 80 130 l 25
 80 90 l 25
 50 90 l 25
 50 130 l 25
50 80.0625 m 1
 80 80.0625 l 1
 80 30 l 25
 50 30 l 25
 50 80.0625 l 1
10 80.0625 m 1
 40 80.0625 l 1
 40 30 l 25
 10 30 l 25
 10 80.0625 l 1
EndSplineSet
EndChar

StartChar: uniE2CF
Encoding: 58063 58063 365
Width: 80
Flags: HW
LayerCount: 2
Fore
SplineSet
50 130 m 25
 80 130 l 25
 80 90 l 25
 50 90 l 25
 50 130 l 25
10 130 m 25
 39.9998550415 130 l 25
 39.9998550415 90 l 25
 10 90 l 25
 10 130 l 25
50 80.0625 m 1
 80 80.0625 l 1
 80 30 l 25
 50 30 l 25
 50 80.0625 l 1
10 80.0625 m 1
 40 80.0625 l 1
 40 30 l 25
 10 30 l 25
 10 80.0625 l 1
EndSplineSet
EndChar

StartChar: uniE2D0
Encoding: 58064 58064 366
Width: 80
Flags: HW
LayerCount: 2
Fore
SplineSet
39.9998550415 130 m 25
 39.9998550415 90 l 1049
10 20.0625 m 25
 40 20.0625 l 25
 40 -19.9375 l 25
 10 -19.9375 l 25
 10 20.0625 l 25
EndSplineSet
EndChar

StartChar: uniE2D1
Encoding: 58065 58065 367
Width: 80
Flags: HW
LayerCount: 2
Fore
SplineSet
10 130 m 25
 39.9998550415 130 l 25
 39.9998550415 90 l 25
 10 90 l 25
 10 130 l 25
10 20.0625 m 25
 40 20.0625 l 25
 40 -19.9375 l 25
 10 -19.9375 l 25
 10 20.0625 l 25
EndSplineSet
EndChar

StartChar: uniE2D2
Encoding: 58066 58066 368
Width: 80
Flags: HW
LayerCount: 2
Fore
SplineSet
50 130 m 25
 80 130 l 25
 80 90 l 25
 50 90 l 25
 50 130 l 25
10 20.0625 m 25
 40 20.0625 l 25
 40 -19.9375 l 25
 10 -19.9375 l 25
 10 20.0625 l 25
EndSplineSet
EndChar

StartChar: uniE2D3
Encoding: 58067 58067 369
Width: 80
Flags: HW
LayerCount: 2
Fore
SplineSet
50 130 m 25
 80 130 l 25
 80 90 l 25
 50 90 l 25
 50 130 l 25
10 130 m 25
 39.9998550415 130 l 25
 39.9998550415 90 l 25
 10 90 l 25
 10 130 l 25
10 20.0625 m 25
 40 20.0625 l 25
 40 -19.9375 l 25
 10 -19.9375 l 25
 10 20.0625 l 25
EndSplineSet
EndChar

StartChar: uniE2D4
Encoding: 58068 58068 370
Width: 80
Flags: HW
LayerCount: 2
Fore
SplineSet
10 20.0625 m 25
 40 20.0625 l 25
 40 -19.9375 l 25
 10 -19.9375 l 25
 10 20.0625 l 25
10 80.0625 m 1
 40 80.0625 l 1
 40 30 l 25
 10 30 l 25
 10 80.0625 l 1
EndSplineSet
EndChar

StartChar: uniE2D5
Encoding: 58069 58069 371
Width: 80
Flags: HW
LayerCount: 2
Fore
SplineSet
10 130 m 25
 39.9998550415 130 l 25
 39.9998550415 90 l 25
 10 90 l 25
 10 130 l 25
10 20.0625 m 25
 40 20.0625 l 25
 40 -19.9375 l 25
 10 -19.9375 l 25
 10 20.0625 l 25
10 80.0625 m 1
 40 80.0625 l 1
 40 30 l 25
 10 30 l 25
 10 80.0625 l 1
EndSplineSet
EndChar

StartChar: uniE2D6
Encoding: 58070 58070 372
Width: 80
Flags: HW
LayerCount: 2
Fore
SplineSet
50 130 m 25
 80 130 l 25
 80 90 l 25
 50 90 l 25
 50 130 l 25
39.9998550415 130 m 1049
10 20.0625 m 25
 40 20.0625 l 25
 40 -19.9375 l 25
 10 -19.9375 l 25
 10 20.0625 l 25
10 80.0625 m 1
 40 80.0625 l 1
 40 30 l 25
 10 30 l 25
 10 80.0625 l 1
EndSplineSet
EndChar

StartChar: uniE2D7
Encoding: 58071 58071 373
Width: 80
Flags: HW
LayerCount: 2
Fore
SplineSet
50 130 m 25
 80 130 l 25
 80 90 l 25
 50 90 l 25
 50 130 l 25
10 130 m 25
 39.9998550415 130 l 25
 39.9998550415 90 l 25
 10 90 l 25
 10 130 l 25
10 20.0625 m 25
 40 20.0625 l 25
 40 -19.9375 l 25
 10 -19.9375 l 25
 10 20.0625 l 25
10 80.0625 m 1
 40 80.0625 l 1
 40 30 l 25
 10 30 l 25
 10 80.0625 l 1
EndSplineSet
EndChar

StartChar: uniE2D8
Encoding: 58072 58072 374
Width: 80
Flags: HW
LayerCount: 2
Fore
SplineSet
39.9998550415 130 m 1049
50 80.0625 m 1
 80 80.0625 l 1
 80 30 l 25
 50 30 l 25
 50 80.0625 l 1
10 20.0625 m 25
 40 20.0625 l 25
 40 -19.9375 l 25
 10 -19.9375 l 25
 10 20.0625 l 25
EndSplineSet
EndChar

StartChar: uniE2D9
Encoding: 58073 58073 375
Width: 80
Flags: HW
LayerCount: 2
Fore
SplineSet
10 130 m 25
 39.9998550415 130 l 25
 39.9998550415 90 l 25
 10 90 l 25
 10 130 l 25
50 80.0625 m 1
 80 80.0625 l 1
 80 30 l 25
 50 30 l 25
 50 80.0625 l 1
10 20.0625 m 25
 40 20.0625 l 25
 40 -19.9375 l 25
 10 -19.9375 l 25
 10 20.0625 l 25
39.9998550415 130 m 1049
EndSplineSet
EndChar

StartChar: uniE2DA
Encoding: 58074 58074 376
Width: 80
Flags: HW
LayerCount: 2
Fore
SplineSet
50 130 m 25
 80 130 l 25
 80 90 l 25
 50 90 l 25
 50 130 l 25
50 80.0625 m 1
 80 80.0625 l 1
 80 30 l 25
 50 30 l 25
 50 80.0625 l 1
10 20.0625 m 25
 40 20.0625 l 25
 40 -19.9375 l 25
 10 -19.9375 l 25
 10 20.0625 l 25
EndSplineSet
EndChar

StartChar: uniE2DB
Encoding: 58075 58075 377
Width: 80
Flags: HW
LayerCount: 2
Fore
SplineSet
50 130 m 25
 80 130 l 25
 80 90 l 25
 50 90 l 25
 50 130 l 25
10 130 m 25
 39.9998550415 130 l 25
 39.9998550415 90 l 25
 10 90 l 25
 10 130 l 25
50 80.0625 m 1
 80 80.0625 l 1
 80 30 l 25
 50 30 l 25
 50 80.0625 l 1
10 20.0625 m 25
 40 20.0625 l 25
 40 -19.9375 l 25
 10 -19.9375 l 25
 10 20.0625 l 25
EndSplineSet
EndChar

StartChar: uniE2DC
Encoding: 58076 58076 378
Width: 80
Flags: HW
LayerCount: 2
Fore
SplineSet
50 80.0625 m 1
 80 80.0625 l 1
 80 30 l 25
 50 30 l 25
 50 80.0625 l 1
10 20.0625 m 25
 40 20.0625 l 25
 40 -19.9375 l 25
 10 -19.9375 l 25
 10 20.0625 l 25
10 80.0625 m 1
 40 80.0625 l 1
 40 30 l 25
 10 30 l 25
 10 80.0625 l 1
EndSplineSet
EndChar

StartChar: uniE2DD
Encoding: 58077 58077 379
Width: 80
Flags: HW
LayerCount: 2
Fore
SplineSet
10 130 m 25
 39.9998550415 130 l 25
 39.9998550415 90 l 25
 10 90 l 25
 10 130 l 25
50 80.0625 m 1
 80 80.0625 l 1
 80 30 l 25
 50 30 l 25
 50 80.0625 l 1
10 20.0625 m 25
 40 20.0625 l 25
 40 -19.9375 l 25
 10 -19.9375 l 25
 10 20.0625 l 25
10 80.0625 m 1
 40 80.0625 l 1
 40 30 l 25
 10 30 l 25
 10 80.0625 l 1
39.9998550415 130 m 1049
EndSplineSet
EndChar

StartChar: uniE2DE
Encoding: 58078 58078 380
Width: 80
Flags: HW
LayerCount: 2
Fore
SplineSet
50 130 m 25
 80 130 l 25
 80 90 l 25
 50 90 l 25
 50 130 l 25
50 80.0625 m 1
 80 80.0625 l 1
 80 30 l 25
 50 30 l 25
 50 80.0625 l 1
10 20.0625 m 25
 40 20.0625 l 25
 40 -19.9375 l 25
 10 -19.9375 l 25
 10 20.0625 l 25
10 80.0625 m 1
 40 80.0625 l 1
 40 30 l 25
 10 30 l 25
 10 80.0625 l 1
EndSplineSet
EndChar

StartChar: uniE2DF
Encoding: 58079 58079 381
Width: 80
Flags: HW
LayerCount: 2
Fore
SplineSet
50 130 m 25
 80 130 l 25
 80 90 l 25
 50 90 l 25
 50 130 l 25
10 130 m 25
 39.9998550415 130 l 25
 39.9998550415 90 l 25
 10 90 l 25
 10 130 l 25
50 80.0625 m 1
 80 80.0625 l 1
 80 30 l 25
 50 30 l 25
 50 80.0625 l 1
10 20.0625 m 25
 40 20.0625 l 25
 40 -19.9375 l 25
 10 -19.9375 l 25
 10 20.0625 l 25
10 80.0625 m 1
 40 80.0625 l 1
 40 30 l 25
 10 30 l 25
 10 80.0625 l 1
EndSplineSet
EndChar

StartChar: uniE2E0
Encoding: 58080 58080 382
Width: 80
Flags: HW
LayerCount: 2
Fore
SplineSet
50 20.0625 m 25
 80 20.0625 l 25
 80 -19.9375 l 25
 50 -19.9375 l 25
 50 20.0625 l 25
EndSplineSet
EndChar

StartChar: uniE2E1
Encoding: 58081 58081 383
Width: 80
Flags: HW
LayerCount: 2
Fore
SplineSet
10 130 m 25
 39.9998550415 130 l 25
 39.9998550415 90 l 25
 10 90 l 25
 10 130 l 25
50 20.0625 m 25
 80 20.0625 l 25
 80 -19.9375 l 25
 50 -19.9375 l 25
 50 20.0625 l 25
39.9998550415 130 m 1049
EndSplineSet
EndChar

StartChar: uniE2E2
Encoding: 58082 58082 384
Width: 80
Flags: HW
LayerCount: 2
Fore
SplineSet
50 130 m 25
 80 130 l 25
 80 90 l 25
 50 90 l 25
 50 130 l 25
50 20.0625 m 25
 80 20.0625 l 25
 80 -19.9375 l 25
 50 -19.9375 l 25
 50 20.0625 l 25
EndSplineSet
EndChar

StartChar: uniE2E3
Encoding: 58083 58083 385
Width: 80
Flags: HW
LayerCount: 2
Fore
SplineSet
50 130 m 25
 80 130 l 25
 80 90 l 25
 50 90 l 25
 50 130 l 25
10 130 m 25
 39.9998550415 130 l 25
 39.9998550415 90 l 25
 10 90 l 25
 10 130 l 25
50 20.0625 m 25
 80 20.0625 l 25
 80 -19.9375 l 25
 50 -19.9375 l 25
 50 20.0625 l 25
EndSplineSet
EndChar

StartChar: uniE2E4
Encoding: 58084 58084 386
Width: 80
Flags: HW
LayerCount: 2
Fore
SplineSet
50 20.0625 m 25
 80 20.0625 l 25
 80 -19.9375 l 25
 50 -19.9375 l 25
 50 20.0625 l 25
10 80.0625 m 1
 40 80.0625 l 1
 40 30 l 25
 10 30 l 25
 10 80.0625 l 1
EndSplineSet
EndChar

StartChar: uniE2E5
Encoding: 58085 58085 387
Width: 80
Flags: HW
LayerCount: 2
Fore
SplineSet
10 130 m 25
 39.9998550415 130 l 25
 39.9998550415 90 l 25
 10 90 l 25
 10 130 l 25
50 20.0625 m 25
 80 20.0625 l 25
 80 -19.9375 l 25
 50 -19.9375 l 25
 50 20.0625 l 25
10 80.0625 m 1
 40 80.0625 l 1
 40 30 l 25
 10 30 l 25
 10 80.0625 l 1
EndSplineSet
EndChar

StartChar: uniE2E6
Encoding: 58086 58086 388
Width: 80
Flags: HW
LayerCount: 2
Fore
SplineSet
50 130 m 25
 80 130 l 25
 80 90 l 25
 50 90 l 25
 50 130 l 25
50 20.0625 m 25
 80 20.0625 l 25
 80 -19.9375 l 25
 50 -19.9375 l 25
 50 20.0625 l 25
10 80.0625 m 1
 40 80.0625 l 1
 40 30 l 25
 10 30 l 25
 10 80.0625 l 1
EndSplineSet
EndChar

StartChar: uniE2E7
Encoding: 58087 58087 389
Width: 80
Flags: HW
LayerCount: 2
Fore
SplineSet
50 130 m 25
 80 130 l 25
 80 90 l 25
 50 90 l 25
 50 130 l 25
10 130 m 25
 39.9998550415 130 l 25
 39.9998550415 90 l 25
 10 90 l 25
 10 130 l 25
50 20.0625 m 25
 80 20.0625 l 25
 80 -19.9375 l 25
 50 -19.9375 l 25
 50 20.0625 l 25
10 80.0625 m 1
 40 80.0625 l 1
 40 30 l 25
 10 30 l 25
 10 80.0625 l 1
EndSplineSet
EndChar

StartChar: uniE2E8
Encoding: 58088 58088 390
Width: 80
Flags: HW
LayerCount: 2
Fore
SplineSet
50 80.0625 m 1
 80 80.0625 l 1
 80 30 l 25
 50 30 l 25
 50 80.0625 l 1
50 20.0625 m 25
 80 20.0625 l 25
 80 -19.9375 l 25
 50 -19.9375 l 25
 50 20.0625 l 25
EndSplineSet
EndChar

StartChar: uniE2E9
Encoding: 58089 58089 391
Width: 80
Flags: HWO
LayerCount: 2
Fore
SplineSet
10 130 m 25
 39.9998550415 130 l 25
 39.9998550415 90 l 25
 10 90 l 25
 10 130 l 25
50 80.0625 m 1
 80 80.0625 l 1
 80 30 l 25
 50 30 l 25
 50 80.0625 l 1
50 20.0625 m 25
 80 20.0625 l 25
 80 -19.9375 l 25
 50 -19.9375 l 25
 50 20.0625 l 25
EndSplineSet
EndChar

StartChar: uniE2EA
Encoding: 58090 58090 392
Width: 80
Flags: HW
LayerCount: 2
Fore
SplineSet
50 130 m 25
 80 130 l 25
 80 90 l 25
 50 90 l 25
 50 130 l 25
10 130 m 1049
50 80.0625 m 1
 80 80.0625 l 1
 80 30 l 25
 50 30 l 25
 50 80.0625 l 1
50 20.0625 m 25
 80 20.0625 l 25
 80 -19.9375 l 25
 50 -19.9375 l 25
 50 20.0625 l 25
EndSplineSet
EndChar

StartChar: uniE2EB
Encoding: 58091 58091 393
Width: 80
Flags: HW
LayerCount: 2
Fore
SplineSet
50 130 m 25
 80 130 l 25
 80 90 l 25
 50 90 l 25
 50 130 l 25
10 130 m 25
 39.9998550415 130 l 25
 39.9998550415 90 l 25
 10 90 l 25
 10 130 l 25
50 80.0625 m 1
 80 80.0625 l 1
 80 30 l 25
 50 30 l 25
 50 80.0625 l 1
50 20.0625 m 25
 80 20.0625 l 25
 80 -19.9375 l 25
 50 -19.9375 l 25
 50 20.0625 l 25
EndSplineSet
EndChar

StartChar: uniE2EC
Encoding: 58092 58092 394
Width: 80
Flags: HW
LayerCount: 2
Fore
SplineSet
50 80.0625 m 1
 80 80.0625 l 1
 80 30 l 25
 50 30 l 25
 50 80.0625 l 1
50 20.0625 m 25
 80 20.0625 l 25
 80 -19.9375 l 25
 50 -19.9375 l 25
 50 20.0625 l 25
10 80.0625 m 1
 40 80.0625 l 1
 40 30 l 25
 10 30 l 25
 10 80.0625 l 1
EndSplineSet
EndChar

StartChar: uniE2ED
Encoding: 58093 58093 395
Width: 80
Flags: HW
LayerCount: 2
Fore
SplineSet
10 130 m 25
 39.9998550415 130 l 25
 39.9998550415 90 l 25
 10 90 l 25
 10 130 l 25
50 80.0625 m 1
 80 80.0625 l 1
 80 30 l 25
 50 30 l 25
 50 80.0625 l 1
50 20.0625 m 25
 80 20.0625 l 25
 80 -19.9375 l 25
 50 -19.9375 l 25
 50 20.0625 l 25
10 80.0625 m 1
 40 80.0625 l 1
 40 30 l 25
 10 30 l 25
 10 80.0625 l 1
EndSplineSet
EndChar

StartChar: uniE2EE
Encoding: 58094 58094 396
Width: 80
Flags: HW
LayerCount: 2
Fore
SplineSet
50 130 m 25
 80 130 l 25
 80 90 l 25
 50 90 l 25
 50 130 l 25
50 80.0625 m 1
 80 80.0625 l 1
 80 30 l 25
 50 30 l 25
 50 80.0625 l 1
50 20.0625 m 25
 80 20.0625 l 25
 80 -19.9375 l 25
 50 -19.9375 l 25
 50 20.0625 l 25
10 80.0625 m 1
 40 80.0625 l 1
 40 30 l 25
 10 30 l 25
 10 80.0625 l 1
EndSplineSet
EndChar

StartChar: uniE2EF
Encoding: 58095 58095 397
Width: 80
Flags: HW
LayerCount: 2
Fore
SplineSet
50 130 m 25
 80 130 l 25
 80 90 l 25
 50 90 l 25
 50 130 l 25
10 130 m 25
 39.9998550415 130 l 25
 39.9998550415 90 l 25
 10 90 l 25
 10 130 l 25
50 80.0625 m 1
 80 80.0625 l 1
 80 30 l 25
 50 30 l 25
 50 80.0625 l 1
50 20.0625 m 25
 80 20.0625 l 25
 80 -19.9375 l 25
 50 -19.9375 l 25
 50 20.0625 l 25
10 80.0625 m 1
 40 80.0625 l 1
 40 30 l 25
 10 30 l 25
 10 80.0625 l 1
EndSplineSet
EndChar

StartChar: uniE2F0
Encoding: 58096 58096 398
Width: 80
Flags: HW
LayerCount: 2
Fore
SplineSet
50 20.0625 m 25
 80 20.0625 l 25
 80 -19.9375 l 25
 50 -19.9375 l 25
 50 20.0625 l 25
10 20.0625 m 25
 40 20.0625 l 25
 40 -19.9375 l 25
 10 -19.9375 l 25
 10 20.0625 l 25
EndSplineSet
EndChar

StartChar: uniE2F1
Encoding: 58097 58097 399
Width: 80
Flags: HW
LayerCount: 2
Fore
SplineSet
10 130 m 25
 39.9998550415 130 l 25
 39.9998550415 90 l 25
 10 90 l 25
 10 130 l 25
50 20.0625 m 25
 80 20.0625 l 25
 80 -19.9375 l 25
 50 -19.9375 l 25
 50 20.0625 l 25
10 20.0625 m 25
 40 20.0625 l 25
 40 -19.9375 l 25
 10 -19.9375 l 25
 10 20.0625 l 25
EndSplineSet
EndChar

StartChar: uniE2F2
Encoding: 58098 58098 400
Width: 80
Flags: HW
LayerCount: 2
Fore
SplineSet
50 130 m 25
 80 130 l 25
 80 90 l 25
 50 90 l 25
 50 130 l 25
50 20.0625 m 25
 80 20.0625 l 25
 80 -19.9375 l 25
 50 -19.9375 l 25
 50 20.0625 l 25
10 20.0625 m 25
 40 20.0625 l 25
 40 -19.9375 l 25
 10 -19.9375 l 25
 10 20.0625 l 25
EndSplineSet
EndChar

StartChar: uniE2F3
Encoding: 58099 58099 401
Width: 80
Flags: HW
LayerCount: 2
Fore
SplineSet
50 130 m 25
 80 130 l 25
 80 90 l 25
 50 90 l 25
 50 130 l 25
10 130 m 25
 39.9998550415 130 l 25
 39.9998550415 90 l 25
 10 90 l 25
 10 130 l 25
50 20.0625 m 25
 80 20.0625 l 25
 80 -19.9375 l 25
 50 -19.9375 l 25
 50 20.0625 l 25
10 20.0625 m 25
 40 20.0625 l 25
 40 -19.9375 l 25
 10 -19.9375 l 25
 10 20.0625 l 25
EndSplineSet
EndChar

StartChar: uniE2F4
Encoding: 58100 58100 402
Width: 80
Flags: HW
LayerCount: 2
Fore
SplineSet
50 20.0625 m 25
 80 20.0625 l 25
 80 -19.9375 l 25
 50 -19.9375 l 25
 50 20.0625 l 25
10 20.0625 m 25
 40 20.0625 l 25
 40 -19.9375 l 25
 10 -19.9375 l 25
 10 20.0625 l 25
10 80.0625 m 1
 40 80.0625 l 1
 40 30 l 25
 10 30 l 25
 10 80.0625 l 1
EndSplineSet
EndChar

StartChar: uniE2F5
Encoding: 58101 58101 403
Width: 80
Flags: HW
LayerCount: 2
Fore
SplineSet
10 130 m 25
 39.9998550415 130 l 25
 39.9998550415 90 l 25
 10 90 l 25
 10 130 l 25
50 20.0625 m 25
 80 20.0625 l 25
 80 -19.9375 l 25
 50 -19.9375 l 25
 50 20.0625 l 25
10 20.0625 m 25
 40 20.0625 l 25
 40 -19.9375 l 25
 10 -19.9375 l 25
 10 20.0625 l 25
10 80.0625 m 1
 40 80.0625 l 1
 40 30 l 25
 10 30 l 25
 10 80.0625 l 1
EndSplineSet
EndChar

StartChar: uniE2F6
Encoding: 58102 58102 404
Width: 80
Flags: HW
LayerCount: 2
Fore
SplineSet
50 130 m 25
 80 130 l 25
 80 90 l 25
 50 90 l 25
 50 130 l 25
50 20.0625 m 25
 80 20.0625 l 25
 80 -19.9375 l 25
 50 -19.9375 l 25
 50 20.0625 l 25
10 20.0625 m 25
 40 20.0625 l 25
 40 -19.9375 l 25
 10 -19.9375 l 25
 10 20.0625 l 25
10 80.0625 m 1
 40 80.0625 l 1
 40 30 l 25
 10 30 l 25
 10 80.0625 l 1
EndSplineSet
EndChar

StartChar: uniE2F7
Encoding: 58103 58103 405
Width: 80
Flags: HW
LayerCount: 2
Fore
SplineSet
50 130 m 25
 80 130 l 25
 80 90 l 25
 50 90 l 25
 50 130 l 25
10 130 m 25
 39.9998550415 130 l 25
 39.9998550415 90 l 25
 10 90 l 25
 10 130 l 25
50 20.0625 m 25
 80 20.0625 l 25
 80 -19.9375 l 25
 50 -19.9375 l 25
 50 20.0625 l 25
10 20.0625 m 25
 40 20.0625 l 25
 40 -19.9375 l 25
 10 -19.9375 l 25
 10 20.0625 l 25
10 80.0625 m 1
 40 80.0625 l 1
 40 30 l 25
 10 30 l 25
 10 80.0625 l 1
EndSplineSet
EndChar

StartChar: uniE2F8
Encoding: 58104 58104 406
Width: 80
Flags: HW
LayerCount: 2
Fore
SplineSet
50 80.0625 m 1
 80 80.0625 l 1
 80 30 l 25
 50 30 l 25
 50 80.0625 l 1
50 20.0625 m 25
 80 20.0625 l 25
 80 -19.9375 l 25
 50 -19.9375 l 25
 50 20.0625 l 25
10 20.0625 m 25
 40 20.0625 l 25
 40 -19.9375 l 25
 10 -19.9375 l 25
 10 20.0625 l 25
EndSplineSet
EndChar

StartChar: uniE2F9
Encoding: 58105 58105 407
Width: 80
Flags: HW
LayerCount: 2
Fore
SplineSet
10 130 m 25
 39.9998550415 130 l 25
 39.9998550415 90 l 25
 10 90 l 25
 10 130 l 25
50 80.0625 m 1
 80 80.0625 l 1
 80 30 l 25
 50 30 l 25
 50 80.0625 l 1
50 20.0625 m 25
 80 20.0625 l 25
 80 -19.9375 l 25
 50 -19.9375 l 25
 50 20.0625 l 25
10 20.0625 m 25
 40 20.0625 l 25
 40 -19.9375 l 25
 10 -19.9375 l 25
 10 20.0625 l 25
39.9998550415 130 m 1049
EndSplineSet
EndChar

StartChar: uniE2FA
Encoding: 58106 58106 408
Width: 80
Flags: HW
LayerCount: 2
Fore
SplineSet
50 130 m 25
 80 130 l 25
 80 90 l 25
 50 90 l 25
 50 130 l 25
50 80.0625 m 1
 80 80.0625 l 1
 80 30 l 25
 50 30 l 25
 50 80.0625 l 1
50 20.0625 m 25
 80 20.0625 l 25
 80 -19.9375 l 25
 50 -19.9375 l 25
 50 20.0625 l 25
10 20.0625 m 25
 40 20.0625 l 25
 40 -19.9375 l 25
 10 -19.9375 l 25
 10 20.0625 l 25
EndSplineSet
EndChar

StartChar: uniE2FB
Encoding: 58107 58107 409
Width: 80
Flags: HW
LayerCount: 2
Fore
SplineSet
50 130 m 25
 80 130 l 25
 80 90 l 25
 50 90 l 25
 50 130 l 25
10 130 m 25
 39.9998550415 130 l 25
 39.9998550415 90 l 25
 10 90 l 25
 10 130 l 25
50 80.0625 m 1
 80 80.0625 l 1
 80 30 l 25
 50 30 l 25
 50 80.0625 l 1
50 20.0625 m 25
 80 20.0625 l 25
 80 -19.9375 l 25
 50 -19.9375 l 25
 50 20.0625 l 25
10 20.0625 m 25
 40 20.0625 l 25
 40 -19.9375 l 25
 10 -19.9375 l 25
 10 20.0625 l 25
EndSplineSet
EndChar

StartChar: uniE2FC
Encoding: 58108 58108 410
Width: 80
Flags: HW
LayerCount: 2
Fore
SplineSet
50 80.0625 m 1
 80 80.0625 l 1
 80 30 l 25
 50 30 l 25
 50 80.0625 l 1
50 20.0625 m 25
 80 20.0625 l 25
 80 -19.9375 l 25
 50 -19.9375 l 25
 50 20.0625 l 25
10 20.0625 m 25
 40 20.0625 l 25
 40 -19.9375 l 25
 10 -19.9375 l 25
 10 20.0625 l 25
10 80.0625 m 1
 40 80.0625 l 1
 40 30 l 25
 10 30 l 25
 10 80.0625 l 1
EndSplineSet
EndChar

StartChar: uniE2FD
Encoding: 58109 58109 411
Width: 80
Flags: HW
LayerCount: 2
Fore
SplineSet
10 130 m 25
 39.9998550415 130 l 25
 39.9998550415 90 l 25
 10 90 l 25
 10 130 l 25
50 80.0625 m 1
 80 80.0625 l 1
 80 30 l 25
 50 30 l 25
 50 80.0625 l 1
50 20.0625 m 25
 80 20.0625 l 25
 80 -19.9375 l 25
 50 -19.9375 l 25
 50 20.0625 l 25
10 20.0625 m 25
 40 20.0625 l 25
 40 -19.9375 l 25
 10 -19.9375 l 25
 10 20.0625 l 25
10 80.0625 m 1
 40 80.0625 l 1
 40 30 l 25
 10 30 l 25
 10 80.0625 l 1
39.9998550415 130 m 1049
EndSplineSet
EndChar

StartChar: uniE2FE
Encoding: 58110 58110 412
Width: 80
Flags: HW
LayerCount: 2
Fore
SplineSet
50 130 m 25
 80 130 l 25
 80 90 l 25
 50 90 l 25
 50 130 l 25
50 80.0625 m 1
 80 80.0625 l 1
 80 30 l 25
 50 30 l 25
 50 80.0625 l 1
50 20.0625 m 25
 80 20.0625 l 25
 80 -19.9375 l 25
 50 -19.9375 l 25
 50 20.0625 l 25
10 20.0625 m 25
 40 20.0625 l 25
 40 -19.9375 l 25
 10 -19.9375 l 25
 10 20.0625 l 25
10 80.0625 m 1
 40 80.0625 l 1
 40 30 l 25
 10 30 l 25
 10 80.0625 l 1
EndSplineSet
EndChar

StartChar: uniE2FF
Encoding: 58111 58111 413
Width: 80
Flags: HW
LayerCount: 2
Fore
SplineSet
50 130 m 29
 80 130 l 29
 80 90 l 29
 50 90 l 29
 50 130 l 29
10 130 m 29
 39.9998550415 130 l 29
 39.9998550415 90 l 29
 10 90 l 29
 10 130 l 29
50 80.0625 m 5
 80 80.0625 l 5
 80 30 l 29
 50 30 l 29
 50 80.0625 l 5
50 20.0625 m 29
 80 20.0625 l 29
 80 -19.9375 l 29
 50 -19.9375 l 29
 50 20.0625 l 29
10 20.0625 m 29
 40 20.0625 l 29
 40 -19.9375 l 29
 10 -19.9375 l 29
 10 20.0625 l 29
10 80.0625 m 5
 40 80.0625 l 5
 40 30 l 29
 10 30 l 29
 10 80.0625 l 5
EndSplineSet
EndChar
